SplineFontDB: 1.0
FontName: Loma-Oblique
FullName: Loma Oblique
FamilyName: Loma
Weight: Book
Copyright: Copyright (c) NECTEC, 2003. All rights reserved.
Version: 0.9.1; 2003
ItalicAngle: -12
UnderlinePosition: -217
UnderlineWidth: 150
Ascent: 1638
Descent: 410
NeedsXUIDChange: 1
FSType: 0
PfmFamily: 17
TTFWeight: 400
TTFWidth: 5
Panose: 2 11 5 4 2 2 2 2 2 4
LineGap: 0
VLineGap: 0
OS2TypoAscent: 2089
OS2TypoDescent: -430
OS2TypoLinegap: 0
OS2WinAscent: 2089
OS2WinAOffset: 1
OS2WinDescent: 430
OS2WinDOffset: 1
HheadAscent: 0
HheadAOffset: 1
HheadDescent: 0
HheadDOffset: 1
ScriptLang: 3
 1 latn 1 dflt 
 1 thai 4 KUY  PAL  THA  dflt 
 1 thai 1 PAL  
ChainSub: coverage 0 1 'ccmp' 0 0 0 1
 2 0 0
  Coverage: 19 uni0E4B uni0E4B.low
  Coverage: 7 uni0E4D
 2
  SeqLookup: 0 'amni'
  SeqLookup: 1 'G007'
EndFPST
ChainSub: coverage 0 1 'ccmp' 0 0 0 1
 2 0 0
  Coverage: 19 uni0E4A uni0E4A.low
  Coverage: 7 uni0E4D
 2
  SeqLookup: 0 'amni'
  SeqLookup: 1 'G006'
EndFPST
ChainSub: coverage 0 1 'ccmp' 0 0 0 1
 2 0 0
  Coverage: 19 uni0E49 uni0E49.low
  Coverage: 7 uni0E4D
 2
  SeqLookup: 0 'amni'
  SeqLookup: 1 'G005'
EndFPST
ChainSub: coverage 0 1 'ccmp' 0 0 0 1
 2 0 0
  Coverage: 19 uni0E48 uni0E48.low
  Coverage: 7 uni0E4D
 2
  SeqLookup: 0 'amni'
  SeqLookup: 1 'G004'
EndFPST
ChainSub: coverage 0 1 'ccmp' 0 0 0 1
 1 0 1
  Coverage: 15 uni0E0D uni0E10
  FCoverage: 23 uni0E38 uni0E39 uni0E3A
 1
  SeqLookup: 0 'nds0'
EndFPST
ChainSub: coverage 0 1 'ccmp' 0 0 0 1
 1 2 0
  Coverage: 39 uni0E48 uni0E49 uni0E4A uni0E4B uni0E4C
  BCoverage: 23 uni0E38 uni0E39 uni0E3A

StartChar: .notdef
Encoding: 0 -1 0
OldEncoding: 0
Width: 1536
Flags: HW
Fore
256 0 m 1
 528 1280 l 1
 1552 1280 l 1
 1280 0 l 1
 256 0 l 1
295 32 m 1
 1255 32 l 1
 1513 1248 l 1
 553 1248 l 1
 295 32 l 1
EndSplineSet
EndChar
StartChar: exclam
Encoding: 3 33 5
OldEncoding: 33
Width: 569
Flags: HW
Fore
410 999 m 1
 506 1450 l 1
 686 1450 l 1
 590 999 l 1
 413 365 l 1
 320 365 l 1
 410 999 l 1
247 194 m 1
 411 194 l 1
 370 0 l 1
 206 0 l 1
 247 194 l 1
EndSplineSet
EndChar
StartChar: quotedbl
Encoding: 4 34 6
OldEncoding: 34
Width: 727
Flags: HW
Fore
357 947 m 1
 365 1217 l 1
 414 1450 l 1
 594 1450 l 1
 545 1217 l 1
 442 947 l 1
 357 947 l 1
688 947 m 1
 698 1217 l 1
 747 1450 l 1
 927 1450 l 1
 878 1217 l 1
 773 947 l 1
 688 947 l 1
EndSplineSet
EndChar
StartChar: numbersign
Encoding: 5 35 7
OldEncoding: 35
Width: 1139
Flags: HW
Fore
85 -10 m 1
 256 385 l 1
 103 385 l 1
 141 565 l 1
 324 565 l 1
 468 895 l 1
 211 895 l 1
 249 1075 l 1
 536 1075 l 1
 707 1470 l 1
 887 1470 l 1
 716 1075 l 1
 995 1075 l 1
 1166 1470 l 1
 1346 1470 l 1
 1175 1075 l 1
 1341 1075 l 1
 1303 895 l 1
 1107 895 l 1
 962 565 l 1
 1233 565 l 1
 1195 385 l 1
 894 385 l 1
 723 -10 l 1
 544 -10 l 1
 714 385 l 1
 436 385 l 1
 265 -10 l 1
 85 -10 l 1
504 565 m 1
 782 565 l 1
 927 895 l 1
 648 895 l 1
 504 565 l 1
EndSplineSet
EndChar
StartChar: dollar
Encoding: 6 36 8
OldEncoding: 36
Width: 1139
Flags: HW
Fore
487 -17 m 1
 416 -8 354 11 301 40 c 0
 250 67 210 110 182 169 c 0
 178 178 l 0
 160 219.25 151 265 151 315.25 c 0
 151 332 152 349.25 154 367 c 1
 165 417 l 1
 344 417 l 1
 342.936 401.567 342.406 386.825 342.406 372.771 c 0
 342.406 307.599 353.79 257.195 376 221 c 1
 386 207 394 195 402 185 c 0
 432 147 471 126 517 123 c 1
 629 651 l 1
 623 652 617 654 611 655 c 0
 566 665 509 690 439 731 c 1
 389 760 353 800 333 851 c 0
 321.523 880.84 315.973 913.315 315.973 948.424 c 0
 315.973 974.496 319.034 1002.02 325 1031 c 0
 350 1148 415 1243 521 1318 c 0
 526 1321 530 1323 534 1326 c 0
 603 1371 689 1399 790 1409 c 1
 807 1488 l 1
 950 1488 l 1
 933 1409 l 1
 947 1408 l 2
 1029 1399 1095 1370 1145 1323 c 0
 1156 1313 1167 1302 1176 1290 c 0
 1217.39 1236.65 1238.48 1177.37 1238.48 1111.39 c 0
 1238.48 1105.65 1238.32 1099.85 1238 1094 c 1
 1231 1050 l 1
 1056 1050 l 1
 1056.42 1055.56 1056.63 1061.09 1056.63 1066.59 c 0
 1056.63 1113.46 1041.33 1157.93 1010 1200 c 2
 1002 1211 l 1
 978 1242 945 1261 904 1269 c 1
 802 790 l 1
 803 789 l 1
 892 762 l 2
 919 754 941 747 955 741 c 0
 1029 708 1081 662 1109 604 c 0
 1126.99 567.409 1135.74 526.971 1135.74 482.687 c 0
 1135.74 455.567 1132.46 427.005 1126 397 c 0
 1102 281 1042 185 947 108 c 0
 937 100 928 93 917 86 c 0
 831 25 736 -9 631 -15 c 1
 609 -118 l 1
 466 -118 l 1
 487 -17 l 1
761 1271 m 1
 747 1269 733 1266 720 1263 c 0
 682 1252 642 1229 600 1192 c 1
 550 1150 520 1101 508 1044 c 0
 504.211 1026 502.316 1009 502.316 992.96 c 0
 502.316 958.213 511.211 928 529 902 c 0
 531 899 532 896 535 893 c 0
 563 855 606 827 663 810 c 1
 761 1271 l 1
667 124 m 2
 685 127 711 136 746 151 c 0
 778 165 808 184 834 207 c 0
 860 230 882 257 901 287 c 0
 920 318 933 351 940 386 c 0
 944.447 406.526 946.671 425.648 946.671 443.406 c 0
 946.671 477.555 938.447 506.658 922 531 c 1
 896 572 845 605 768 629 c 1
 660 123 l 1
 667 124 l 2
EndSplineSet
EndChar
StartChar: percent
Encoding: 7 37 9
OldEncoding: 37
Width: 1821
Flags: HW
Fore
356 1114 m 0
 378 1219 423 1308 490 1380 c 0
 559 1454 643 1491 743 1491 c 0
 838 1491 908 1458 951 1392 c 0
 979.668 1348.04 994.131 1293.13 994.131 1227.26 c 0
 994.131 1189.73 989.436 1148.64 980 1104 c 1
 954 986 902 890 828 817 c 1
 756 750 673 717 580 717 c 0
 489 717 423 750 381 815 c 0
 353.822 857.619 339.998 912.066 339.998 978.103 c 0
 339.998 1018.98 345.295 1064.3 356 1114 c 0
722 1366 m 0
 675 1366 633 1347 598 1308 c 0
 560 1266 530 1195 509 1096 c 0
 499.582 1051.26 494.82 1012.96 494.82 980.979 c 0
 494.82 945.049 500.831 917.105 513 897 c 0
 535 859 568 840 611 840 c 0
 656 840 698 859 736 898 c 128
 774 937 804 1007 826 1110 c 0
 835.524 1154.76 840.286 1193.17 840.286 1225.24 c 0
 840.286 1260.51 834.524 1288.1 823 1308 c 0
 801 1347 767 1366 722 1366 c 0
1534 1491 m 1
 1714 1491 l 1
 636 -10 l 1
 456 -10 l 1
 1534 1491 l 1
1140 344 m 0
 1162 449 1207 538 1275 610 c 0
 1343 684 1428 721 1529 721 c 0
 1624 721 1693 688 1736 622 c 0
 1765.68 576.833 1780.79 520.84 1780.79 454.023 c 0
 1780.79 417.288 1776.22 377.28 1767 334 c 0
 1741 213 1690 117 1614 47 c 0
 1541 -20 1458 -53 1365 -53 c 0
 1272 -53 1205 -20 1165 46 c 0
 1137.88 89.7635 1124.44 144.545 1124.44 209.877 c 0
 1124.44 250.536 1129.64 295.281 1140 344 c 0
1507 598 m 0
 1459 598 1418 579 1383 540 c 0
 1345 497 1316 426 1294 326 c 0
 1284.85 281.203 1280.1 242.671 1280.1 210.404 c 0
 1280.1 175.682 1285.6 148.214 1297 128 c 0
 1319 89 1352 70 1395 70 c 0
 1442 70 1484 89 1521 128 c 0
 1558 167 1588 237 1610 340 c 0
 1619.63 385.281 1624.4 424.065 1624.4 456.575 c 0
 1624.4 491.553 1618.88 519.269 1608 540 c 128
 1586 578 1552 598 1507 598 c 0
EndSplineSet
EndChar
StartChar: ampersand
Encoding: 8 38 10
OldEncoding: 38
Width: 1366
Flags: HW
Fore
1010 172 m 1
 865 41 711 -25 548 -25 c 0
 398 -25 290 26 222 127 c 1
 184.115 186.33 164.624 250.259 164.624 318.787 c 0
 164.624 346.126 167.726 374.197 174 403 c 0
 213 586 360 733 615 842 c 1
 590 880 571 914 557 944 c 0
 542 974 531 1002 524 1027 c 0
 517 1052 513 1076 513 1098 c 128
 512.869 1100.76 512.806 1103.54 512.806 1106.33 c 0
 512.806 1124.79 515.526 1143.89 519 1163 c 0
 538 1252 588 1328 671 1393 c 0
 754 1458 849 1491 954 1491 c 0
 1052 1491 1126 1460 1177 1399 c 0
 1215.23 1354.16 1234.54 1302.29 1234.54 1243.79 c 0
 1234.54 1222.71 1232.03 1200.78 1227 1178 c 0
 1198 1039 1081 920 875 821 c 1
 1066 485 l 1
 1108 542 1146 611 1179 690 c 1
 1359 649 l 1
 1299 522 1233 417 1161 334 c 1
 1210 247 1270 172 1342 109 c 1
 1191 -35 l 1
 1129 13 1068 82 1010 172 c 1
805 938 m 1
 893 982 952 1022 983 1057 c 0
 1013 1092 1033 1131 1043 1174 c 0
 1045.82 1187.83 1047.21 1200.94 1047.21 1213.36 c 0
 1047.21 1244.94 1038.23 1272.03 1021 1295 c 0
 996 1327 959 1343 912 1343 c 0
 864 1343 821 1327 781 1296 c 0
 742 1265 718 1227 708 1182 c 0
 705.805 1171.68 704.718 1161.22 704.718 1150.6 c 0
 704.718 1112.81 718.462 1072.93 745 1030 c 1
 805 938 l 1
684 725 m 1
 575 666 498 612 453 562 c 0
 409 512 381 463 371 416 c 0
 367.326 398.761 365.489 381.362 365.489 363.849 c 0
 365.489 319.391 377.326 274.196 401 229 c 1
 435 165 496 133 583 133 c 0
 609 133 638 137 669 146 c 0
 700 155 732 168 762 184 c 0
 793 201 823 220 851 242 c 0
 880 263 905 288 927 315 c 1
 684 725 l 1
EndSplineSet
EndChar
StartChar: quotesingle
Encoding: 9 39 11
OldEncoding: 39
Width: 391
Flags: HW
Fore
337 947 m 1
 350 1221 l 1
 402 1466 l 1
 607 1466 l 1
 555 1221 l 1
 448 947 l 1
 337 947 l 1
EndSplineSet
EndChar
StartChar: parenleft
Encoding: 10 40 12
OldEncoding: 40
Width: 682
Flags: HW
Fore
387 -431 m 1
 289 -260 230 -71 213 135 c 0
 209.4 174.9 207.6 214.71 207.6 254.43 c 0
 207.6 347.11 217.4 439.3 237 531 c 0
 288 773 393 999 552 1209 c 0
 616 1294 697 1388 796 1491 c 1
 925 1491 l 1
 798 1332 709 1211 658 1130 c 0
 562 978 490 809 443 622 c 0
 436 592 428 561 422 530 c 0
 398.35 419.978 386.566 310.074 386.566 200.247 c 0
 386.566 -10.3583 429.9 -220.679 516 -431 c 1
 387 -431 l 1
EndSplineSet
EndChar
StartChar: parenright
Encoding: 11 41 13
OldEncoding: 41
Width: 682
Flags: HW
Fore
161 -431 m 1
 32 -431 l 1
 299 -111 467 209 536 530 c 0
 563.144 657.877 576.825 777.385 576.825 888.525 c 0
 576.825 961.638 570.904 1031.13 559 1097 c 0
 543 1190 506 1316 447 1475 c 0
 444 1482 444 1482 441 1491 c 1
 570 1491 l 1
 661 1321 718 1165 740 1022 c 0
 749.888 962.277 754.77 900.521 754.77 836.793 c 0
 754.77 739.394 743.366 637.39 721 531 c 0
 668 283 547 36 357 -209 c 0
 295 -288 230 -362 161 -431 c 1
EndSplineSet
EndChar
StartChar: asterisk
Encoding: 12 42 14
OldEncoding: 42
Width: 797
Flags: HW
Fore
318 1197 m 1
 395 1339 l 1
 493 1302 563 1269 605 1242 c 1
 618 1363 629 1446 638 1491 c 1
 783 1491 l 1
 767 1425 741 1342 707 1243 c 1
 784 1278 868 1310 964 1339 c 1
 979 1197 l 1
 888 1169 801 1150 719 1141 c 1
 752 1106 796 1043 850 952 c 1
 712 867 l 1
 685 920 655 991 621 1082 c 1
 552 988 493 916 445 867 c 1
 345 952 l 1
 443 1047 512 1110 552 1141 c 1
 469 1158 391 1176 318 1197 c 1
EndSplineSet
EndChar
StartChar: plus
Encoding: 13 43 15
OldEncoding: 43
Width: 1196
Flags: HW
Fore
563 237 m 1
 649 639 l 1
 250 639 l 1
 286 807 l 1
 685 807 l 1
 769 1206 l 1
 939 1206 l 1
 855 807 l 1
 1254 807 l 1
 1218 639 l 1
 819 639 l 1
 733 237 l 1
 563 237 l 1
EndSplineSet
EndChar
StartChar: comma
Encoding: 14 44 16
OldEncoding: 44
Width: 569
Flags: HW
Fore
182 0 m 1
 226 205 l 1
 431 205 l 1
 387 0 l 2
 371 -75 345 -136 308 -182 c 0
 271 -229 222 -265 158 -290 c 1
 125 -213 l 1
 166 -196 199 -172 224 -140 c 0
 249 -107 269 -61 284 0 c 1
 182 0 l 1
EndSplineSet
EndChar
StartChar: hyphen
Encoding: 15 45 17
OldEncoding: 45
Width: 682
Flags: HW
Fore
159 440 m 1
 197 621 l 1
 750 621 l 1
 712 440 l 1
 159 440 l 1
EndSplineSet
EndChar
StartChar: period
Encoding: 16 46 18
OldEncoding: 46
Width: 569
Flags: HW
Fore
186 0 m 1
 230 205 l 1
 435 205 l 1
 391 0 l 1
 186 0 l 1
EndSplineSet
EndChar
StartChar: slash
Encoding: 17 47 19
OldEncoding: 47
Width: 595
Flags: HW
Fore
-83 -10 m 1
 818 1470 l 1
 1000 1470 l 1
 100 -10 l 1
 -83 -10 l 1
EndSplineSet
EndChar
StartChar: zero
Encoding: 18 48 20
OldEncoding: 48
Width: 1139
Flags: HW
Fore
240 723 m 0
 275 890 320 1026 376 1133 c 0
 489 1350 655 1459 873 1459 c 0
 1112.63 1459 1232.45 1319.88 1232.45 1041.21 c 0
 1232.45 950.069 1219.63 844.005 1194 723 c 0
 1155 540 1104 394 1040 285 c 0
 928 96 770 -2 561 -10 c 1
 497 -10 442 0 395 19 c 0
 265.816 71.5027 201.059 199.886 201.059 403.822 c 0
 201.059 495.092 214.029 601.494 240 723 c 0
424 723 m 0
 411 662 401 607 395 557 c 0
 388.936 508.832 385.903 464.836 385.903 425.014 c 0
 385.903 235.005 454.936 140 593 140 c 0
 788 141 927 335 1010 723 c 0
 1034.6 838.904 1046.91 937.585 1046.91 1019.07 c 0
 1046.91 1212.47 977.604 1309 839 1309 c 0
 764 1309 698 1283 642 1231 c 0
 550 1145 477 976 424 723 c 0
EndSplineSet
EndChar
StartChar: one
Encoding: 19 49 21
OldEncoding: 49
Width: 1139
Flags: HW
Fore
763 0 m 1
 583 0 l 1
 824 1135 l 1
 767 1069 689 1013 590 966 c 0
 530 937 472 918 416 907 c 1
 458 1104 l 1
 573 1153 677 1221 768 1306 c 0
 828 1363 871 1419 896 1472 c 1
 1076 1472 l 1
 763 0 l 1
EndSplineSet
KernsSLIF: 19 -152 0 0
EndChar
StartChar: two
Encoding: 20 50 22
OldEncoding: 50
Width: 1139
Flags: HW
Fore
1068 173 m 1
 1031 0 l 1
 62 0 l 1
 105 145 226 295 426 450 c 0
 463 478 504 509 552 542 c 0
 694 641 792 714 846 759 c 0
 964 858 1037 955 1066 1049 c 0
 1069 1059 1071 1069 1073 1079 c 0
 1077.65 1100.16 1079.96 1120.2 1079.96 1139.09 c 0
 1079.96 1193.42 1060.84 1238.39 1023 1274 c 0
 981 1313 924 1333 851 1333 c 0
 742 1333 654 1294 588 1217 c 0
 546 1169 518 1110 502 1039 c 1
 317 1039 l 1
 344 1168 410 1274 512 1356 c 0
 618 1440 743 1482 887 1482 c 0
 1028 1482 1132 1442 1200 1363 c 0
 1245.03 1310.11 1268.09 1245.98 1268.09 1170.61 c 0
 1268.09 1140.53 1264.42 1108.66 1257 1075 c 0
 1230 945 1152 822 1023 705 c 0
 968 656 880 588 756 501 c 2
 693 455 l 1
 497 317 l 1
 445 278 396 230 349 173 c 1
 1068 173 l 1
EndSplineSet
EndChar
StartChar: three
Encoding: 21 51 23
OldEncoding: 51
Width: 1139
Flags: HW
Fore
177 427 m 1
 357 427 l 1
 350 383 l 1
 349.833 379.056 349.75 375.154 349.75 371.296 c 0
 349.75 305.707 373.833 252.556 422 211 c 0
 465 174 519 156 586 156 c 0
 681 156 765 187 835 248 c 0
 895 301 933 366 950 445 c 0
 955.234 470.425 957.859 494.172 957.859 516.226 c 0
 957.859 582.649 934.047 633.715 886 669 c 0
 846 698 794 713 728 713 c 0
 685 713 638 707 589 694 c 1
 622 852 l 1
 676 850 l 1
 763 853 841 880 909 932 c 0
 971 979 1009 1037 1024 1105 c 0
 1028.08 1123.84 1030.11 1141.49 1030.11 1157.95 c 0
 1030.11 1214.05 1006.61 1256.4 961 1285 c 0
 927 1306 883 1317 829 1317 c 0
 687 1317 584 1244 523 1099 c 1
 511 1070 l 1
 331 1070 l 1
 353 1170 407 1259 494 1337 c 0
 584 1417 685 1464 799 1478 c 0
 820 1481 840 1482 860 1482 c 0
 977 1482 1069 1448 1135 1380 c 0
 1189.21 1324.98 1216.58 1258.18 1216.58 1180.13 c 0
 1216.58 1161.71 1215.05 1142.66 1212 1123 c 0
 1211 1116 1210 1108 1208 1101 c 0
 1187 1002 1131 919 1042 852 c 0
 1010 829 977 809 941 794 c 1
 1081 760 1151 677 1152 546 c 0
 1152.1 542.969 1152.15 539.918 1152.15 536.846 c 0
 1152.15 509.504 1148.19 480.464 1141 449 c 0
 1115 325 1051 220 949 135 c 1
 902 100 l 1
 796 27 679 -10 550 -10 c 0
 427 -10 330 29 259 106 c 0
 197.585 171.028 167.982 249.923 167.982 341.949 c 0
 167.982 351.815 168.322 361.833 169 372 c 0
 170 391 173 409 177 427 c 1
EndSplineSet
EndChar
StartChar: four
Encoding: 22 52 24
OldEncoding: 52
Width: 1139
Flags: HW
Fore
662 0 m 1
 736 347 l 1
 100 347 l 1
 137 522 l 1
 975 1472 l 1
 1155 1472 l 1
 953 522 l 1
 1151 522 l 1
 1114 347 l 1
 916 347 l 1
 842 0 l 1
 662 0 l 1
773 522 m 1
 899 1117 l 1
 362 522 l 1
 773 522 l 1
EndSplineSet
EndChar
StartChar: five
Encoding: 23 53 25
OldEncoding: 53
Width: 1139
Flags: HW
Fore
173 415 m 1
 362 415 l 1
 361.372 404.718 361.058 394.737 361.058 385.058 c 0
 361.058 271.429 404.3 199.41 490 169 c 0
 519 159 552 154 589 154 c 0
 691 154 779 191 851 265 c 0
 911 326 952 403 971 496 c 0
 978.37 529.577 982.015 560.62 982.015 589.149 c 0
 982.015 665.131 956.164 723.287 906 764 c 0
 863 799 803 817 727 817 c 0
 628 817 536 773 452 686 c 1
 267 708 l 1
 572 1472 l 1
 1301 1472 l 1
 1263 1292 l 1
 698 1292 l 1
 540 920 l 1
 602 964 690 986 801 987 c 0
 811 987 l 0
 937 987 1033 946 1101 864 c 0
 1152.82 800.753 1178.5 722.99 1178.5 631.596 c 0
 1178.5 603.051 1176 573.177 1171 542 c 0
 1170 532 1168 522 1166 512 c 0
 1136 370 1068 251 965 155 c 0
 860 57 739 3 601 -8 c 0
 586 -9 570 -10 554 -10 c 0
 393 -10 281 43 218 148 c 0
 185.889 203.607 169.113 270.255 169.113 347.944 c 0
 169.113 369.45 170.398 391.802 173 415 c 1
EndSplineSet
EndChar
StartChar: six
Encoding: 24 54 26
OldEncoding: 54
Width: 1139
Flags: HW
Fore
1253 1103 m 1
 1074 1103 l 1
 1073 1220 1021 1286 918 1302 c 0
 903 1304 886 1305 869 1305 c 0
 660 1305 521 1151 450 842 c 1
 527 918 619 962 729 973 c 0
 752 976 777 977 802 977 c 0
 917 977 1007 937 1075 858 c 0
 1133.2 789.377 1161.97 704.908 1161.97 605.249 c 0
 1161.97 590.179 1161.31 574.762 1160 559 c 0
 1158 536 1154 514 1149 491 c 0
 1120 354 1057 240 960 147 c 0
 861 51 746 -1 616 -9 c 0
 605 -10 595 -10 584 -10 c 0
 361 -10 234 97 201 312 c 0
 195.703 347.091 193.037 384.813 193.037 425.128 c 0
 193.037 506.594 203.925 598.651 226 701 c 0
 306 1078 452 1320 663 1425 c 0
 740 1463 825 1482 918 1482 c 0
 1034 1482 1124 1446 1189 1374 c 0
 1238.23 1319.92 1262.06 1256.08 1262.06 1182.46 c 0
 1262.06 1164.86 1260.7 1146.71 1258 1128 c 0
 1257 1120 1255 1112 1253 1103 c 1
410 490 m 0
 402.407 454.016 398.629 420.648 398.629 389.823 c 0
 398.629 327.276 414.186 275.202 445 233 c 0
 482 181 539 155 616 155 c 0
 709 155 790 191 856 263 c 0
 909 321 945 393 963 480 c 0
 970.414 514.907 974.106 547.238 974.106 577.022 c 0
 974.106 643.652 955.627 697.535 919 739 c 0
 880 784 823 807 748 807 c 0
 652 807 570 769 505 692 c 0
 458 637 427 570 410 490 c 0
EndSplineSet
EndChar
StartChar: seven
Encoding: 25 55 27
OldEncoding: 55
Width: 1139
Flags: HW
Fore
372 1292 m 1
 410 1472 l 1
 1359 1472 l 1
 1321 1292 l 1
 1131 1111 966 911 822 692 c 0
 661 446 557 215 511 0 c 1
 293 0 l 1
 344 235 464 494 651 776 c 0
 785 979 925 1151 1070 1292 c 1
 372 1292 l 1
EndSplineSet
EndChar
StartChar: eight
Encoding: 26 56 28
OldEncoding: 56
Width: 1139
Flags: HW
Fore
533 805 m 1
 423.211 848.916 368.316 923.255 368.316 1027.48 c 0
 368.316 1051.41 371.211 1076.92 377 1104 c 0
 401 1218 461 1310 558 1381 c 0
 650 1448 757 1482 878 1482 c 0
 1004 1482 1099 1445 1164 1372 c 0
 1209.86 1320.32 1232.41 1258.03 1232.41 1185.15 c 0
 1232.41 1157.91 1229.26 1129.2 1223 1099 c 0
 1195 967 1112 873 972 816 c 2
 944 805 l 1
 1073 760 1141 677 1150 556 c 0
 1150.83 545.752 1151.28 535.196 1151.28 524.355 c 0
 1151.28 496.057 1148.23 465.813 1141 434 c 1
 1123 368 l 1
 1080 233 996 132 873 65 c 0
 781 15 679 -10 564 -10 c 0
 423 -10 316 31 244 113 c 0
 190.71 172.86 164.065 246.042 164.065 332.547 c 0
 164.065 364.542 167.71 398.36 175 434 c 0
 176 437 176 437 176 439 c 0
 208 588 288 696 417 762 c 0
 453 781 492 795 533 805 c 1
562 1110 m 1
 557.484 1088.93 555.234 1069.17 555.234 1050.74 c 0
 555.234 995.711 575.296 952.463 615 921 c 0
 650 894 696 880 754 880 c 0
 835 880 903 907 959 960 c 0
 1000 999 1026 1045 1038 1100 c 0
 1042 1119 1044 1137 1044 1153.98 c 0
 1044 1204.94 1026 1246.75 990 1279 c 0
 953 1310 906 1326 847 1326 c 0
 768 1326 701 1301 644 1250 c 1
 617 1222 l 1
 593 1189 l 1
 575 1151 l 1
 562 1110 l 1
361 438 m 0
 355.882 413.489 353.304 390.211 353.304 368.205 c 0
 353.304 308.514 372.276 258.185 411 218 c 0
 456 171 519 147 599 147 c 0
 697 147 781 179 850 242 c 0
 905 293 941 356 957 432 c 0
 962.149 456.106 964.723 478.679 964.723 499.718 c 0
 964.723 568.573 937.149 621 882 657 c 0
 839 685 782 699 711 699 c 0
 602 699 515 666 448 601 c 0
 404 558 375 503 361 438 c 0
EndSplineSet
EndChar
StartChar: nine
Encoding: 27 57 29
OldEncoding: 57
Width: 1139
Flags: HW
Fore
217 369 m 1
 396 369 l 1
 398 252 450 186 553 170 c 0
 568 168 584 167 601 167 c 0
 810 167 950 321 1021 630 c 1
 944 554 851 510 742 499 c 0
 718 496 694 495 669 495 c 0
 554 495 464 535 396 614 c 0
 337.801 682.623 309.029 767.092 309.029 866.751 c 0
 309.029 881.821 309.686 897.238 311 913 c 0
 313 936 317 958 322 981 c 0
 351 1118 414 1232 511 1325 c 0
 610 1421 725 1473 855 1481 c 0
 866 1482 876 1482 887 1482 c 0
 1110 1482 1237 1375 1270 1160 c 0
 1275.19 1125.63 1277.75 1088.75 1277.75 1049.37 c 0
 1277.75 967.289 1266.63 874.397 1245 771 c 0
 1165 394 1019 152 808 47 c 0
 731 9 646 -10 553 -10 c 0
 437 -10 347 26 282 98 c 0
 232.767 152.076 208.938 215.923 208.938 289.542 c 0
 208.938 307.137 210.299 325.289 213 344 c 0
 214 352 216 360 217 369 c 1
1061 982 m 0
 1068.59 1017.98 1072.37 1051.35 1072.37 1082.18 c 0
 1072.37 1144.72 1056.81 1196.8 1026 1239 c 0
 988 1291 932 1317 855 1317 c 0
 762 1317 681 1281 615 1209 c 1
 584 1170 l 1
 548 1119 522 1060 508 992 c 0
 500.586 957.093 496.894 924.762 496.894 894.978 c 0
 496.894 828.348 515.373 774.465 552 733 c 0
 591 688 648 665 723 665 c 0
 819 665 900 703 966 780 c 0
 1012 835 1044 902 1061 982 c 0
EndSplineSet
EndChar
StartChar: colon
Encoding: 28 58 30
OldEncoding: 58
Width: 569
Flags: HW
Fore
367 857 m 1
 411 1062 l 1
 616 1062 l 1
 572 857 l 1
 367 857 l 1
185 0 m 1
 229 205 l 1
 434 205 l 1
 390 0 l 1
 185 0 l 1
EndSplineSet
EndChar
StartChar: semicolon
Encoding: 29 59 31
OldEncoding: 59
Width: 569
Flags: HW
Fore
364 857 m 1
 408 1062 l 1
 613 1062 l 1
 569 857 l 1
 364 857 l 1
182 0 m 1
 226 205 l 1
 431 205 l 1
 387 0 l 2
 361 -120 307 -206 223 -257 c 1
 204 -270 182 -281 158 -290 c 1
 125 -213 l 1
 185 -189 228 -147 255 -87 c 0
 266 -63 276 -34 284 0 c 1
 182 0 l 1
EndSplineSet
EndChar
StartChar: less
Encoding: 30 60 32
OldEncoding: 60
Width: 1196
Flags: HW
Fore
248 641 m 1
 284 809 l 1
 1342 1219 l 1
 1304 1040 l 1
 467 724 l 1
 1169 405 l 1
 1131 226 l 1
 248 641 l 1
EndSplineSet
EndChar
StartChar: equal
Encoding: 31 61 33
OldEncoding: 61
Width: 1196
Flags: HW
Fore
1265 862 m 1
 297 862 l 1
 333 1030 l 1
 1301 1030 l 1
 1265 862 l 1
1171 417 m 1
 203 417 l 1
 238 585 l 1
 1206 585 l 1
 1171 417 l 1
EndSplineSet
EndChar
StartChar: greater
Encoding: 32 62 34
OldEncoding: 62
Width: 1196
Flags: HW
Fore
1219 641 m 1
 160 226 l 1
 198 405 l 1
 1035 724 l 1
 333 1040 l 1
 371 1219 l 1
 1255 809 l 1
 1219 641 l 1
EndSplineSet
EndChar
StartChar: question
Encoding: 33 63 35
OldEncoding: 63
Width: 1139
Flags: HW
Fore
549 361 m 1
 567 436 l 1
 598 547 656 641 742 719 c 0
 763 738 807 773 876 826 c 0
 946 879 997 928 1030 972 c 0
 1056 1009 1075 1048 1084 1088 c 0
 1087.83 1104.6 1089.67 1120.83 1089.67 1136.7 c 0
 1089.67 1158.13 1086.32 1178.89 1080 1199 c 0
 1060 1263 1016 1306 947 1328 c 0
 918 1337 887 1341 853 1341 c 0
 713 1340 606 1268 531 1123 c 0
 519 1099 507 1073 497 1046 c 1
 312 1046 l 1
 347 1175 414 1282 514 1367 c 0
 621 1458 745 1504 885 1504 c 0
 1016 1504 1118 1467 1192 1392 c 0
 1250.43 1332.71 1279.32 1262.35 1279.32 1179.65 c 0
 1279.32 1166.1 1278.55 1152.22 1277 1138 c 1
 1266 1084 l 1
 1251 1027 1224 971 1185 914 c 0
 1158 875 1110 830 1044 780 c 0
 974 729 930 694 910 676 c 0
 820 597 760 502 729 389 c 0
 726 380 724 370 722 361 c 1
 549 361 l 1
461 0 m 1
 505 205 l 1
 710 205 l 1
 666 0 l 1
 461 0 l 1
EndSplineSet
EndChar
StartChar: at
Encoding: 34 64 36
OldEncoding: 64
Width: 2079
Flags: HW
Fore
1187 121 m 1
 1098 38 986 -3 853 -3 c 0
 746 -3 670 44 624 138 c 0
 597.586 191.443 584.379 252.81 584.379 321.87 c 0
 584.379 365.233 589.586 411.629 600 461 c 0
 623 570 669 671 736 764 c 0
 815 873 905 957 1008 1015 c 0
 1088 1061 1165 1084 1241 1084 c 0
 1383 1084 1474 1035 1512 938 c 1
 1576 1079 l 1
 1755 1079 l 1
 1461 379 l 1
 1434 315 1414 265 1401 229 c 1
 1398 212 l 1
 1399 202 1403 192 1411 182 c 0
 1422 169 1438 163 1457 163 c 0
 1527 163 1607 206 1696 291 c 0
 1782 374 1852 471 1903 580 c 0
 1926 628 1942 673 1951 716 c 0
 1961.26 764.177 1966.41 809.997 1966.41 853.506 c 0
 1966.41 962.625 1934.06 1057.21 1869 1138 c 0
 1786 1242 1664 1306 1502 1329 c 0
 1463 1335 1420 1338 1377 1338 c 0
 1166 1338 975 1276 802 1152 c 0
 764 1125 728 1095 694 1063 c 0
 546 924 444 754 389 553 c 0
 383 531 377 508 372 485 c 0
 356.757 412.866 349.145 345.696 349.145 283.471 c 0
 349.145 117.097 403.558 -13.931 512 -110 c 0
 635 -219 819 -274 1062 -274 c 0
 1288 -274 1484 -224 1650 -125 c 0
 1719 -84 1778 -36 1828 19 c 1
 2009 19 l 1
 1917 -113 1788 -219 1622 -300 c 0
 1443 -387 1245 -431 1031 -431 c 0
 739 -431 519 -361 371 -222 c 0
 247.089 -106.405 185.421 47.9195 185.421 239.823 c 0
 185.421 278.678 187.949 319.073 193 361 c 0
 197 396 203 432 211 469 c 0
 261 705 365 911 522 1087 c 0
 673 1256 854 1373 1064 1439 c 0
 1179 1475 1296 1493 1419 1493 c 0
 1628 1493 1797 1439 1925 1332 c 0
 2047 1231 2112 1098 2124 933 c 0
 2125.23 915.713 2125.86 898.244 2125.86 880.576 c 0
 2125.86 826.701 2120.05 770.985 2108 713 c 0
 2078 575 2012 440 1908 307 c 0
 1810 181 1702 88 1583 28 c 0
 1501 -13 1423 -33 1347 -33 c 0
 1301 -33 1265 -26 1239 -12 c 0
 1214 2 1198 22 1190 48 c 0
 1186.4 59.4 1184.6 72.6 1184.6 87.816 c 0
 1184.6 97.96 1185.4 109 1187 121 c 1
925 161 m 0
 1019 161 1110 207 1197 299 c 0
 1275 382 1331 480 1366 593 c 0
 1372 612 1377 630 1381 649 c 0
 1388.54 684.885 1392.35 717.405 1392.35 746.533 c 0
 1392.35 813.999 1371.91 863.268 1330 894 c 0
 1301 915 1266 925 1221 925 c 0
 1109 925 1006 862 913 737 c 0
 895 713 878 687 862 660 c 0
 855 648 848 636 841 623 c 0
 813 567 791 510 779 453 c 0
 771.102 416.023 767.199 382.269 767.199 351.69 c 0
 767.199 297.09 779.642 252.614 804 218 c 0
 832 180 872 161 925 161 c 0
EndSplineSet
EndChar
StartChar: A
Encoding: 35 65 37
OldEncoding: 65
Width: 1366
Flags: HW
Fore
867 1450 m 1
 1076 1450 l 1
 1368 0 l 1
 1149 0 l 1
 1048 471 l 1
 492 471 l 1
 203 0 l 1
 -2 0 l 1
 867 1450 l 1
1042 653 m 1
 922 1237 l 1
 574 653 l 1
 1042 653 l 1
EndSplineSet
KernsSLIF: 91 -37 0 0 89 -37 0 0 88 -37 0 0 59 -152 0 0 57 -76 0 0 56 -152 0 0 54 -152 0 0
EndChar
StartChar: B
Encoding: 36 66 38
OldEncoding: 66
Width: 1366
Flags: HW
Fore
164 0 m 1
 472 1450 l 1
 1008 1450 l 2
 1120 1450 1207 1435 1269 1406 c 0
 1337 1373 1383 1320 1407 1249 c 0
 1417.59 1217.81 1422.99 1185.58 1422.99 1151.91 c 0
 1422.99 1128.36 1420.35 1104.1 1415 1079 c 0
 1403 1019 1373 961 1328 906 c 0
 1282 851 1221 806 1145 772 c 1
 1229 746 1287 702 1322 639 c 0
 1343.79 597.404 1355.11 551.885 1355.11 501.866 c 0
 1355.11 476.128 1352.12 449.199 1346 421 c 0
 1326 326 1280 240 1207 164 c 0
 1181 137 1154 115 1127 97 c 0
 1077 65 1019 41 951 24 c 0
 883 8 802 0 709 0 c 2
 164 0 l 1
523 842 m 1
 840 842 l 2
 926 842 989 848 1029 859 c 0
 1134 888 1198 954 1219 1056 c 0
 1223.48 1077.08 1225.74 1096.7 1225.74 1114.86 c 0
 1225.74 1165.63 1208.09 1205.01 1172 1233 c 0
 1159 1243 1144 1251 1127 1256 c 0
 1087 1270 1013 1277 908 1277 c 2
 615 1277 l 1
 523 842 l 1
381 173 m 1
 746 173 l 2
 835 173 899 180 939 193 c 0
 958 199 978 208 1000 220 c 0
 1067 257 1111 312 1136 386 c 0
 1139 397 1143 409 1145 421 c 0
 1149.63 442.679 1151.94 462.994 1151.94 481.944 c 0
 1151.94 540.789 1129.63 586.474 1085 619 c 0
 1070 630 1054 638 1035 644 c 0
 988 661 918 669 825 669 c 2
 486 669 l 1
 381 173 l 1
EndSplineSet
EndChar
StartChar: C
Encoding: 37 67 39
OldEncoding: 67
Width: 1479
Flags: HW
Fore
1312 480 m 1
 1500 480 l 1
 1410 287 1285 150 1124 68 c 0
 1022 16 910 -10 789 -10 c 0
 631 -10 510 22 424 86 c 0
 339 151 283 244 258 366 c 0
 245.368 425.274 239.109 485.492 239.109 546.769 c 0
 239.109 611.615 246.118 677.647 260 745 c 0
 291 888 347 1016 430 1130 c 0
 512 1243 613 1329 733 1388 c 0
 854 1447 979 1477 1108 1477 c 0
 1255 1477 1370 1440 1454 1365 c 0
 1538 1290 1586 1185 1596 1050 c 1
 1408 1050 l 1
 1397 1171 1330 1247 1206 1280 c 0
 1164 1291 1118 1297 1066 1297 c 0
 953 1297 853 1270 766 1216 c 0
 606 1117 503 960 458 746 c 0
 445.739 689.293 439.742 634.413 439.742 581.36 c 0
 439.742 530.565 445.239 481.445 456 434 c 0
 487 309 560 228 678 191 c 0
 722 177 771 170 824 170 c 0
 950 170 1060 204 1156 272 c 0
 1235 328 1286 397 1312 480 c 1
EndSplineSet
EndChar
StartChar: D
Encoding: 38 68 40
OldEncoding: 68
Width: 1479
Flags: HW
Fore
168 0 m 1
 476 1450 l 1
 981 1450 l 2
 1280 1450 1465 1362 1533 1186 c 0
 1555.01 1130.2 1566.02 1063.4 1566.02 985.589 c 0
 1566.02 911.399 1556.01 827.202 1536 733 c 0
 1448 318 1234 80 895 17 c 0
 833 6 767 0 697 0 c 2
 168 0 l 1
387 173 m 1
 712 173 l 2
 1035 173 1240 344 1328 686 c 0
 1332 702 1336 719 1339 736 c 0
 1353.1 802.115 1360.14 862.16 1360.14 916.142 c 0
 1360.14 1134.05 1245.41 1253.16 1017 1274 c 0
 992 1276 967 1277 941 1277 c 2
 621 1277 l 1
 387 173 l 1
EndSplineSet
EndChar
StartChar: E
Encoding: 39 69 41
OldEncoding: 69
Width: 1366
Flags: HW
Fore
162 0 m 1
 470 1450 l 1
 1530 1450 l 1
 1492 1268 l 1
 611 1268 l 1
 517 826 l 1
 1197 826 l 1
 1158 646 l 1
 478 646 l 1
 379 179 l 1
 1260 179 l 1
 1222 0 l 1
 162 0 l 1
EndSplineSet
EndChar
StartChar: F
Encoding: 40 70 42
OldEncoding: 70
Width: 1251
Flags: HW
Fore
168 0 m 1
 476 1450 l 1
 1465 1450 l 1
 1427 1271 l 1
 617 1271 l 1
 521 820 l 1
 1183 820 l 1
 1145 641 l 1
 483 641 l 1
 347 0 l 1
 168 0 l 1
EndSplineSet
KernsSLIF: 35 -113 0 0 16 -227 0 0 14 -227 0 0
EndChar
StartChar: G
Encoding: 41 71 43
OldEncoding: 71
Width: 1479
Flags: HW
Fore
1549 684 m 1
 1546 666 1546 666 1542 650 c 0
 1509 497 1471 387 1430 320 c 0
 1404 276 1359 224 1295 164 c 0
 1291 161 1289 159 1286 156 c 0
 1164 45 998 -10 789 -10 c 0
 631 -10 510 22 424 86 c 0
 339 151 283 244 258 366 c 0
 245.368 425.274 239.109 485.492 239.109 546.769 c 0
 239.109 611.615 246.118 677.647 260 745 c 0
 291 888 347 1016 430 1130 c 0
 512 1243 613 1329 733 1388 c 0
 854 1447 979 1477 1108 1477 c 0
 1255 1477 1370 1440 1454 1365 c 0
 1538 1290 1586 1185 1596 1050 c 1
 1408 1050 l 1
 1405 1087 1396 1119 1382 1148 c 0
 1333 1247 1228 1297 1066 1297 c 0
 953 1297 853 1270 766 1216 c 0
 606 1117 503 960 458 746 c 0
 445.739 689.293 439.742 634.413 439.742 581.36 c 0
 439.742 530.565 445.239 481.445 456 434 c 0
 466 394 480 358 500 327 c 0
 563 222 671 170 824 170 c 0
 833 170 843 170 852 171 c 0
 976 176 1082 214 1172 284 c 1
 1190 299 l 2
 1247 350 1287 405 1309 465 c 1
 1319 504 l 1
 1012 504 l 1
 1050 684 l 1
 1549 684 l 1
EndSplineSet
EndChar
StartChar: H
Encoding: 42 72 44
OldEncoding: 72
Width: 1479
Flags: HW
Fore
164 0 m 1
 472 1450 l 1
 652 1450 l 1
 524 848 l 1
 1314 848 l 1
 1442 1450 l 1
 1622 1450 l 1
 1314 0 l 1
 1134 0 l 1
 1276 668 l 1
 486 668 l 1
 344 0 l 1
 164 0 l 1
EndSplineSet
EndChar
StartChar: I
Encoding: 43 73 45
OldEncoding: 73
Width: 650
Flags: HW
Fore
659 160 m 1
 625 0 l 1
 25 0 l 1
 59 160 l 1
 269 160 l 1
 509 1290 l 1
 299 1290 l 1
 333 1450 l 1
 933 1450 l 1
 899 1290 l 1
 689 1290 l 1
 449 160 l 1
 659 160 l 1
EndSplineSet
EndChar
StartChar: J
Encoding: 44 74 46
OldEncoding: 74
Width: 1024
Flags: HW
Fore
1173 1450 m 1
 962 456 l 2
 935 331 897 237 848 172 c 0
 836 157 824 143 810 129 c 0
 730 47 630 1 511 -8 c 1
 461 -10 l 1
 336 -10 247 24 193 92 c 0
 185 100 179 109 173 118 c 0
 148.835 155.88 136.614 206.555 136.614 269.749 c 0
 136.614 303.315 140.062 340.412 147 381 c 0
 150 402 155 427 161 455 c 1
 341 455 l 1
 327 378 l 1
 325.297 362.386 324.399 347.659 324.399 333.819 c 0
 324.399 298.905 330.11 269.632 343 246 c 0
 370 195 422 170 498 170 c 0
 556 170 605 183 644 209 c 0
 662 220 680 235 699 252 c 0
 730 281 755 333 772 408 c 0
 774 421 774 421 785 471 c 2
 957 1280 l 1
 680 1280 l 1
 716 1450 l 1
 1173 1450 l 1
EndSplineSet
EndChar
StartChar: K
Encoding: 45 75 47
OldEncoding: 75
Width: 1366
Flags: HW
Fore
150 0 m 1
 458 1450 l 1
 638 1450 l 1
 497 785 l 1
 1380 1450 l 1
 1624 1450 l 1
 781 806 l 1
 1346 0 l 1
 1113 0 l 1
 621 670 l 1
 445 539 l 1
 330 0 l 1
 150 0 l 1
EndSplineSet
EndChar
StartChar: L
Encoding: 46 76 48
OldEncoding: 76
Width: 1139
Flags: HW
Fore
150 0 m 1
 458 1450 l 1
 638 1450 l 1
 366 170 l 1
 1096 170 l 1
 1060 0 l 1
 150 0 l 1
EndSplineSet
KernsSLIF: 91 -76 0 0 59 -152 0 0 57 -152 0 0 56 -152 0 0 54 -152 0 0
EndChar
StartChar: M
Encoding: 47 77 49
OldEncoding: 77
Width: 1706
Flags: HW
Fore
152 0 m 1
 460 1450 l 1
 640 1450 l 1
 879 133 l 1
 1678 1450 l 1
 1858 1450 l 1
 1550 0 l 1
 1370 0 l 1
 1575 964 l 1
 996 0 l 1
 706 0 l 1
 537 964 l 1
 332 0 l 1
 152 0 l 1
EndSplineSet
EndChar
StartChar: N
Encoding: 48 78 50
OldEncoding: 78
Width: 1479
Flags: HW
Fore
156 0 m 1
 464 1450 l 1
 644 1450 l 1
 1198 315 l 1
 1439 1450 l 1
 1619 1450 l 1
 1311 0 l 1
 1131 0 l 1
 577 1136 l 1
 336 0 l 1
 156 0 l 1
EndSplineSet
EndChar
StartChar: O
Encoding: 49 79 51
OldEncoding: 79
Width: 1593
Flags: HW
Fore
256 714 m 0
 306 949 406 1135 558 1271 c 1
 714 1407 900 1476 1115 1478 c 1
 1314 1478 1463 1416 1562 1293 c 0
 1636.88 1199.8 1674.32 1081.84 1674.32 939.143 c 0
 1674.32 902.709 1671.88 864.661 1667 825 c 0
 1664 794 1658 763 1651 731 c 0
 1607 524 1515 354 1376 221 c 0
 1242 93 1084 18 900 -4 c 0
 866 -8 833 -10 798 -10 c 0
 608 -10 462 48 361 165 c 0
 277.863 261.692 235.556 383.7 235.556 531.76 c 0
 235.556 547.544 236.037 563.623 237 580 c 0
 240 624 246 669 256 714 c 0
455 711 m 0
 442.565 652.652 436.332 598.676 436.332 549.071 c 0
 436.332 443.096 464.782 357.073 522 291 c 0
 591 210 695 170 835 170 c 0
 1014 170 1160 233 1273 358 c 0
 1359 453 1419 578 1452 732 c 0
 1465.56 796.476 1472.33 855.704 1472.33 909.757 c 0
 1472.33 1019.18 1444.56 1107.4 1389 1175 c 0
 1321 1257 1217 1298 1078 1298 c 0
 855 1298 686 1206 572 1021 c 0
 520 936 481 832 455 711 c 0
EndSplineSet
EndChar
StartChar: P
Encoding: 50 80 52
OldEncoding: 80
Width: 1366
Flags: HW
Fore
158 0 m 1
 466 1450 l 1
 1019 1450 l 2
 1154 1450 1250 1440 1307 1421 c 0
 1343 1409 1376 1391 1406 1368 c 0
 1462 1322 1495 1255 1503 1168 c 0
 1504.92 1153.58 1505.82 1138.84 1505.82 1123.87 c 0
 1505.82 1092.12 1501.79 1059.29 1495 1026 c 0
 1469 901 1406 796 1309 710 c 0
 1211 623 1058 580 851 580 c 2
 461 580 l 1
 338 0 l 1
 158 0 l 1
498 753 m 1
 891 753 l 2
 1016 753 1110 776 1173 823 c 0
 1236 870 1276 935 1294 1020 c 0
 1299.02 1044.26 1301.55 1066.96 1301.55 1088.13 c 0
 1301.55 1142.88 1284.62 1187.38 1250 1222 c 1
 1223 1243 l 1
 1209 1252 1194 1259 1177 1264 c 0
 1146 1273 1086 1277 998 1277 c 2
 609 1277 l 1
 498 753 l 1
EndSplineSet
KernsSLIF: 35 -152 0 0 16 -264 0 0 14 -264 0 0
EndChar
StartChar: Q
Encoding: 51 81 53
OldEncoding: 81
Width: 1659
Flags: HW
Fore
1269 354 m 1
 1343 426 1398 532 1437 673 c 0
 1442 692 1447 712 1452 732 c 0
 1465.56 796.476 1472.33 855.704 1472.33 909.757 c 0
 1472.33 1019.18 1444.56 1107.4 1389 1175 c 0
 1321 1257 1217 1298 1078 1298 c 0
 855 1298 686 1206 572 1021 c 0
 520 936 481 832 455 711 c 0
 442.565 652.334 436.332 598.14 436.332 548.387 c 0
 436.332 442.096 464.782 356.073 522 290 c 0
 542 267 566 247 592 230 c 1
 632 314 698 379 789 424 c 0
 831 445 875 460 921 468 c 0
 947 473 971 475 996 475 c 0
 1087 474 1163 449 1226 399 c 0
 1244 385 1258 370 1269 354 c 1
1360 204 m 1
 1373 185 1395 176 1427 175 c 0
 1441 175 1457 177 1473 181 c 0
 1514 190 1550 206 1581 228 c 1
 1678 90 l 1
 1589 21 1495 -14 1396 -14 c 0
 1341 -14 1291 -3 1248 20 c 0
 1215 38 1191 61 1175 88 c 1
 1085 36 994 5 903 -5 c 1
 818 -10 l 2
 798 -10 l 0
 608 -10 462 48 361 165 c 0
 277.863 261.692 235.556 383.7 235.556 531.76 c 0
 235.556 547.544 236.037 563.623 237 580 c 0
 240 624 246 669 256 714 c 0
 306 949 406 1135 558 1271 c 1
 714 1407 900 1476 1115 1478 c 1
 1314 1478 1463 1416 1562 1293 c 0
 1636.88 1199.8 1674.32 1081.84 1674.32 939.143 c 0
 1674.32 902.709 1671.88 864.661 1667 825 c 0
 1664 794 1658 763 1651 731 c 0
 1608 526 1536 371 1435 266 c 0
 1410 242 1386 221 1360 204 c 1
1098 226 m 1
 1068 273 1026 297 971 297 c 0
 960 297 950 296 938 294 c 0
 867 281 813 243 778 181 c 0
 777 178 776 176 775 174 c 1
 791 169 811 167 838 167 c 0
 916 168 985 179 1049 202 c 0
 1068 209 1085 217 1098 226 c 1
EndSplineSet
EndChar
StartChar: R
Encoding: 52 82 54
OldEncoding: 82
Width: 1400
Flags: HW
Fore
821 580 m 1
 461 580 l 1
 338 0 l 1
 158 0 l 1
 466 1450 l 1
 1019 1450 l 2
 1154 1450 1250 1440 1307 1421 c 0
 1343 1409 1376 1391 1406 1368 c 0
 1462 1322 1495 1255 1503 1168 c 0
 1504.92 1153.58 1505.82 1138.84 1505.82 1123.87 c 0
 1505.82 1092.12 1501.79 1059.29 1495 1026 c 0
 1469 901 1406 796 1309 710 c 0
 1246 654 1160 616 1051 596 c 1
 1387 0 l 1
 1107 0 l 1
 821 580 l 1
498 753 m 1
 891 753 l 2
 1016 753 1110 776 1173 823 c 0
 1236 870 1276 935 1294 1020 c 0
 1299.02 1044.26 1301.55 1066.96 1301.55 1088.13 c 0
 1301.55 1142.88 1284.62 1187.38 1250 1222 c 1
 1223 1243 l 1
 1209 1252 1194 1259 1177 1264 c 0
 1146 1273 1086 1277 998 1277 c 2
 609 1277 l 1
 498 753 l 1
EndSplineSet
KernsSLIF: 59 -37 0 0 57 -37 0 0 56 -37 0 0 54 -37 0 0
EndChar
StartChar: S
Encoding: 53 83 55
OldEncoding: 83
Width: 1366
Flags: HW
Fore
199 502 m 1
 382 502 l 1
 380.62 486.62 379.93 471.755 379.93 457.406 c 0
 379.93 326.215 437.62 238.169 553 194 c 0
 606 174 669 164 743 164 c 0
 864 164 964 191 1043 245 c 0
 1106 289 1145 345 1160 413 c 0
 1163.14 428.306 1164.71 442.796 1164.71 456.483 c 0
 1164.71 517.013 1133.98 561.823 1072 592 c 0
 1049 603 1021 613 987 622 c 1
 781 666 l 1
 635 703 535 742 476 781 c 0
 402.712 830.969 365.491 899.665 365.491 986.509 c 0
 365.491 1003.94 366.991 1022.11 370 1041 c 0
 371 1050 373 1058 375 1067 c 0
 402 1193 475 1293 594 1367 c 0
 703 1436 832 1471 977 1471 c 0
 1138 1471 1261 1428 1345 1342 c 0
 1362 1325 1376 1307 1389 1287 c 1
 1411 1245 l 1
 1429.62 1202.69 1438.92 1156.09 1438.92 1105.8 c 0
 1438.92 1096.65 1438.62 1087.38 1438 1078 c 1
 1432 1019 l 1
 1246 1019 l 1
 1247.09 1030.68 1247.64 1042.03 1247.64 1053.05 c 0
 1247.64 1132.66 1219.09 1195.2 1162 1240 c 0
 1109 1280 1038 1300 948 1300 c 0
 807 1300 702 1267 633 1202 c 0
 597 1168 575 1127 565 1080 c 0
 561.784 1065.73 560.184 1052.18 560.184 1039.38 c 0
 560.184 988.501 585.463 949.367 635 923 c 0
 667 906 730 887 825 865 c 0
 842 861 855 858 866 856 c 0
 1017 820 1119 791 1172 768 c 0
 1271 727 1330 671 1351 598 c 0
 1357.38 574.935 1360.63 549.703 1360.63 522.186 c 0
 1360.63 493.629 1357.13 462.611 1350 429 c 0
 1323 302 1251 198 1134 117 c 0
 1025 40 898 -2 753 -9 c 0
 740 -10 728 -10 715 -10 c 0
 475 -10 316 55 238 186 c 0
 204.228 242.061 186.88 308.159 186.88 384.602 c 0
 186.88 421.334 190.886 460.456 199 502 c 1
EndSplineSet
EndChar
StartChar: T
Encoding: 54 84 56
OldEncoding: 84
Width: 1251
Flags: HW
Fore
538 0 m 1
 810 1280 l 1
 320 1280 l 1
 356 1450 l 1
 1518 1450 l 1
 1482 1280 l 1
 990 1280 l 1
 718 0 l 1
 538 0 l 1
EndSplineSet
KernsSLIF: 91 -113 0 0 89 -113 0 0 87 -76 0 0 85 -227 0 0 84 -76 0 0 81 -227 0 0 75 -76 0 0 71 -227 0 0 69 -227 0 0 67 -227 0 0 49 -37 0 0 35 -152 0 0 29 -227 0 0 28 -227 0 0 16 -227 0 0 15 -113 0 0 14 -227 0 0
EndChar
StartChar: U
Encoding: 55 85 57
OldEncoding: 85
Width: 1479
Flags: HW
Fore
1442 1450 m 1
 1622 1450 l 1
 1435 567 l 2
 1353 182 1121 -10 739 -10 c 0
 419.843 -10 259.506 120.549 259.506 380.887 c 0
 259.506 406.046 261.004 432.417 264 460 c 0
 268 494 274 530 282 567 c 2
 469 1450 l 1
 649 1450 l 1
 462 568 l 2
 452.04 521.591 447.065 479.268 447.065 441.013 c 0
 447.065 298.747 515.873 212.735 653 182 c 0
 688 174 728 170 773 170 c 0
 954 170 1084 226 1163 338 c 0
 1204 395 1234 472 1255 568 c 2
 1442 1450 l 1
EndSplineSet
EndChar
StartChar: V
Encoding: 56 86 58
OldEncoding: 86
Width: 1366
Flags: HW
Fore
577 0 m 1
 317 1450 l 1
 527 1450 l 1
 736 279 l 1
 1460 1450 l 1
 1658 1450 l 1
 776 0 l 1
 577 0 l 1
EndSplineSet
KernsSLIF: 91 -76 0 0 87 -76 0 0 84 -76 0 0 81 -113 0 0 75 -37 0 0 71 -113 0 0 67 -152 0 0 35 -152 0 0 29 -76 0 0 28 -76 0 0 16 -188 0 0 15 -113 0 0 14 -188 0 0
EndChar
StartChar: W
Encoding: 57 87 59
OldEncoding: 87
Width: 1933
Flags: HW
Fore
414 0 m 1
 333 1450 l 1
 532 1450 l 1
 596 390 l 1
 1142 1450 l 1
 1396 1450 l 1
 1492 390 l 1
 2006 1450 l 1
 2205 1450 l 1
 1508 0 l 1
 1310 0 l 1
 1210 1170 l 1
 612 0 l 1
 414 0 l 1
EndSplineSet
KernsSLIF: 91 -18 0 0 87 -37 0 0 84 -37 0 0 81 -37 0 0 71 -37 0 0 67 -76 0 0 35 -76 0 0 29 -37 0 0 28 -37 0 0 16 -113 0 0 15 -37 0 0 14 -113 0 0
EndChar
StartChar: X
Encoding: 58 88 60
OldEncoding: 88
Width: 1366
Flags: HW
Fore
9 0 m 1
 725 756 l 1
 384 1450 l 1
 614 1450 l 1
 873 902 l 1
 1391 1450 l 1
 1621 1450 l 1
 959 756 l 1
 1353 0 l 1
 1123 0 l 1
 811 613 l 1
 239 0 l 1
 9 0 l 1
EndSplineSet
EndChar
StartChar: Y
Encoding: 59 89 61
OldEncoding: 89
Width: 1366
Flags: HW
Fore
571 0 m 1
 703 621 l 1
 314 1451 l 1
 544 1451 l 1
 862 855 l 1
 1428 1451 l 1
 1658 1451 l 1
 897 621 l 1
 765 0 l 1
 571 0 l 1
EndSplineSet
KernsSLIF: 88 -113 0 0 87 -113 0 0 83 -188 0 0 82 -152 0 0 81 -188 0 0 75 -76 0 0 71 -188 0 0 67 -152 0 0 35 -152 0 0 29 -133 0 0 28 -113 0 0 16 -264 0 0 15 -188 0 0 14 -264 0 0
EndChar
StartChar: Z
Encoding: 60 90 62
OldEncoding: 90
Width: 1251
Flags: HW
Fore
41 0 m 1
 81 187 l 1
 1215 1270 l 1
 315 1270 l 1
 353 1450 l 1
 1521 1450 l 1
 1483 1270 l 1
 363 180 l 1
 1238 180 l 1
 1200 0 l 1
 41 0 l 1
EndSplineSet
EndChar
StartChar: bracketleft
Encoding: 61 91 63
OldEncoding: 91
Width: 569
Flags: HW
Fore
52 -407 m 1
 451 1466 l 1
 848 1466 l 1
 816 1317 l 1
 599 1317 l 1
 264 -258 l 1
 481 -258 l 1
 449 -407 l 1
 52 -407 l 1
EndSplineSet
EndChar
StartChar: backslash
Encoding: 62 92 64
OldEncoding: 92
Width: 569
Flags: HW
Fore
420 -25 m 1
 317 1491 l 1
 462 1491 l 1
 564 -25 l 1
 420 -25 l 1
EndSplineSet
EndChar
StartChar: bracketright
Encoding: 63 93 65
OldEncoding: 93
Width: 569
Flags: HW
Fore
349 -407 m 1
 -48 -407 l 1
 -16 -258 l 1
 201 -258 l 1
 536 1317 l 1
 319 1317 l 1
 351 1466 l 1
 748 1466 l 1
 349 -407 l 1
EndSplineSet
EndChar
StartChar: asciicircum
Encoding: 64 94 66
OldEncoding: 94
Width: 961
Flags: HW
Fore
386 690 m 1
 201 690 l 1
 724 1491 l 1
 869 1491 l 1
 1054 690 l 1
 873 690 l 1
 753 1287 l 1
 386 690 l 1
EndSplineSet
EndChar
StartChar: underscore
Encoding: 65 95 67
OldEncoding: 95
Width: 1139
Flags: HW
Fore
-118 -407 m 1
 -90 -277 l 1
 1103 -277 l 1
 1075 -407 l 1
 -118 -407 l 1
EndSplineSet
EndChar
StartChar: grave
Encoding: 66 96 68
OldEncoding: 96
Width: 682
Flags: HW
Fore
719 1194 m 1
 574 1194 l 1
 402 1474 l 1
 643 1474 l 1
 719 1194 l 1
EndSplineSet
EndChar
StartChar: a
Encoding: 67 97 69
OldEncoding: 97
Width: 1139
Flags: HW
Fore
856 131 m 1
 777 74 704 34 638 11 c 0
 571 -12 503 -24 432 -24 c 0
 315 -24 232 5 181 62 c 0
 144.135 103.202 126.08 152.242 126.08 209.875 c 0
 126.08 231.973 128.734 255.333 134 280 c 0
 145 332 167 379 200 422 c 0
 232 465 270 500 314 526 c 0
 358 552 406 572 456 585 c 0
 493 594 549 603 622 612 c 0
 771 629 882 650 956 674 c 1
 963 699 966 714 967 721 c 0
 972.818 747.545 975.727 771.314 975.727 792.258 c 0
 975.727 828.909 966.818 856.909 949 876 c 0
 912 917 848 937 757 937 c 0
 672 937 607 922 560 892 c 0
 513 863 472 810 437 735 c 1
 266 759 l 1
 298 834 337 895 384 942 c 0
 431 988 491 1023 566 1048 c 0
 640 1073 724 1086 815 1086 c 0
 906 1086 976 1075 1029 1054 c 0
 1082 1033 1117 1006 1137 974 c 0
 1157 941 1166 900 1167 851 c 0
 1166 820 1158 765 1141 685 c 2
 1090 445 l 2
 1054 278 1036 172 1033 128 c 0
 1032.93 124.802 1032.89 121.619 1032.89 118.451 c 0
 1032.89 77.0354 1038.99 38.0862 1052 0 c 1
 864 0 l 1
 856.737 24.4294 852.962 51.9103 852.962 82.155 c 0
 852.962 97.718 853.962 114.013 856 131 c 1
926 533 m 1
 856 506 753 484 618 465 c 0
 542 454 487 442 453 429 c 0
 419 416 392 396 370 370 c 0
 347 345 333 316 327 285 c 0
 324.082 272.268 322.642 260.098 322.642 248.492 c 0
 322.642 216.342 333.692 188.512 355 165 c 0
 385 133 435 117 505 117 c 0
 574 117 639 132 699 162 c 0
 760 193 809 234 845 287 c 0
 873 328 895 388 912 467 c 2
 926 533 l 1
EndSplineSet
EndChar
StartChar: b
Encoding: 68 98 70
OldEncoding: 98
Width: 1139
Flags: HW
Fore
301 0 m 1
 134 0 l 1
 446 1466 l 1
 626 1466 l 1
 514 943 l 1
 611 1038 718 1086 836 1086 c 0
 978 1086 1078 1032 1138 924 c 0
 1171.95 861.755 1189.3 788.836 1189.3 705.493 c 0
 1189.3 656.28 1183.25 603.432 1171 547 c 0
 1134 372 1060 233 949 131 c 0
 847 37 729 -10 594 -10 c 0
 488 -10 407 21 352 84 c 0
 342 95 334 106 326 119 c 1
 301 0 l 1
427 539 m 0
 415.5 485.334 409.708 436.89 409.708 393.668 c 0
 409.708 312.859 429.954 250.303 471 206 c 0
 506 168 554 149 613 149 c 0
 718 150 806 193 879 278 c 0
 935 345 974 429 996 532 c 0
 1006.85 582.541 1012.3 628.48 1012.3 669.738 c 0
 1012.3 750.114 991.63 812.727 950 857 c 0
 911 900 856 921 785 921 c 0
 713 921 644 889 577 824 c 0
 501 750 451 655 427 539 c 0
EndSplineSet
EndChar
StartChar: c
Encoding: 69 99 71
OldEncoding: 99
Width: 1024
Flags: HW
Fore
914 403 m 1
 1091 403 l 1
 1052 244 968 129 841 58 c 0
 760 13 666 -10 561 -10 c 0
 435 -10 337 31 265 113 c 0
 205.353 183.353 175.529 272.419 175.529 380.197 c 0
 175.529 413.36 178.353 448.294 184 485 c 0
 186 499 189 513 192 527 c 0
 232 714 311 858 432 958 c 0
 535 1043 656 1086 795 1086 c 0
 960 1086 1070 1036 1124 936 c 0
 1147.67 893.097 1159.3 842.533 1159.3 783.905 c 0
 1159.3 763.274 1157.86 741.645 1155 719 c 0
 1154 712 1153 704 1151 696 c 1
 976 696 l 1
 977.143 705.857 977.714 715.449 977.714 724.776 c 0
 977.714 780.735 957.143 827.143 916 864 c 0
 876 899 827 916 766 916 c 0
 576 916 450 805 390 583 c 1
 378 532 l 1
 368.36 486.288 363.555 444.637 363.555 407.018 c 0
 363.555 323.662 387.146 260.098 434 216 c 0
 473 179 527 160 595 160 c 0
 724 161 817 207 874 300 c 0
 891 330 904 364 914 403 c 1
EndSplineSet
EndChar
StartChar: d
Encoding: 70 100 72
OldEncoding: 100
Width: 1139
Flags: HW
Fore
824 0 m 1
 850 122 l 1
 771 34 663 -10 525 -10 c 0
 388 -10 289 41 226 142 c 0
 185.841 207.343 165.604 285.196 165.604 375.557 c 0
 165.604 417.951 170.058 463.099 179 511 c 0
 181 521 181 521 183 530 c 0
 218 697 287 831 389 933 c 0
 492 1035 612 1086 750 1086 c 0
 879 1086 966 1046 1012 965 c 2
 1016 958 l 1
 1124 1466 l 1
 1303 1466 l 1
 991 0 l 1
 824 0 l 1
368 530 m 0
 356.849 478.639 351.293 432.188 351.293 390.646 c 0
 351.293 309.247 372.626 246.699 415 203 c 0
 454 164 507 144 575 144 c 0
 634 144 695 171 758 224 c 0
 839 293 894 384 922 496 c 0
 924 505 924 505 926 515 c 0
 937.025 566.818 942.513 614.178 942.513 657.033 c 0
 942.513 730.788 926.257 791.195 894 838 c 0
 858 891 806 917 739 917 c 0
 618 917 523 861 452 750 c 0
 415 690 386 617 368 530 c 0
EndSplineSet
EndChar
StartChar: e
Encoding: 71 101 73
OldEncoding: 101
Width: 1139
Flags: HW
Fore
933 333 m 1
 1119 333 l 1
 1070 214 989 123 876 62 c 0
 801 21 720 -2 629 -8 c 0
 612 -9 596 -10 579 -10 c 0
 392 -10 267 52 207 177 c 0
 180.838 229.919 167.757 292.03 167.757 363.333 c 0
 167.757 411.949 173.838 464.838 186 522 c 0
 225 705 304 848 424 949 c 0
 530 1040 657 1086 802 1086 c 0
 969 1086 1082 1026 1142 906 c 0
 1170.51 847.791 1184.56 778.645 1184.56 698.772 c 0
 1184.56 644.172 1177.99 584.559 1165 520 c 0
 1162 508 1159 496 1156 485 c 1
 370 485 l 1
 362.991 448.254 359.5 414.53 359.5 383.83 c 0
 359.5 269.993 407.489 197.716 502 167 c 0
 535 157 572 152 614 152 c 0
 754 152 857 205 920 311 c 0
 933 333 l 1
409 649 m 1
 1000 649 l 1
 1002.25 667.688 1003.38 685.392 1003.38 702.112 c 0
 1003.38 811.548 955.023 878.844 857 904 c 0
 831 911 800 914 767 914 c 0
 684 914 609 889 540 839 c 0
 475 790 431 727 409 649 c 1
EndSplineSet
EndChar
StartChar: f
Encoding: 72 102 74
OldEncoding: 102
Width: 569
Flags: HW
Fore
178 0 m 1
 345 785 l 1
 186 785 l 1
 216 925 l 1
 375 925 l 1
 428 1175 l 2
 458 1318 527 1418 635 1474 c 0
 688 1501 746 1515 809 1515 c 0
 860 1515 909 1506 956 1488 c 1
 920 1316 l 1
 869 1334 824 1343 786 1343 c 0
 783.25 1343.12 780.516 1343.19 777.801 1343.19 c 0
 758.797 1343.19 740.75 1340.12 725 1334 c 0
 664 1312 624 1254 604 1160 c 2
 554 925 l 1
 733 925 l 1
 703 785 l 1
 524 785 l 1
 357 0 l 1
 178 0 l 1
EndSplineSet
KernsSLIF: 72 -37 0 0
EndChar
StartChar: g
Encoding: 73 103 75
OldEncoding: 103
Width: 1139
Flags: HW
Fore
86 -74 m 1
 261 -74 l 1
 256 -115 l 1
 255.89 -117.599 255.835 -120.165 255.835 -122.7 c 0
 255.835 -189.408 293.855 -233.842 369 -256 c 0
 397 -264 429 -268 464 -268 c 0
 585 -268 676 -227 737 -146 c 0
 784 -84 821 9 847 134 c 0
 848 136 848 136 849 139 c 1
 750 46 642 0 525 0 c 0
 379 0 275 54 215 163 c 0
 179.66 224.845 162.241 297.443 162.241 380.542 c 0
 162.241 429.123 168.194 481.292 180 537 c 0
 214 695 280 824 381 925 c 0
 486 1032 612 1086 757 1086 c 0
 898 1086 993 1049 1043 974 c 1
 1062 1062 l 1
 1228 1062 l 1
 1033 144 l 2
 988 -65 922 -214 834 -301 c 0
 780 -355 712 -392 629 -413 c 0
 573 -428 507 -435 430 -435 c 1
 362 -431 l 1
 240 -418 155 -370 110 -287 c 0
 88.6667 -247.667 78 -203 78 -153 c 0
 78 -128 80.6667 -101.667 86 -74 c 1
368 550 m 0
 356.73 496.835 351.102 449.312 351.102 407.432 c 0
 351.102 278.372 404.545 202.895 511 181 c 0
 532 177 554 175 579 175 c 0
 766 175 885 298 938 544 c 0
 948.688 594.999 954.061 640.868 954.061 681.609 c 0
 954.061 774.276 926.264 840.407 870 880 c 0
 835 905 790 917 734 917 c 0
 623 917 532 869 463 774 c 0
 419 714 387 639 368 550 c 0
EndSplineSet
EndChar
StartChar: h
Encoding: 74 104 76
OldEncoding: 104
Width: 1139
Flags: HW
Fore
135 0 m 1
 447 1466 l 1
 627 1466 l 1
 521 970 l 1
 576 1026 646 1064 731 1083 c 0
 765 1091 799 1095 833 1095 c 0
 984 1095 1083 1042 1130 935 c 0
 1147.99 893.798 1156.89 847.208 1156.89 795.034 c 0
 1156.89 757.301 1152.23 716.648 1143 673 c 2
 1000 0 l 1
 820 0 l 1
 953 624 l 2
 959.975 657.325 963.459 687.422 963.459 714.29 c 0
 963.459 826.097 903.131 882 783 882 c 0
 646 882 545 817 480 687 c 0
 457 642 441 591 428 532 c 2
 315 0 l 1
 135 0 l 1
EndSplineSet
EndChar
StartChar: i
Encoding: 75 105 77
OldEncoding: 105
Width: 455
Flags: HW
Fore
404 1259 m 1
 448 1466 l 1
 628 1466 l 1
 584 1259 l 1
 404 1259 l 1
136 0 m 1
 362 1062 l 1
 542 1062 l 1
 316 0 l 1
 136 0 l 1
EndSplineSet
EndChar
StartChar: j
Encoding: 76 106 78
OldEncoding: 106
Width: 455
Flags: HW
Fore
401 1257 m 1
 446 1466 l 1
 626 1466 l 1
 581 1257 l 1
 401 1257 l 1
-182 -412 m 1
 -149 -259 l 1
 -115 -264 -87 -267 -64 -267 c 0
 -5 -267 39 -247 67 -206 c 0
 89 -174 108 -123 123 -54 c 2
 360 1062 l 1
 540 1062 l 1
 302 -58 l 2
 262 -246 186 -362 74 -406 c 0
 36 -421 -6 -428 -52 -428 c 0
 -92 -428 -135 -423 -182 -412 c 1
EndSplineSet
EndChar
StartChar: k
Encoding: 77 107 79
OldEncoding: 107
Width: 1024
Flags: HW
Fore
136 0 m 1
 448 1466 l 1
 628 1466 l 1
 450 630 l 1
 968 1062 l 1
 1201 1062 l 1
 711 668 l 1
 1016 0 l 1
 794 0 l 1
 558 543 l 1
 405 421 l 1
 316 0 l 1
 136 0 l 1
EndSplineSet
EndChar
StartChar: l
Encoding: 78 108 80
OldEncoding: 108
Width: 455
Flags: HW
Fore
131 0 m 1
 443 1466 l 1
 623 1466 l 1
 311 0 l 1
 131 0 l 1
EndSplineSet
EndChar
StartChar: m
Encoding: 79 109 81
OldEncoding: 109
Width: 1706
Flags: HW
Fore
135 0 m 1
 361 1062 l 1
 522 1062 l 1
 490 913 l 1
 534 965 588 1007 650 1038 c 0
 711 1070 778 1086 849 1086 c 0
 928 1086 988 1070 1032 1037 c 0
 1075 1004 1101 959 1109 900 c 1
 1220 1024 1342 1086 1477 1086 c 0
 1582 1086 1657 1057 1701 998 c 0
 1729.37 961.43 1743.43 912.138 1743.43 850.374 c 0
 1743.43 814.182 1738.61 773.707 1729 729 c 2
 1574 0 l 1
 1395 0 l 1
 1537 669 l 2
 1549.05 723.22 1554.86 766.097 1554.86 797.207 c 0
 1554.86 807.408 1554.23 816.345 1553 824 c 0
 1548 856 1532 882 1506 901 c 0
 1479 920 1445 930 1404 930 c 0
 1329 930 1261 905 1202 856 c 0
 1142 806 1100 726 1077 617 c 2
 946 0 l 1
 766 0 l 1
 913 690 l 2
 920.471 725.159 924.08 756.455 924.08 783.888 c 0
 924.08 818.875 918.21 847.579 907 870 c 0
 886 910 843 930 776 930 c 0
 725 930 676 917 627 890 c 0
 578 863 538 824 508 773 c 0
 478 722 453 648 432 551 c 2
 315 0 l 1
 135 0 l 1
EndSplineSet
EndChar
StartChar: n
Encoding: 80 110 82
OldEncoding: 110
Width: 1139
Flags: HW
Fore
135 0 m 1
 361 1064 l 1
 541 1064 l 1
 521 970 l 1
 576 1026 646 1064 731 1083 c 0
 765 1091 799 1095 833 1095 c 0
 984 1095 1083 1042 1130 935 c 0
 1147.99 893.798 1156.89 847.208 1156.89 795.034 c 0
 1156.89 757.301 1152.23 716.648 1143 673 c 2
 1000 0 l 1
 820 0 l 1
 953 624 l 2
 959.975 657.325 963.459 687.422 963.459 714.29 c 0
 963.459 826.097 903.131 882 783 882 c 0
 646 882 545 817 480 687 c 0
 457 642 441 591 428 532 c 2
 315 0 l 1
 135 0 l 1
EndSplineSet
EndChar
StartChar: o
Encoding: 81 111 83
OldEncoding: 111
Width: 1139
Flags: HW
Fore
181 531 m 0
 221 721 305 865 431 964 c 0
 535 1045 657 1086 797 1086 c 0
 953 1086 1065 1035 1133 932 c 0
 1175.09 868.207 1196.42 790.574 1196.42 699.385 c 0
 1196.42 651.917 1190.64 600.775 1179 546 c 0
 1128 305 1018 141 850 54 c 0
 766 11 671 -11 564 -11 c 0
 385 -11 264 50 202 171 c 0
 175.278 225.631 161.604 290.135 161.604 364.512 c 0
 161.604 415.388 168.002 470.884 181 531 c 0
366 531 m 0
 355.305 480.703 349.957 435.253 349.957 394.672 c 0
 349.957 294.867 382.305 224.523 447 184 c 0
 487 159 536 147 597 147 c 0
 734 147 839 208 914 329 c 0
 949 386 975 456 992 537 c 0
 1002.45 585.653 1007.67 629.935 1007.67 669.879 c 0
 1007.67 752.266 985.449 816.204 941 862 c 0
 900 906 840 928 763 928 c 0
 640 928 540 875 465 770 c 0
 419 706 386 626 366 531 c 0
EndSplineSet
EndChar
StartChar: p
Encoding: 82 112 84
OldEncoding: 112
Width: 1139
Flags: HW
Fore
492 957 m 1
 505 970 519 981 533 992 c 0
 615 1055 709 1086 815 1086 c 0
 950 1086 1048 1039 1110 945 c 0
 1153.19 879.247 1175.19 798.118 1175.19 701.881 c 0
 1175.19 648.83 1168.5 591.188 1155 529 c 0
 1123 377 1058 251 962 152 c 0
 856 44 733 -10 591 -10 c 0
 473 -10 386 38 330 133 c 1
 219 -390 l 1
 39 -390 l 1
 351 1076 l 1
 518 1076 l 1
 492 957 l 1
414 537 m 0
 405.071 495.571 400.607 456.821 400.607 420.75 c 0
 400.607 355.821 415.071 299.571 444 252 c 0
 483 187 538 155 610 155 c 0
 681 155 745 176 803 219 c 0
 894 286 955 395 987 544 c 0
 990 561 993 578 995 595 c 0
 998.472 621.039 1000.25 645.759 1000.25 669.243 c 0
 1000.25 699.872 997.226 728.397 991 755 c 1
 978 798 l 1
 941 883 871 926 766 927 c 0
 707 927 651 908 600 870 c 0
 508 802 447 691 414 537 c 0
EndSplineSet
EndChar
StartChar: q
Encoding: 83 113 85
OldEncoding: 113
Width: 1139
Flags: HW
Fore
1070 1076 m 1
 1237 1076 l 1
 925 -390 l 1
 745 -390 l 1
 856 133 l 1
 760 38 653 -10 535 -10 c 0
 393 -10 292 44 232 152 c 0
 198.093 214.163 181.14 286.971 181.14 370.176 c 0
 181.14 419.484 187.093 472.442 199 529 c 0
 237 704 311 843 422 945 c 0
 524 1039 642 1086 777 1086 c 0
 883 1086 963 1055 1019 992 c 0
 1029 981 1037 970 1044 957 c 1
 1070 1076 l 1
944 537 m 0
 955.385 590.128 961.056 638.139 961.056 681.032 c 0
 961.056 762.47 940.611 825.459 900 870 c 0
 865 908 817 927 758 927 c 0
 653 926 565 883 492 798 c 1
 459 755 l 1
 428 708 405 655 387 595 c 0
 383 578 378 561 375 544 c 0
 364.146 493.459 358.699 447.52 358.699 406.262 c 0
 358.699 325.887 379.37 263.273 421 219 c 0
 459 176 515 155 586 155 c 0
 658 155 727 187 794 252 c 0
 869 326 919 421 944 537 c 0
EndSplineSet
EndChar
StartChar: r
Encoding: 84 114 86
OldEncoding: 114
Width: 682
Flags: HW
Fore
133 0 m 1
 359 1062 l 1
 521 1062 l 1
 496 947 l 1
 529 992 577 1027 640 1052 c 0
 647 1055 657 1058 667 1062 c 0
 695 1072 727 1077 762 1077 c 0
 827 1077 883 1061 929 1028 c 1
 831 861 l 1
 793 887 752 900 709 900 c 0
 686 900 664 896 643 889 c 0
 627 883 610 875 594 864 c 0
 518 815 465 713 431 556 c 2
 313 0 l 1
 133 0 l 1
EndSplineSet
KernsSLIF: 16 -113 0 0 14 -113 0 0
EndChar
StartChar: s
Encoding: 85 115 87
OldEncoding: 115
Width: 1024
Flags: HW
Fore
139 358 m 1
 317 358 l 1
 316.458 350.208 316.187 342.636 316.187 335.285 c 0
 316.187 234.141 367.521 174.713 471 157 c 0
 495 153 520 151 548 151 c 0
 633 151 704 172 760 214 c 0
 796 241 818 271 825 306 c 0
 826.635 314.622 827.453 322.89 827.453 330.801 c 0
 827.453 376.111 800.635 409.716 747 431 c 0
 721 442 679 452 621 463 c 0
 503 486 426 505 390 520 c 0
 330 544 289 583 268 638 c 0
 257.679 664.107 252.518 691.689 252.518 720.969 c 0
 252.518 739.915 254.679 759.571 259 780 c 0
 281 884 343 964 446 1021 c 0
 526 1064 616 1086 715 1086 c 0
 881 1086 989 1040 1041 949 c 0
 1062.17 912.144 1072.28 869.755 1072.28 820.866 c 0
 1072.28 807.41 1071.51 793.461 1070 779 c 0
 1070 774 1068 769 1067 764 c 1
 891 764 l 1
 891.305 769.027 891.457 773.936 891.457 778.727 c 0
 891.457 868.267 838.16 916.406 729 924 c 1
 694 925 l 2
 603 925 533 902 486 856 c 1
 466 833 l 1
 453 807 l 1
 444 778 l 1
 443.732 774.517 443.608 770.962 443.608 767.373 c 0
 443.608 757.569 444.536 747.517 446 738 c 0
 452 709 478 687 524 673 c 0
 544 667 588 657 654 644 c 0
 776 620 859 597 904 575 c 0
 982 538 1022 479 1022 400 c 0
 1022 377 1020 352 1014 325 c 0
 992 220 929 136 827 73 c 0
 736 17 632 -11 515 -11 c 0
 344 -11 229 39 171 138 c 0
 146.161 181.104 134.131 232.214 134.131 290.55 c 0
 134.131 312.063 135.767 334.56 139 358 c 1
EndSplineSet
EndChar
StartChar: t
Encoding: 86 116 88
OldEncoding: 116
Width: 569
Flags: HW
Fore
562 161 m 1
 554 2 l 1
 504 -8 455 -13 408 -13 c 0
 342 -13 296 -3 270 17 c 0
 234 44 214 82 212 130 c 0
 211.586 135.524 211.381 141.429 211.381 147.719 c 0
 211.381 186.972 219.348 241.186 234 311 c 2
 364 922 l 1
 214 922 l 1
 244 1062 l 1
 394 1062 l 1
 473 1433 l 1
 652 1433 l 1
 573 1062 l 1
 723 1062 l 1
 693 922 l 1
 543 922 l 1
 411 301 l 2
 402.386 260.803 397.895 230.911 397.895 211.694 c 0
 397.895 204.138 398.589 198.233 400 194 c 0
 404 184 412 175 423 167 c 0
 437 158 456 153 482 153 c 0
 499 153 525 156 562 161 c 1
EndSplineSet
EndChar
StartChar: u
Encoding: 87 117 89
OldEncoding: 117
Width: 1139
Flags: HW
Fore
1200 1085 m 1
 969 0 l 1
 789 0 l 1
 803 64 l 1
 750 17 665 -7 546 -10 c 0
 540 -10 540 -10 535 -10 c 2
 466 -7 l 1
 325 8 235 71 197 181 c 0
 184.677 215.825 178.67 254.095 178.67 295.81 c 0
 178.67 331.954 183.18 370.684 192 412 c 2
 335 1085 l 1
 515 1085 l 1
 382 461 l 2
 375.856 432.582 372.792 406.393 372.792 382.449 c 0
 372.792 312.868 398.665 262.247 450 231 c 0
 483 211 526 201 577 201 c 0
 747 201 850 286 886 456 c 2
 1020 1085 l 1
 1200 1085 l 1
EndSplineSet
EndChar
StartChar: v
Encoding: 88 118 90
OldEncoding: 118
Width: 1024
Flags: HW
Fore
429 0 m 1
 252 1062 l 1
 442 1062 l 1
 577 269 l 1
 1036 1062 l 1
 1226 1062 l 1
 599 0 l 1
 429 0 l 1
EndSplineSet
KernsSLIF: 16 -152 0 0 14 -152 0 0
EndChar
StartChar: w
Encoding: 89 119 91
OldEncoding: 119
Width: 1479
Flags: HW
Fore
331 0 m 1
 232 1062 l 1
 418 1062 l 1
 476 246 l 1
 874 1062 l 1
 1058 1062 l 1
 1121 246 l 1
 1514 1062 l 1
 1689 1062 l 1
 1163 0 l 1
 975 0 l 1
 957 265 l 1
 930 623 916 807 914 817 c 1
 519 0 l 1
 331 0 l 1
EndSplineSet
KernsSLIF: 16 -113 0 0 14 -113 0 0
EndChar
StartChar: x
Encoding: 90 120 92
OldEncoding: 120
Width: 1024
Flags: HW
Fore
15 0 m 1
 513 552 l 1
 270 1062 l 1
 495 1062 l 1
 647 694 l 1
 992 1062 l 1
 1207 1062 l 1
 726 562 l 1
 1009 0 l 1
 788 0 l 1
 594 419 l 1
 233 0 l 1
 15 0 l 1
EndSplineSet
EndChar
StartChar: y
Encoding: 91 121 93
OldEncoding: 121
Width: 1024
Flags: HW
Fore
40 -409 m 1
 56 -240 l 1
 88 -249 123 -254 160 -254 c 0
 207 -254 247 -246 278 -231 c 0
 323 -209 357 -181 379 -146 c 0
 401 -112 419 -64 436 -2 c 1
 259 1062 l 1
 453 1062 l 1
 568 201 l 1
 1052 1062 l 1
 1232 1062 l 1
 602 -1 l 1
 556 -145 504 -245 447 -302 c 0
 418 -331 383 -355 340 -375 c 0
 282 -402 218 -418 149 -422 c 1
 96 -421 l 1
 75 -419 56 -415 40 -409 c 1
EndSplineSet
KernsSLIF: 16 -152 0 0 14 -152 0 0
EndChar
StartChar: z
Encoding: 92 122 94
OldEncoding: 122
Width: 1024
Flags: HW
Fore
40 0 m 1
 73 155 l 1
 911 916 l 1
 255 916 l 1
 286 1062 l 1
 1174 1062 l 1
 1143 916 l 1
 295 155 l 1
 1013 155 l 1
 980 0 l 1
 40 0 l 1
EndSplineSet
EndChar
StartChar: braceleft
Encoding: 93 123 95
OldEncoding: 123
Width: 684
Flags: HW
Fore
187 612 m 1
 238 613 283 627 321 654 c 0
 360 680 388 716 409 762 c 0
 430 808 452 887 476 998 c 0
 501 1109 518 1183 529 1218 c 0
 547 1274 567 1319 592 1353 c 0
 615 1387 641 1414 669 1434 c 0
 697 1455 731 1470 771 1481 c 0
 797 1488 840 1491 897 1491 c 2
 953 1491 l 1
 920 1334 l 1
 889 1334 l 2
 820 1334 771 1321 742 1296 c 0
 714 1271 691 1216 673 1129 c 0
 636 954 608 844 592 798 c 0
 565 727 533 672 495 633 c 128
 458 594 405 560 337 530 c 1
 403 499 447 453 467 390 c 0
 474.623 365.989 478.323 336.022 478.323 300.21 c 0
 478.323 242.06 468.566 168.498 450 80 c 0
 422 -50 407 -127 405 -152 c 0
 403.949 -161.458 403.428 -170.341 403.428 -178.641 c 0
 403.428 -209.833 410.783 -232.783 425 -247 c 0
 443 -265 484 -274 547 -274 c 2
 578 -274 l 1
 544 -431 l 1
 488 -431 l 2
 423 -431 376 -426 350 -415 c 0
 310 -400 280 -375 260 -340 c 0
 241.625 -310.25 232.438 -273.609 232.438 -229.408 c 0
 232.438 -223.094 232.625 -216.625 233 -210 c 0
 236 -157 250 -71 274 49 c 0
 297.322 160.946 310.201 240.692 310.201 288.238 c 0
 310.201 291.659 310.134 294.913 310 298 c 0
 309 344 296 380 269 407 c 0
 242 434 203 448 152 449 c 1
 187 612 l 1
EndSplineSet
EndChar
StartChar: bar
Encoding: 94 124 96
OldEncoding: 124
Width: 532
Flags: HW
Fore
96 -431 m 1
 505 1491 l 1
 662 1491 l 1
 253 -431 l 1
 96 -431 l 1
EndSplineSet
EndChar
StartChar: braceright
Encoding: 95 125 97
OldEncoding: 125
Width: 684
Flags: HW
Fore
756 612 m 1
 721 449 l 1
 670 448 625 434 587 407 c 0
 549 380 520 344 499 298 c 0
 479 253 457 174 432 63 c 0
 408 -48 390 -122 380 -157 c 0
 362 -214 341 -259 318 -292 c 0
 294 -326 268 -353 240 -374 c 0
 211 -394 177 -409 138 -420 c 0
 111 -427 68 -431 11 -431 c 2
 -45 -431 l 1
 -11 -274 l 1
 20 -274 l 2
 89 -274 138 -261 166 -236 c 0
 194 -211 217 -155 236 -68 c 0
 271 99 296 204 312 249 c 0
 339 323 372 382 414 426 c 0
 455 471 507 505 572 530 c 1
 503 567 459 615 441 676 c 0
 433.78 698.8 430.17 727.665 430.17 762.54 c 0
 430.17 819.44 439.78 892.34 459 981 c 0
 486 1111 501 1189 503 1214 c 0
 504.06 1223.54 504.581 1232.46 504.581 1240.75 c 0
 504.581 1271.56 497.395 1293.82 484 1308 c 0
 466 1325 425 1334 362 1334 c 2
 331 1334 l 1
 364 1491 l 1
 420 1491 l 2
 485 1491 532 1486 559 1475 c 0
 598 1460 628 1436 649 1401 c 0
 667.182 1369.18 676.273 1330.75 676.273 1284.21 c 0
 676.273 1279.55 676.182 1274.82 676 1270 c 0
 673 1217 658 1131 634 1011 c 0
 609.962 895.615 597.942 814.439 597.942 767.472 c 0
 597.942 765.593 597.962 763.769 598 762 c 0
 599 717 613 681 639 654 c 0
 666 627 705 613 756 612 c 1
EndSplineSet
EndChar
StartChar: asciitilde
Encoding: 96 126 98
OldEncoding: 126
Width: 1196
Flags: HW
Fore
205 557 m 1
 249 762 l 1
 337 842 437 882 552 882 c 0
 592 882 633 876 675 864 c 0
 716 853 774 830 848 795 c 0
 890 776 921 763 943 757 c 0
 965 751 988 748 1011 748 c 0
 1054 748 1102 761 1153 787 c 0
 1206 813 1254 846 1298 885 c 1
 1253 673 l 1
 1202 633 1152 604 1105 586 c 0
 1058 568 1007 559 952 559 c 0
 912 559 875 564 840 573 c 0
 806 582 754 605 682 640 c 0
 610 675 548 693 495 693 c 0
 452 693 410 684 370 666 c 0
 328 647 273 611 205 557 c 1
EndSplineSet
EndChar
StartChar: uni007F
Encoding: 97 127 99
OldEncoding: 127
Width: 1247
Flags: HW
Fore
340 928 m 0
 344 945 353 960 367 972 c 128
 380 983 396 989 413 989 c 0
 430 989 444 983 453 972 c 128
 459.374 963.502 462.738 953.498 462.738 942.346 c 0
 462.738 937.751 462.167 932.961 461 928 c 0
 458 911 448 896 434 885 c 128
 421 874 404 868 387 868 c 0
 370 868 357 874 348 885 c 128
 341.555 892.877 338.7 902.806 338.7 914.051 c 0
 338.7 918.509 339.148 923.174 340 928 c 0
560 1071 m 0
 563 1088 572 1103 586 1114 c 128
 599 1126 616 1132 633 1132 c 0
 650 1132 663 1126 673 1114 c 128
 678.956 1105.81 682.141 1095.4 682.141 1083.6 c 0
 682.141 1079.55 681.766 1075.34 681 1071 c 0
 677 1054 668 1039 655 1028 c 128
 640 1017 624 1011 607 1011 c 0
 590 1011 576 1017 568 1028 c 128
 561.626 1035.79 558.262 1045.59 558.262 1056.68 c 0
 558.262 1061.25 558.833 1066.04 560 1071 c 0
800 1139 m 0
 804 1156 813 1171 826 1182 c 128
 840 1194 856 1200 873 1200 c 0
 890 1200 904 1194 913 1182 c 128
 919.374 1174.21 922.738 1164.41 922.738 1153.32 c 0
 922.738 1148.75 922.167 1143.96 921 1139 c 0
 917 1122 908 1107 895 1096 c 128
 881 1085 864 1079 847 1079 c 0
 830 1079 817 1085 808 1096 c 128
 801.626 1103.79 798.262 1113.59 798.262 1124.68 c 0
 798.262 1129.25 798.833 1134.04 800 1139 c 0
129 505 m 0
 133 522 142 537 155 548 c 128
 169 560 185 566 202 566 c 0
 219 566 233 560 242 548 c 128
 248.374 540.21 251.738 530.413 251.738 519.321 c 0
 251.738 514.751 251.167 509.961 250 505 c 0
 247 488 238 473 224 462 c 128
 210 451 194 445 177 445 c 0
 160 445 146 451 137 462 c 128
 131.044 470.19 127.859 480.598 127.859 492.398 c 0
 127.859 496.446 128.234 500.658 129 505 c 0
209 309 m 0
 212 326 221 341 235 352 c 128
 248 364 265 370 282 370 c 0
 299 370 312 364 321 352 c 128
 327.75 343.75 331.125 333.25 331.125 321.344 c 0
 331.125 317.375 330.75 313.25 330 309 c 0
 326 292 317 277 303 266 c 128
 289 255 273 249 256 249 c 0
 239 249 225 255 217 266 c 128
 210.626 273.79 207.262 283.587 207.262 294.679 c 0
 207.262 299.249 207.833 304.039 209 309 c 0
320 158 m 0
 323 175 332 190 346 202 c 128
 359 213 376 219 393 219 c 0
 410 219 423 213 433 202 c 128
 438.957 193.065 442.141 182.467 442.141 170.619 c 0
 442.141 166.554 441.766 162.342 441 158 c 0
 437 141 428 126 414 115 c 128
 400 104 384 98 367 98 c 0
 350 98 336 104 327 115 c 128
 321.388 122.717 318.236 132.403 318.236 143.367 c 0
 318.236 148.031 318.806 152.927 320 158 c 0
565 67 m 0
 569 84 578 99 591 110 c 128
 605 122 621 128 638 128 c 0
 655 128 669 122 677 110 c 128
 684.143 102.143 687.714 92.2449 687.714 81.035 c 0
 687.714 76.551 687.143 71.8571 686 67 c 0
 683 50 673 35 659 24 c 128
 646 13 629 7 612 7 c 0
 595 7 582 13 573 24 c 128
 566.555 31.8773 563.7 41.8059 563.7 53.0513 c 0
 563.7 57.5092 564.148 62.174 565 67 c 0
872 128 m 0
 876 145 885 160 899 172 c 128
 912 183 928 189 945 189 c 0
 962 189 976 183 985 172 c 128
 991.374 163.502 994.738 153.498 994.738 142.346 c 0
 994.738 137.751 994.167 132.961 993 128 c 0
 990 111 980 96 966 85 c 128
 953 74 936 68 919 68 c 0
 902 68 889 74 880 85 c 128
 873.555 92.8773 870.7 102.806 870.7 114.051 c 0
 870.7 118.509 871.148 123.174 872 128 c 0
1073 294 m 0
 1077 311 1086 326 1100 338 c 128
 1113 349 1129 355 1146 355 c 0
 1163 355 1177 349 1186 338 c 128
 1192.37 329.502 1195.74 319.498 1195.74 308.346 c 0
 1195.74 303.751 1195.17 298.961 1194 294 c 0
 1191 277 1182 262 1167 251 c 128
 1154 240 1138 234 1121 234 c 0
 1104 234 1090 240 1081 251 c 128
 1075.04 259.19 1071.86 269.598 1071.86 281.398 c 0
 1071.86 285.446 1072.23 289.658 1073 294 c 0
1192 498 m 0
 1195 515 1205 530 1218 542 c 128
 1232 553 1248 559 1265 559 c 0
 1282 559 1296 553 1305 542 c 128
 1311.45 533.407 1314.3 523.275 1314.3 511.972 c 0
 1314.3 507.491 1313.85 502.826 1313 498 c 0
 1309 481 1300 466 1287 455 c 128
 1272 444 1256 438 1239 438 c 0
 1222 438 1208 444 1200 455 c 128
 1193.63 462.79 1190.26 472.587 1190.26 483.679 c 0
 1190.26 488.249 1190.83 493.039 1192 498 c 0
1229 739 m 0
 1233 756 1242 771 1255 782 c 128
 1269 794 1285 800 1302 800 c 0
 1319 800 1333 794 1342 782 c 128
 1348.37 774.21 1351.74 764.413 1351.74 753.321 c 0
 1351.74 748.751 1351.17 743.961 1350 739 c 0
 1346 722 1337 707 1324 696 c 128
 1310 685 1293 679 1276 679 c 0
 1259 679 1246 685 1237 696 c 128
 1230.63 703.79 1227.26 713.587 1227.26 724.679 c 0
 1227.26 729.249 1227.83 734.039 1229 739 c 0
1167 951 m 0
 1171 968 1180 983 1193 994 c 128
 1207 1006 1223 1012 1240 1012 c 0
 1257 1012 1271 1006 1279 994 c 128
 1286.14 986.143 1289.71 976.245 1289.71 965.035 c 0
 1289.71 960.551 1289.14 955.857 1288 951 c 0
 1285 934 1275 919 1261 908 c 128
 1248 897 1231 891 1214 891 c 0
 1197 891 1184 897 1175 908 c 128
 1168.55 915.877 1165.7 925.806 1165.7 937.051 c 0
 1165.7 941.509 1166.15 946.174 1167 951 c 0
1010 1094 m 0
 1013 1111 1022 1126 1036 1138 c 128
 1049 1149 1066 1155 1083 1155 c 0
 1100 1155 1113 1149 1122 1138 c 128
 1128.75 1129 1132.12 1118.31 1132.12 1106.36 c 0
 1132.12 1102.38 1131.75 1098.25 1131 1094 c 0
 1127 1077 1118 1062 1103 1051 c 128
 1090 1040 1074 1034 1057 1034 c 0
 1040 1034 1026 1040 1017 1051 c 128
 1011.39 1058.72 1008.24 1068.4 1008.24 1079.37 c 0
 1008.24 1084.03 1008.81 1088.93 1010 1094 c 0
194 739 m 0
 198 756 207 771 220 782 c 128
 234 794 250 800 267 800 c 0
 284 800 298 794 306 782 c 128
 313.143 774.143 316.714 764.245 316.714 753.035 c 0
 316.714 748.551 316.143 743.857 315 739 c 0
 311 722 302 707 288 696 c 128
 275 685 258 679 241 679 c 0
 224 679 211 685 202 696 c 128
 195.626 703.79 192.262 713.587 192.262 724.679 c 0
 192.262 729.249 192.833 734.039 194 739 c 0
EndSplineSet
EndChar
StartChar: exclamdown
Encoding: 99 161 101
OldEncoding: 161
Width: 680
Flags: HW
Fore
714 1278 m 1
 510 1278 l 1
 554 1489 l 1
 758 1489 l 1
 714 1278 l 1
452 0 m 1
 228 0 l 1
 485 1079 l 1
 651 1079 l 1
 452 0 l 1
EndSplineSet
EndChar
StartChar: cent
Encoding: 100 162 102
OldEncoding: 162
Width: 1118
Flags: HW
Fore
557 2 m 1
 418 19 320 75 264 171 c 128
 229.866 230.58 212.679 302.87 212.679 387.633 c 0
 212.679 439.446 219.101 495.92 232 557 c 0
 266 716 332 844 432 943 c 128
 532 1042 653 1099 794 1115 c 1
 871 1475 l 1
 985 1475 l 1
 908 1116 l 1
 966 1114 1020 1105 1070 1090 c 128
 1120 1074 1162 1056 1195 1037 c 1
 1153 837 l 1
 1143 837 l 1
 1109 871 1072 901 1030 926 c 128
 988 951 938 968 879 977 c 1
 701 141 l 1
 735 144 768 152 805 164 c 128
 839 176 870 189 896 202 c 0
 923 216 947 230 969 244 c 128
 991 257 1009 270 1025 281 c 1
 1035 281 l 1
 993 83 l 1
 945 63 896 45 846 30 c 128
 795 14 737 4 671 1 c 1
 594 -361 l 1
 480 -361 l 1
 557 2 l 1
588 146 m 1
 763 971 l 1
 683 957 613 915 554 846 c 128
 494 776 452 680 425 557 c 0
 413.122 499.896 407.088 448.635 407.088 403.409 c 0
 407.088 349.635 415.619 304.392 433 268 c 128
 464 200 516 159 588 146 c 1
EndSplineSet
EndChar
StartChar: sterling
Encoding: 101 163 103
OldEncoding: 163
Width: 1118
Flags: HW
Fore
1031 0 m 1
 89 0 l 1
 133 207 l 1
 212 229 273 272 317 335 c 128
 361 398 395 491 421 613 c 1
 260 613 l 1
 290 751 l 1
 451 751 l 1
 519 1071 l 2
 547 1205 609 1313 704 1395 c 128
 798 1477 908 1518 1031 1518 c 0
 1096 1518 1150 1513 1193 1502 c 128
 1237 1492 1277 1481 1313 1470 c 1
 1270 1264 l 1
 1260 1264 l 1
 1226 1291 1188 1313 1144 1328 c 128
 1100 1343 1057 1351 1014 1351 c 0
 932 1351 866 1325 815 1274 c 128
 763 1223 727 1149 707 1052 c 2
 643 751 l 1
 1007 751 l 1
 977 613 l 1
 613 613 l 1
 600 552 l 2
 584 474 550 403 496 340 c 128
 445 276 378 223 300 182 c 1
 297 171 l 1
 1067 171 l 1
 1031 0 l 1
EndSplineSet
EndChar
StartChar: currency
Encoding: 102 164 104
OldEncoding: 164
Width: 1118
Flags: HW
Fore
1115 272 m 1
 986 166 l 1
 817 378 l 1
 784 360 753 347 725 338 c 128
 697 330 665 326 629 326 c 0
 598 326 568 331 540 341 c 128
 511 351 486 364 466 379 c 1
 205 164 l 1
 123 273 l 1
 380 486 l 1
 369 513 363 542 360 572 c 128
 359.5 580 359.25 587.812 359.25 595.469 c 0
 359.25 618.438 361.5 640 366 661 c 0
 372 690 383 720 397 750 c 128
 414 779 433 808 455 835 c 1
 288 1051 l 1
 418 1157 l 1
 587 944 l 1
 615 960 645 973 678 982 c 128
 711 991 742 996 772 996 c 0
 807 996 838 991 866 980 c 128
 894 970 918 958 937 945 c 1
 1194 1157 l 1
 1281 1052 l 1
 1021 836 l 1
 1033 807 1040 780 1043 753 c 128
 1043.87 745.129 1044.32 737.004 1044.32 728.574 c 0
 1044.32 708.085 1041.67 685.797 1036 661 c 0
 1030 631 1019 600 1003 570 c 128
 986 538 968 511 946 486 c 1
 1115 272 l 1
892 661 m 0
 895.452 676.247 897.166 690.915 897.166 705.028 c 0
 897.166 739.97 886.657 771.507 866 800 c 128
 836 838 795 858 742 858 c 0
 691 858 642 839 596 800 c 128
 549 762 520 716 508 661 c 0
 504.975 646.425 503.462 632.379 503.462 618.842 c 0
 503.462 583.154 513.975 551 535 522 c 128
 565 484 606 464 659 464 c 0
 710 464 759 483 805 522 c 128
 852 560 881 606 892 661 c 0
EndSplineSet
EndChar
StartChar: yen
Encoding: 103 165 105
OldEncoding: 165
Width: 1118
Flags: HW
Fore
1375 1489 m 1
 795 678 l 1
 774 578 l 1
 1116 578 l 1
 1087 440 l 1
 747 440 l 1
 653 0 l 1
 465 0 l 1
 559 440 l 1
 219 440 l 1
 248 578 l 1
 590 578 l 1
 607 657 l 1
 372 1489 l 1
 582 1489 l 1
 741 850 l 1
 1174 1489 l 1
 1375 1489 l 1
EndSplineSet
EndChar
StartChar: brokenbar
Encoding: 104 166 106
OldEncoding: 166
Width: 783
Flags: HW
Fore
636 758 m 1
 469 758 l 1
 639 1556 l 1
 806 1556 l 1
 636 758 l 1
392 -392 m 1
 225 -392 l 1
 394 406 l 1
 561 406 l 1
 392 -392 l 1
EndSplineSet
EndChar
StartChar: section
Encoding: 105 167 107
OldEncoding: 167
Width: 1118
Flags: HW
Fore
844 401 m 0
 865 424 883 447 895 468 c 128
 910 490 920 519 928 555 c 0
 932.304 575.29 934.34 593.689 934.34 610.431 c 0
 934.34 620.919 933.541 630.756 932 640 c 128
 927 664 918 684 905 699 c 0
 892 714 876 727 857 738 c 128
 838 748 815 757 789 766 c 0
 758 776 758 776 716 788 c 128
 689 797 659 807 624 819 c 1
 609 811 593 801 576 789 c 128
 559 777 540 760 518 738 c 0
 501 721 484 697 466 668 c 128
 450 639 437 609 431 579 c 0
 426.793 558.35 424.634 539.308 424.634 521.875 c 0
 424.634 493.721 430.266 469.763 442 450 c 128
 460 418 503 391 570 369 c 0
 602 359 602 359 644 346 c 128
 684 332 684 332 734 315 c 1
 749 323 765 334 785 348 c 128
 805 362 825 380 844 401 c 0
154 -133 m 1
 169 -142 189 -151 212 -162 c 128
 235 -173 258 -182 281 -190 c 0
 309 -200 337 -208 363 -212 c 128
 389 -218 421 -220 462 -220 c 0
 538 -220 605 -204 663 -174 c 128
 720 -142 755 -97 768 -36 c 0
 772.133 -17.3993 774.131 -0.667408 774.131 14.3337 c 0
 774.131 28.366 772.383 40.8838 769 52 c 128
 761 74 745 94 722 111 c 0
 697 128 666 142 627 154 c 128
 569 171 569 171 501 192 c 0
 445 209 400 226 366 243 c 128
 329 260 299 283 274 312 c 0
 250 339 235 371 228 407 c 128
 224.661 422.027 223.064 438.1 223.064 455.218 c 0
 223.064 479.109 226.174 505.036 232 533 c 0
 246 596 274 655 319 712 c 128
 364 768 425 817 500 858 c 1
 502 865 l 1
 448 898 414 939 398 986 c 128
 388.367 1012.63 383.55 1041.51 383.55 1072.46 c 0
 383.55 1096.13 386.367 1121 392 1147 c 0
 416 1259 478 1349 577 1417 c 128
 677 1485 802 1519 951 1519 c 0
 1008 1519 1059 1515 1105 1506 c 128
 1151 1497 1202 1483 1257 1462 c 1
 1216 1268 l 1
 1206 1268 l 1
 1152 1298 1101 1320 1052 1334 c 128
 1004 1348 951 1355 895 1355 c 0
 820 1355 754 1340 696 1310 c 128
 638 1279 603 1235 590 1176 c 0
 586 1157 584 1139.75 584 1124.25 c 0
 584 1108.75 586 1095 590 1083 c 128
 599 1059 615 1039 638 1024 c 0
 660 1008 690 994 729 981 c 128
 766 968 809 955 857 942 c 0
 973 909 1051 866 1093 814 c 128
 1121.02 777.783 1135.03 733.162 1135.03 680.135 c 0
 1135.03 655.562 1132.02 629.183 1126 601 c 0
 1110 529 1079 466 1032 412 c 128
 983 358 926 313 858 277 c 1
 856 270 l 1
 908 239 943 201 961 154 c 128
 970.633 127.367 975.45 98.4856 975.45 66.9927 c 0
 975.45 42.91 972.633 17.3 967 -10 c 0
 956 -59 935 -108 905 -155 c 128
 873 -202 836 -242 790 -274 c 0
 741 -309 685 -337 624 -356 c 128
 562 -375 490 -385 408 -385 c 0
 355 -385 304 -380 254 -371 c 128
 204 -362 153 -347 102 -327 c 1
 144 -133 l 1
 154 -133 l 1
EndSplineSet
EndChar
StartChar: dieresis
Encoding: 106 168 108
OldEncoding: 168
Width: 1118
Flags: HW
Fore
1144 1304 m 1
 943 1304 l 1
 985 1499 l 1
 1186 1499 l 1
 1144 1304 l 1
731 1304 m 1
 530 1304 l 1
 572 1499 l 1
 773 1499 l 1
 731 1304 l 1
EndSplineSet
EndChar
StartChar: copyright
Encoding: 107 169 109
OldEncoding: 169
Width: 1902
Flags: HW
Fore
1955 655 m 0
 1904 416 1777 212 1571 44 c 128
 1367 -126 1145 -210 906 -210 c 128
 667 -210 481 -126 349 44 c 128
 252.086 165.505 203.817 305.84 203.817 464.628 c 0
 203.817 525.391 210.885 588.855 225 655 c 128
 276 894 403 1097 609 1266 c 128
 813 1435 1035 1519 1274 1519 c 128
 1513 1519 1699 1435 1831 1266 c 128
 1927.91 1143.77 1976.18 1003.76 1976.18 845.205 c 0
 1976.18 784.533 1969.11 721.145 1955 655 c 0
1840 655 m 0
 1852.56 713.357 1858.81 769.298 1858.81 822.799 c 0
 1858.81 960.908 1817.17 1082.77 1735 1188 c 128
 1619 1336 1458 1409 1251 1409 c 128
 1044 1409 853 1336 675 1188 c 128
 497 1042 387 864 342 655 c 128
 329.768 596.9 323.642 541.195 323.642 487.886 c 0
 323.642 349.431 364.969 227.135 448 121 c 128
 563 -26 724 -100 931 -100 c 128
 1138 -100 1329 -26 1508 121 c 128
 1685 268 1796 446 1840 655 c 0
1328 255 m 1
 1279 235 1231 218 1183 202 c 128
 1135 188 1081 180 1020 180 c 0
 881 180 780 221 717 304 c 128
 674.922 357.913 654.025 427.819 654.025 513.436 c 0
 654.025 558.04 659.697 606.908 671 660 c 0
 704 813 771 932 872 1016 c 128
 973 1101 1091 1143 1225 1143 c 0
 1280 1143 1331 1136 1379 1121 c 128
 1427 1106 1467 1089 1501 1070 c 1
 1463 889 l 1
 1447 889 l 1
 1423 914 1389 938 1343 962 c 128
 1297 984 1249 996 1198 996 c 0
 1116 996 1044 969 984 914 c 128
 923 859 881 775 856 660 c 0
 846.879 617.172 842.319 578.433 842.319 543.658 c 0
 842.319 490.74 852.879 447 874 412 c 128
 909 356 969 327 1056 327 c 0
 1112 327 1167 339 1222 364 c 128
 1277 388 1320 411 1350 434 c 1
 1366 434 l 1
 1328 255 l 1
EndSplineSet
EndChar
StartChar: ordfeminine
Encoding: 108 170 110
OldEncoding: 170
Width: 1010
Flags: HW
Fore
994 566 m 1
 828 566 l 1
 848 657 l 1
 825 642 825 642 788 618 c 128
 764 603 740 590 717 581 c 0
 688 568 659 558 631 552 c 128
 603 544 566 541 519 541 c 0
 436 541 373 569 330 624 c 128
 299.543 663.665 284.137 711.357 284.137 766.721 c 0
 284.137 789.521 286.75 813.623 292 839 c 0
 307 908 333 965 371 1008 c 128
 410 1052 458 1087 516 1112 c 0
 571 1136 638 1153 716 1163 c 128
 794 1173 876 1180 960 1184 c 1
 964 1203 l 2
 967.794 1221.97 969.531 1238.88 969.531 1253.74 c 0
 969.531 1266.29 968.29 1277.38 966 1287 c 128
 958 1308 946 1325 927 1337 c 0
 911 1348 888 1356 860 1360 c 128
 832 1363 803 1365 772 1365 c 0
 720 1365 665 1357 609 1342 c 128
 552 1326 509 1313 481 1304 c 1
 466 1304 l 1
 502 1474 l 1
 533 1483 579 1492 639 1503 c 128
 701 1514 756 1519 806 1519 c 0
 934 1519 1026 1494 1081 1442 c 128
 1119.9 1407.27 1139.02 1356.6 1139.02 1290.35 c 0
 1139.02 1261.24 1135.33 1229.11 1128 1194 c 2
 994 566 l 1
878 802 m 1
 930 1045 l 1
 886 1042 835 1038 777 1033 c 128
 719 1028 671 1020 635 1010 c 0
 592 999 556 980 526 954 c 128
 495 929 476 894 466 849 c 0
 463.033 834.165 461.562 820.386 461.562 807.663 c 0
 461.562 777.507 469.824 753.286 486 735 c 128
 510 709 551 696 609 696 c 0
 660 696 707 707 753 729 c 128
 798 751 840 775 878 802 c 1
EndSplineSet
EndChar
StartChar: guillemotleft
Encoding: 109 171 111
OldEncoding: 171
Width: 1174
Flags: HW
Fore
1084 191 m 1
 685 610 l 1
 703 695 l 1
 1280 1113 l 1
 1240 925 l 1
 865 652 l 1
 1124 379 l 1
 1084 191 l 1
647 162 m 1
 232 608 l 1
 251 697 l 1
 856 1142 l 1
 814 946 l 1
 421 652 l 1
 689 358 l 1
 647 162 l 1
EndSplineSet
EndChar
StartChar: logicalnot
Encoding: 110 172 112
OldEncoding: 172
Width: 1490
Flags: HW
Fore
1335 57 m 1
 1164 57 l 1
 1280 602 l 1
 285 602 l 1
 319 762 l 1
 1485 762 l 1
 1335 57 l 1
EndSplineSet
EndChar
StartChar: registered
Encoding: 112 174 114
OldEncoding: 174
Width: 1902
Flags: HW
Fore
1955 655 m 0
 1904 416 1777 212 1571 44 c 128
 1367 -126 1145 -210 906 -210 c 128
 667 -210 481 -126 349 44 c 128
 252.086 165.505 203.817 305.84 203.817 464.628 c 0
 203.817 525.391 210.885 588.855 225 655 c 128
 276 894 403 1097 609 1266 c 128
 813 1435 1035 1519 1274 1519 c 128
 1513 1519 1699 1435 1831 1266 c 128
 1927.91 1143.77 1976.18 1003.76 1976.18 845.205 c 0
 1976.18 784.533 1969.11 721.145 1955 655 c 0
1840 655 m 0
 1852.56 713.357 1858.81 769.298 1858.81 822.799 c 0
 1858.81 960.908 1817.17 1082.77 1735 1188 c 128
 1619 1336 1458 1409 1251 1409 c 128
 1044 1409 853 1336 675 1188 c 128
 497 1042 387 864 342 655 c 128
 329.768 596.9 323.642 541.195 323.642 487.886 c 0
 323.642 349.431 364.969 227.135 448 121 c 128
 563 -26 724 -100 931 -100 c 128
 1138 -100 1329 -26 1508 121 c 128
 1685 268 1796 446 1840 655 c 0
1494 215 m 1
 1267 215 l 1
 1059 570 l 1
 936 570 l 1
 861 215 l 1
 696 215 l 1
 890 1130 l 1
 1169 1130 l 2
 1232 1130 1281 1128 1317 1123 c 128
 1352 1118 1386 1105 1418 1084 c 0
 1454 1061 1477 1034 1488 1002 c 128
 1493.63 985.619 1496.38 966.879 1496.38 945.781 c 0
 1496.38 925.665 1493.88 903.404 1489 879 c 0
 1475 812 1445 758 1398 715 c 128
 1353 672 1297 639 1233 615 c 1
 1494 215 l 1
1304 868 m 0
 1307.3 881.763 1308.79 894.313 1308.79 905.818 c 0
 1308.79 915.212 1307.8 923.909 1306 932 c 128
 1302 950 1291 965 1274 978 c 0
 1259 989 1243 996 1223 1000 c 128
 1202 1003 1177 1005 1144 1005 c 2
 1029 1005 l 1
 963 696 l 1
 1061 696 l 2
 1093 696 1124 699 1153 706 c 128
 1182 712 1208 723 1228 738 c 128
 1248 753 1265 771 1276 791 c 128
 1288 811 1298 837 1304 868 c 0
EndSplineSet
EndChar
StartChar: macron
Encoding: 113 175 115
OldEncoding: 175
Width: 1118
Flags: HW
Fore
1487 1659 m 1
 337 1659 l 1
 364 1789 l 1
 1514 1789 l 1
 1487 1659 l 1
EndSplineSet
EndChar
StartChar: degree
Encoding: 114 176 116
OldEncoding: 176
Width: 964
Flags: HW
Fore
1104 1135 m 0
 1082 1028 1025 938 937 865 c 128
 848 792 749 755 642 755 c 0
 536 755 454 791 396 864 c 128
 353.549 916.524 332.323 977.85 332.323 1048.35 c 0
 332.323 1075.83 335.549 1104.71 342 1135 c 0
 365 1242 421 1332 510 1405 c 128
 598 1478 697 1515 804 1515 c 128
 911 1515 994 1478 1052 1405 c 128
 1092.9 1352.62 1113.72 1291.48 1113.72 1221.59 c 0
 1113.72 1194.08 1110.5 1165.22 1104 1135 c 0
947 1135 m 0
 951.108 1153.78 953.15 1171.7 953.15 1188.76 c 0
 953.15 1229.83 941.316 1265.91 918 1297 c 128
 884 1341 836 1363 772 1363 c 128
 708 1363 650 1341 598 1297 c 128
 545 1253 513 1199 499 1135 c 0
 495.058 1116.7 493.098 1099.19 493.098 1082.51 c 0
 493.098 1039.98 505.855 1002.89 531 972 c 128
 564 929 613 907 675 907 c 0
 739 907 796 929 849 974 c 128
 901 1018 934 1072 947 1135 c 0
EndSplineSet
EndChar
StartChar: plusminus
Encoding: 115 177 117
OldEncoding: 177
Width: 1490
Flags: HW
Fore
1362 159 m 1
 196 159 l 1
 229 317 l 1
 729 317 l 1
 819 739 l 1
 319 739 l 1
 353 897 l 1
 853 897 l 1
 960 1402 l 1
 1126 1402 l 1
 1019 897 l 1
 1519 897 l 1
 1485 739 l 1
 985 739 l 1
 895 317 l 1
 1395 317 l 1
 1362 159 l 1
EndSplineSet
EndChar
StartChar: uni00B2
Encoding: 116 178 118
OldEncoding: 178
Width: 1010
Flags: HW
Fore
986 566 m 1
 305 566 l 1
 338 718 l 1
 427 777 427 777 509 832 c 128
 564 868 609 900 644 929 c 0
 730 997 787 1050 817 1088 c 128
 848 1127 868 1173 880 1227 c 0
 882.967 1240.65 884.438 1253.33 884.438 1265.09 c 0
 884.438 1292.98 876.176 1315.71 860 1334 c 128
 836 1358 799 1371 748 1371 c 0
 702 1371 653 1361 603 1341 c 128
 551 1321 509 1300 478 1279 c 1
 463 1279 l 1
 501 1458 l 1
 547 1476 597 1491 649 1502 c 128
 704 1513 755 1519 804 1519 c 0
 908 1519 982 1493 1026 1440 c 128
 1058.29 1402.69 1074.62 1357.66 1074.62 1304.9 c 0
 1074.62 1284.13 1072.08 1262.16 1067 1239 c 0
 1055 1182 1031 1128 993 1076 c 128
 955 1023 894 965 808 900 c 0
 767 869 720 837 666 802 c 128
 587 751 587 751 524 710 c 1
 1017 710 l 1
 986 566 l 1
EndSplineSet
EndChar
StartChar: uni00B3
Encoding: 117 179 119
OldEncoding: 179
Width: 1010
Flags: HW
Fore
1013 828 m 0
 1003 781 984 738 956 700 c 128
 928 663 896 633 859 611 c 0
 819 586 777 569 733 558 c 128
 690 547 642 542 589 542 c 0
 534 542 484 547 438 557 c 128
 394 567 350 581 312 600 c 1
 349 775 l 1
 366 775 l 1
 386 752 419 730 466 710 c 128
 513 691 563 681 616 681 c 0
 672 681 720 693 763 718 c 128
 805 742 830 778 841 826 c 0
 843.845 839.657 845.233 852.343 845.233 864.034 c 0
 845.233 893.433 836.456 916.544 820 933 c 128
 795 956 749 968 680 968 c 2
 540 968 l 1
 569 1107 l 1
 694 1107 l 2
 752 1107 800 1120 837 1145 c 128
 874 1170 897 1205 906 1249 c 0
 908.554 1260.35 909.819 1271.06 909.819 1281.1 c 0
 909.819 1306.44 901.757 1327.53 886 1344 c 128
 864 1368 823 1380 765 1380 c 0
 721 1380 671 1370 617 1349 c 128
 560 1328 519 1306 489 1283 c 1
 472 1283 l 1
 509 1458 l 1
 556 1476 605 1491 657 1502 c 128
 710 1513 762 1519 815 1519 c 0
 916 1519 990 1496 1037 1449 c 128
 1073.08 1412.92 1090.89 1371.55 1090.89 1324.87 c 0
 1090.89 1310.73 1089.25 1296.11 1086 1281 c 0
 1074 1223 1048 1175 1008 1138 c 128
 967 1100 919 1072 864 1055 c 1
 863 1047 l 1
 913 1036 955 1013 985 976 c 128
 1008.07 950.832 1018.92 919.311 1018.92 881.095 c 0
 1018.92 864.646 1016.91 846.957 1013 828 c 0
EndSplineSet
EndChar
StartChar: acute
Encoding: 118 180 120
OldEncoding: 180
Width: 1118
Flags: HW
Fore
1227 1676 m 1
 875 1302 l 1
 726 1302 l 1
 984 1676 l 1
 1227 1676 l 1
EndSplineSet
EndChar
StartChar: mu
Encoding: 119 181 121
OldEncoding: 181
Width: 1163
Flags: HW
Fore
1027 0 m 1
 855 0 l 1
 880 116 l 1
 874 116 l 1
 825 74 778 41 732 18 c 128
 687 -5 634 -17 574 -17 c 0
 513 -17 467 -5 437 18 c 128
 407 41 377 74 348 115 c 1
 236 -412 l 1
 48 -412 l 1
 373 1117 l 1
 561 1117 l 1
 382 275 l 1
 403 242 433 215 470 194 c 128
 508 174 556 164 613 164 c 0
 673 164 725 174 771 193 c 128
 815 212 858 240 897 275 c 1
 1076 1117 l 1
 1264 1117 l 1
 1027 0 l 1
EndSplineSet
EndChar
StartChar: paragraph
Encoding: 120 182 122
OldEncoding: 182
Width: 1118
Flags: HW
Fore
905 -363 m 1
 765 -363 l 1
 1131 1359 l 1
 944 1359 l 1
 578 -363 l 1
 438 -363 l 1
 641 593 l 1
 505 596 403 639 336 722 c 128
 290.001 779.848 266.832 850.325 266.832 933.77 c 0
 266.832 970.053 271.212 1008.79 280 1050 c 0
 310 1188 375 1296 479 1373 c 128
 582 1450 714 1489 876 1489 c 2
 1298 1489 l 1
 905 -363 l 1
EndSplineSet
EndChar
StartChar: periodcentered
Encoding: 121 183 123
OldEncoding: 183
Width: 724
Flags: HW
Fore
659 832 m 1
 420 832 l 1
 480 1117 l 1
 719 1117 l 1
 659 832 l 1
EndSplineSet
EndChar
StartChar: cedilla
Encoding: 122 184 124
OldEncoding: 184
Width: 1118
Flags: HW
Fore
771 20 m 1
 770 8 768 -7 764 -26 c 128
 763 -44 759 -65 754 -89 c 0
 731 -197 684 -280 614 -337 c 128
 544 -394 465 -423 376 -423 c 0
 351 -423 323 -421 290 -417 c 128
 258 -413 229 -407 204 -399 c 1
 238 -239 l 1
 247 -239 l 1
 262 -246 281 -254 305 -262 c 128
 330 -269 355 -273 382 -273 c 0
 445 -273 492 -260 524 -234 c 128
 557 -207 579 -165 591 -107 c 0
 595 -90 599 -71 602 -50 c 128
 606 -29 610 -6 614 20 c 1
 771 20 l 1
EndSplineSet
EndChar
StartChar: uni0E01
Encoding: 123 3585 125
OldEncoding: 3585
Width: 1240
Flags: HW
Fore
1225 673 m 2
 1082 0 l 5
 922 0 l 1
 1062 657 l 2
 1071.46 702.17 1076.12 742.159 1076.12 776.966 c 0
 1076.12 823.068 1067.95 860.08 1052 888 c 0
 1044 901 1034 913 1023 924 c 2
 1017 930 l 2
 987 956 942 974 883 985 c 0
 866 988 849 989 834 989 c 0
 737 989 642 957 551 892 c 0
 521 872 496 850 471 825 c 1
 499 818 532 794 570 755 c 0
 606 720 624 689 627 663 c 1
 570 614 532 581 516 563 c 0
 487 530 466 499 455 470 c 0
 445 445 435 409 425 363 c 2
 348 0 l 1
 188 0 l 1
 265 363 l 2
 283 446 305 507 332 546 c 0
 353 576 396 618 459 671 c 1
 440 701 404 731 352 762 c 0
 328 776 306 786 286 792 c 1
 313 855 362 917 434 979 c 1
 563 1092 708 1149 868 1149 c 0
 1013 1149 1120 1102 1188 1008 c 1
 1222.98 952.285 1240.34 885.657 1240.34 808.388 c 0
 1240.34 766.388 1235.21 721.244 1225 673 c 2
EndSplineSet
EndChar
StartChar: uni0E02
Encoding: 124 3586 126
OldEncoding: 3586
Width: 1400
Flags: HW
Fore
422 642 m 1
 448 641 l 1
 478 645 504 660 527 687 c 0
 533 695 l 0
 546 713 554 732 558 751 c 0
 559.652 759.258 560.394 767.212 560.394 774.864 c 0
 560.394 781.111 559.899 787.157 559 793 c 0
 555 817 541 832 518 839 c 1
 491 841 l 1
 455 839 427 822 403 791 c 0
 399 786 396 780 392 773 c 0
 386 760 381 748 378 735 c 0
 376 724 376 713 376 703 c 1
 381 679 l 1
 390 658 403 645 422 642 c 1
998 771 m 1
 948 731 l 1
 878 670 838 618 829 575 c 2
 766 278 l 2
 765.146 273.586 764.717 269.213 764.717 264.875 c 0
 764.717 238.742 780.268 213.871 812 189 c 0
 844 164 878 151 915 150 c 0
 962 150 1008 166 1054 198 c 0
 1089 223 1110 250 1116 278 c 2
 1299 1139 l 1
 1459 1139 l 1
 1276 278 l 2
 1242 119 1144 25 984 -2 c 0
 952 -7 918 -10 881 -10 c 0
 772 -10 692 21 642 82 c 0
 613.017 118.052 598.526 161.599 598.526 211.935 c 0
 598.526 232.806 601.017 254.845 606 278 c 2
 669 575 l 2
 680 625 730 685 817 755 c 0
 831 766 842 791 849 830 c 1
 849.985 839.11 850.485 847.977 850.485 856.572 c 0
 850.485 882.886 845.799 906.648 836 927 c 0
 819 962 787 986 736 998 c 0
 722 1001 708 1003 693 1003 c 2
 646 1000 l 1
 595 993 544 968 492 925 c 1
 505 931 520 934 537 934 c 0
 544 934 553 934 561 933 c 0
 605 928 637 900 657 850 c 0
 661.399 837.354 663.681 822.894 663.681 806.952 c 0
 663.681 793.9 662.151 779.855 659 765 c 0
 649 718 628 675 598 634 c 0
 568 595 527 568 474 553 c 0
 453 548 434 545 414 545 c 0
 405 545 396 546 387 547 c 0
 335 553 296 582 270 635 c 0
 268 640 266 644 264 649 c 0
 257.964 665.25 254.946 684.949 254.946 708.297 c 0
 254.946 735.237 258.964 767.036 267 804 c 0
 270 818 274 831 277 843 c 0
 300 911 341 972 399 1025 c 0
 406 1032 414 1038 421 1043 c 0
 508 1110 602 1145 704 1149 c 0
 720 1149 l 0
 788 1149 851 1130 908 1092 c 0
 928 1079 945 1064 957 1049 c 0
 989.206 1008.27 1006.16 946.005 1006.16 861.358 c 0
 1006.16 856.642 1006.11 851.856 1006 847 c 0
 1005 818 1003 793 998 771 c 1
EndSplineSet
EndChar
StartChar: uni0E03
Encoding: 125 3587 127
OldEncoding: 3587
Width: 1450
Flags: HW
Fore
420 603 m 1
 446 603 l 1
 476 607 501 622 524 649 c 0
 527 652 529 654 530 656 c 0
 543 674 551 693 556 713 c 0
 557.5 720.5 558.25 727.75 558.25 734.625 c 0
 558.25 741.5 557.5 748 556 754 c 0
 552 775 541 790 523 798 c 0
 521 799 519 799 516 800 c 2
 489 803 l 1
 453 800 424 784 401 753 c 0
 397 747 394 741 390 734 c 0
 383 721 379 709 376 696 c 0
 373.917 687.25 372.875 678.847 372.875 670.792 c 0
 372.875 659.514 374.917 648.917 379 639 c 0
 388 619 401 607 420 603 c 1
401 1011 m 0
 443 1060 497 1100 562 1132 c 0
 580 1141 594 1146 604 1149 c 1
 604 1148 649 1112 740 1041 c 1
 907 1149 l 1
 944 1138 981 1110 1018 1065 c 0
 1025 1056 1032 1046 1039 1036 c 0
 1065 995 1081 936 1084 859 c 0
 1084 836 1083 815 1080 797 c 0
 1079 789 1079 789 1077 783 c 1
 1028 743 l 1
 958 682 918 630 909 587 c 2
 843 278 l 2
 842.146 273.586 841.717 269.213 841.717 264.875 c 0
 841.717 238.742 857.268 213.871 889 189 c 0
 921 164 955 151 992 150 c 0
 1039 150 1085 166 1131 198 c 0
 1166 223 1187 250 1193 278 c 2
 1376 1139 l 1
 1536 1139 l 1
 1353 278 l 2
 1319 119 1221 25 1061 -2 c 1
 994 -9 l 2
 983 -10 971 -10 958 -10 c 0
 849 -10 769 21 719 82 c 0
 690.017 118.052 675.526 161.599 675.526 211.935 c 0
 675.526 232.806 678.017 254.845 683 278 c 2
 749 587 l 2
 759 637 809 697 897 767 c 0
 910 778 919 794 923 814 c 128
 923.929 820.811 924.378 828.101 924.378 835.93 c 0
 924.378 853.388 922.143 873.526 918 897 c 0
 912 923 896 950 871 979 c 1
 871 978 816 946 706 881 c 1
 587 963 l 1
 568 979 l 1
 546 966 524 943 502 908 c 1
 489 886 l 1
 503 893 517 896 534 896 c 0
 541 896 549 895 559 894 c 0
 603 889 635 861 655 812 c 0
 659.399 799.354 661.681 784.894 661.681 768.952 c 0
 661.681 755.9 660.151 741.855 657 727 c 0
 647 680 626 636 595 595 c 0
 566 556 524 529 471 515 c 0
 451 510 432 507 411 507 c 0
 402 507 394 507 385 508 c 0
 332 515 294 544 268 596 c 0
 264 604 264 604 262 611 c 0
 255.964 627.25 252.946 646.949 252.946 670.197 c 0
 252.946 697.022 256.964 728.571 265 765 c 0
 268 780 272 793 275 804 c 0
 296 871 339 940 401 1011 c 0
EndSplineSet
EndChar
StartChar: uni0E04
Encoding: 126 3588 128
OldEncoding: 3588
Width: 1370
Flags: HW
Fore
917 630 m 0
 912 635 906 638 898 640 c 1
 874 641 l 1
 837 638 802 618 773 579 c 0
 768 572 763 565 760 558 c 1
 751 532 l 1
 749.469 524.562 748.703 517.508 748.703 510.825 c 0
 748.703 486.96 758.469 467.844 778 453 c 1
 789 446 800 443 813 443 c 0
 824 443 836 445 848 450 c 0
 880 463 907 488 927 523 c 0
 932 532 936 543 939 554 c 0
 940.66 561.824 941.476 569.254 941.476 576.264 c 0
 941.476 598.822 933.021 617.03 917 630 c 0
434 256 m 1
 441 274 449 293 458 312 c 0
 522 456 582 559 640 621 c 0
 649 631 659 641 670 650 c 0
 721 695 772 725 822 738 c 0
 840 743 860 746 881 746 c 0
 928 746 965 733 990 708 c 2
 998 700 l 2
 1027.15 668.547 1042.18 632.386 1042.18 591.517 c 0
 1042.18 579.112 1040.79 566.273 1038 553 c 0
 1034 538 1029 524 1023 511 c 0
 1012 490 999 470 982 449 c 0
 938 394 892 361 844 348 c 0
 826 344 810 342 793 342 c 0
 758 342 731 351 711 370 c 0
 692 389 682 407 679 424 c 1
 660 396 640 363 617 324 c 0
 536 188 482 80 455 0 c 1
 245 0 l 1
 268 108 l 2
 278.206 157.175 284.108 251.115 284.108 390.618 c 0
 284.108 401.47 284.072 412.597 284 424 c 1
 283.798 432.991 283.698 441.92 283.698 450.789 c 0
 283.698 529.708 291.616 603.779 306 673 c 0
 326 766 358 841 401 897 c 1
 454 964 516 1017 587 1057 c 1
 676 1106 765 1135 857 1146 c 1
 920 1149 l 1
 1021 1148 1103 1130 1167 1095 c 1
 1234 1060 1285 1015 1316 959 c 0
 1318 956 1320 953 1321 950 c 0
 1341.25 911.188 1351.38 862.883 1351.38 804.73 c 0
 1351.38 759.5 1345.25 708.312 1333 651 c 2
 1195 0 l 1
 1035 0 l 1
 1184 702 l 2
 1185 708 1185 708 1187 715 c 0
 1188.28 726.803 1188.91 738.276 1188.91 749.404 c 0
 1188.91 781.645 1183.66 810.98 1174 837 c 0
 1158 878 1122 915 1070 948 c 0
 1025 975 966 989 891 989 c 0
 824 989 761 976 704 950 c 0
 688 943 672 935 654 924 c 0
 598 889 555 851 525 808 c 0
 497 768 476 714 461 646 c 0
 453.328 609.343 448.562 574.14 448.562 541.63 c 0
 448.562 536.004 448.705 530.458 449 525 c 1
 434 256 l 1
EndSplineSet
EndChar
StartChar: uni0E05
Encoding: 127 3589 129
OldEncoding: 3589
Width: 1370
Flags: HW
Fore
1339 926 m 0
 1340 922 l 0
 1346.88 895.69 1350.32 865.121 1350.32 830.425 c 0
 1350.32 779.401 1342.88 719.452 1328 651 c 2
 1190 0 l 1
 1030 0 l 1
 1179 702 l 1
 1183 721 l 2
 1189.04 749.321 1192.05 775.703 1192.05 800.044 c 0
 1192.05 828.13 1188.04 853.5 1180 876 c 0
 1161 928 1121 966 1061 989 c 1
 864 873 l 1
 724 989 l 1
 721 988 717 987 714 986 c 0
 638 963 574 912 521 834 c 0
 499 801 480 745 463 664 c 0
 452 613 446 567 444 525 c 2
 429 256 l 1
 436 274 444 293 453 312 c 0
 517 456 577 559 635 621 c 0
 644 631 654 641 665 650 c 0
 716 695 767 725 817 738 c 0
 835 743 855 746 876 746 c 0
 923 746 959 733 985 708 c 0
 988 705 990 703 993 700 c 0
 1022.15 668.547 1037.18 632.386 1037.18 591.517 c 0
 1037.18 579.112 1035.79 566.273 1033 553 c 0
 1029 538 1024 524 1018 511 c 0
 1007 490 994 470 977 449 c 0
 933 394 887 361 839 348 c 0
 821 344 805 342 788 342 c 0
 753 342 726 351 706 370 c 0
 687 389 677 407 674 424 c 1
 655 396 635 363 612 324 c 0
 531 188 477 80 450 0 c 1
 240 0 l 1
 263 108 l 2
 273.206 157.175 279.108 251.115 279.108 390.618 c 0
 279.108 401.47 279.072 412.597 279 424 c 1
 278.798 433.799 278.698 443.516 278.698 453.15 c 0
 278.698 538.88 286.616 617.981 301 689 c 0
 312 739 326 785 344 826 c 0
 365 877 396 925 432 968 c 1
 470 1009 l 1
 555 1092 651 1138 758 1149 c 1
 898 1033 l 1
 1095 1149 l 1
 1123 1142 1150 1133 1174 1122 c 0
 1260 1081 1315 1015 1339 926 c 0
912 630 m 0
 907 635 901 638 893 640 c 1
 869 641 l 1
 832 638 797 618 768 579 c 0
 763 572 758 565 755 558 c 1
 745 532 l 1
 743.808 525.245 743.208 518.805 743.208 512.674 c 0
 743.208 487.945 752.967 468.225 773 453 c 0
 783 446 794 443 807 443 c 0
 818 443 831 445 843 450 c 0
 875 463 902 488 922 523 c 0
 927 532 930 543 933 554 c 0
 934.75 562.25 935.625 570.062 935.625 577.406 c 0
 935.625 599.438 927.75 617.25 912 630 c 0
EndSplineSet
EndChar
StartChar: uni0E06
Encoding: 128 3590 130
OldEncoding: 3590
Width: 1520
Flags: HW
Fore
431 603 m 1
 457 603 l 1
 487 607 512 622 535 649 c 0
 538 652 540 654 541 656 c 0
 554 674 562 693 567 713 c 0
 568.5 720.5 569.25 727.75 569.25 734.625 c 0
 569.25 741.5 568.5 748 567 754 c 0
 563 775 552 790 534 798 c 0
 532 799 530 799 527 800 c 2
 500 803 l 1
 464 800 435 784 412 753 c 0
 408 747 405 741 401 734 c 0
 394 721 390 709 387 696 c 0
 384.917 687.25 383.875 678.847 383.875 670.792 c 0
 383.875 659.514 385.917 648.917 390 639 c 0
 399 619 412 607 431 603 c 1
760 587 m 1
 771 637 820 697 908 767 c 0
 921 778 931 794 933 814 c 128
 934.755 821.722 935.524 830.06 935.524 839.101 c 0
 935.524 855.816 932.894 874.934 929 897 c 0
 923 923 907 950 882 979 c 1
 882 978 827 946 717 881 c 1
 598 963 l 1
 579 979 l 1
 557 966 535 943 513 908 c 1
 500 886 l 1
 514 893 528 896 545 896 c 0
 552 896 560 895 570 894 c 0
 614 889 646 861 666 812 c 0
 670.399 799.354 672.681 784.894 672.681 768.952 c 0
 672.681 755.9 671.151 741.855 668 727 c 0
 658 680 637 636 606 595 c 0
 577 556 535 529 482 515 c 0
 462 510 443 507 422 507 c 0
 413 507 405 507 396 508 c 0
 343 515 305 544 279 596 c 0
 275 604 275 604 273 611 c 0
 266.964 627.25 263.946 646.949 263.946 670.197 c 0
 263.946 697.022 267.964 728.571 276 765 c 0
 279 780 283 793 286 804 c 0
 307 871 350 940 412 1011 c 0
 454 1060 508 1100 573 1132 c 0
 591 1141 605 1146 615 1149 c 1
 615 1148 660 1112 751 1041 c 1
 918 1149 l 1
 955 1138 992 1110 1029 1065 c 0
 1036 1056 1043 1046 1050 1036 c 0
 1076 995 1092 936 1095 859 c 0
 1095 836 1094 815 1091 797 c 0
 1090 789 1090 789 1088 783 c 1
 1039 743 l 1
 969 682 929 630 920 587 c 2
 882 409 l 1
 1001 272 l 1
 1078 189 1137 148 1179 147 c 0
 1188 147 1198 149 1207 154 c 0
 1230 167 1248 201 1259 256 c 2
 1447 1139 l 1
 1607 1139 l 1
 1419 256 l 2
 1401 169 1378 108 1351 74 c 0
 1335 55 1314 39 1290 25 c 0
 1255 5 1220 -5 1185 -5 c 0
 1113 -5 1035 40 950 129 c 1
 854 235 l 1
 846 243 l 1
 822 146 l 1
 799 78 761 31 707 6 c 0
 684 -5 659 -10 634 -10 c 0
 587 -10 548 4 519 32 c 2
 508 43 l 1
 484.401 75.1809 472.052 111.964 472.052 153.351 c 0
 472.052 169.837 474.012 187.053 478 205 c 0
 491 267 517 319 555 362 c 0
 606 417 665 445 730 446 c 1
 760 587 l 1
714 328 m 1
 674 328 640 307 612 264 c 0
 599 244 589 223 585 202 c 0
 582.137 188.045 580.683 175.243 580.683 163.684 c 0
 580.683 142.939 585.367 126.201 595 114 c 0
 601 107 609 103 618 103 c 0
 649 103 669 124 679 166 c 1
 687 200 l 1
 714 328 l 1
EndSplineSet
EndChar
StartChar: uni0E07
Encoding: 129 3591 131
OldEncoding: 3591
Width: 1000
Flags: HW
Fore
848 1042 m 2
 817 1042 789 1027 764 996 c 0
 749 979 740 962 737 945 c 1
 736 938 l 1
 734.882 929.425 734.319 921.371 734.319 913.832 c 0
 734.319 880.929 745.033 857.831 767 844 c 0
 778 838 790 835 804 835 c 1
 841 838 866 853 881 882 c 0
 890 897 896 917 901 943 c 1
 903.241 957.286 904.383 970.002 904.383 981.149 c 0
 904.383 1009.8 896.838 1028.08 881 1036 c 1
 859 1041 l 1
 848 1042 l 2
913 272 m 2
 889 161 831 82 739 33 c 0
 684 4 622 -10 551 -10 c 0
 408 -10 322 51 294 173 c 0
 287.875 199.25 284.812 227.797 284.812 258.641 c 0
 284.812 263.047 284.875 267.5 285 272 c 1
 298 719 l 1
 462 640 l 1
 455 455 450 333 446 272 c 0
 445.9 269.992 445.85 268.005 445.85 266.038 c 0
 445.85 228.806 463.757 198.745 497 175 c 0
 522 158 551 150 585 150 c 0
 655 150 704 175 734 225 c 0
 742 239 748 255 752 272 c 2
 858 770 l 1
 844 756 820 747 788 743 c 0
 784 742 780 742 776 742 c 2
 742 744 l 1
 708 749 681 765 659 792 c 0
 639.987 816.375 630.481 845.741 630.481 879.982 c 0
 630.481 915.978 640.987 957.363 662 1004 c 0
 683 1047 717 1084 767 1114 c 0
 805 1137 845 1149 887 1150 c 0
 895 1150 l 0
 949 1149 990 1131 1020 1095 c 0
 1042.59 1068.02 1053.76 1029.62 1053.76 980.295 c 0
 1053.76 951.013 1049.82 917.88 1042 881 c 2
 913 272 l 2
EndSplineSet
EndChar
StartChar: uni0E08
Encoding: 130 3592 132
OldEncoding: 3592
Width: 1200
Flags: HW
Fore
538 645 m 0
 507 645 479 630 453 599 c 0
 440 582 431 565 427 548 c 2
 426 541 l 1
 424.685 532.355 424.04 524.24 424.04 516.649 c 0
 424.04 483.843 436.074 460.805 458 447 c 0
 468 441 480 438 494 438 c 1
 531 441 557 456 572 485 c 0
 579 500 586 520 591 546 c 1
 593.577 560.605 594.843 573.57 594.843 584.895 c 0
 594.843 613.115 586.986 631.15 572 639 c 0
 564 643 552 645 538 645 c 0
689 283 m 2
 685.376 266.025 683.571 250.687 683.571 236.98 c 0
 683.571 178.817 716.068 150 780 150 c 0
 857 150 905 189 925 268 c 0
 926 273 926 273 927 279 c 2
 1020 715 l 2
 1026.62 746.324 1029.93 774.533 1029.93 799.8 c 0
 1029.93 831.805 1024.62 859.088 1014 882 c 0
 1012 887 1009 892 1006 896 c 1
 961 952 887 983 785 988 c 0
 776 989 766 989 756 989 c 0
 664 989 579 962 501 909 c 0
 480 894 461 879 444 862 c 1
 419 835 l 1
 301 929 l 1
 406 1048 535 1119 689 1142 c 0
 721 1147 754 1149 788 1149 c 0
 909 1149 1007 1122 1084 1068 c 0
 1117 1045 1143 1018 1162 987 c 0
 1185.35 947.243 1197.15 899.521 1197.15 844.337 c 0
 1197.15 812.075 1193.12 777.263 1185 740 c 2
 1087 279 l 2
 1064 168 1008 87 923 36 c 0
 871 5 812 -10 746 -10 c 0
 593.716 -10 517.849 55.6912 517.849 186.525 c 0
 517.849 215.492 521.568 247.652 529 283 c 2
 548 373 l 1
 533 359 509 350 478 346 c 0
 474 345 470 345 466 344 c 1
 432 347 l 1
 399 352 371 368 350 395 c 0
 330.987 419.375 321.481 448.741 321.481 482.981 c 0
 321.481 518.978 331.988 560.362 353 607 c 0
 373 650 408 687 457 717 c 0
 495 740 535 752 577 753 c 0
 581 753 581 753 586 753 c 0
 640 752 681 734 710 698 c 0
 732.589 671.018 743.76 632.619 743.76 583.295 c 0
 743.76 554.013 739.823 520.88 732 484 c 2
 689 283 l 2
EndSplineSet
EndChar
StartChar: uni0E09
Encoding: 131 3593 133
OldEncoding: 3593
Width: 1395
Flags: HW
Fore
1031 409 m 1
 1034 422 1034 422 1096 715 c 0
 1103.04 748.261 1106.57 777.694 1106.57 803.359 c 0
 1106.57 843.282 1098.04 874.087 1081 896 c 1
 1036 952 963 983 861 988 c 0
 851 989 841 989 832 989 c 0
 740 989 655 962 577 909 c 0
 556 894 537 879 520 862 c 1
 495 835 l 1
 376 929 l 1
 482 1048 611 1119 765 1142 c 0
 797 1147 830 1149 863 1149 c 0
 984 1149 1082 1122 1160 1068 c 0
 1193 1045 1218 1018 1237 987 c 0
 1260.64 946.752 1272.85 898.342 1272.85 842.291 c 0
 1272.85 810.605 1268.95 776.476 1261 740 c 2
 1199 446 l 1
 1264 445 1311 417 1338 362 c 0
 1350.27 335.63 1356.51 305.876 1356.51 272.506 c 0
 1356.51 251.462 1354.03 228.979 1349 205 c 0
 1335 142 1302 88 1249 43 c 0
 1214 14 1171 -4 1121 -9 c 0
 1114 -10 1108 -10 1101 -10 c 0
 1039 -10 1000 18 984 75 c 0
 979.817 89.6417 978.064 105.742 978.064 122.961 c 0
 978.064 130.439 978.394 138.128 979 146 c 1
 993 227 l 1
 992 226 963 204 907 161 c 1
 767 52 656 -3 575 -3 c 0
 560 -3 547 -1 534 2 c 0
 516 6 499 14 484 25 c 0
 452.891 49.3039 435.958 84.949 435.958 131.935 c 0
 435.958 133.281 435.972 134.636 436 136 c 0
 437 164 442 204 453 256 c 2
 482 391 l 1
 468 377 444 368 412 364 c 0
 400 362 l 1
 367 365 l 1
 333 370 305 386 284 413 c 0
 264.617 437.229 255.096 466.389 255.096 500.366 c 0
 255.096 536.506 265.868 578.096 287 625 c 0
 307 668 342 705 391 735 c 0
 429 758 469 770 511 771 c 0
 515 771 515 771 520 771 c 0
 574 770 615 752 644 716 c 0
 666.589 689.018 677.76 650.619 677.76 601.295 c 0
 677.76 572.013 673.823 538.88 666 502 c 2
 613 256 l 2
 607.958 230.792 605.438 210.205 605.438 194.24 c 0
 605.438 175.372 608.958 162.958 616 157 c 0
 619 156 621 155 623 154 c 2
 638 154 l 1
 672 160 762 216 907 322 c 0
 980 375 1021 404 1031 409 c 1
472 663 m 2
 441 663 413 648 387 617 c 0
 374 600 365 583 361 566 c 2
 360 559 l 1
 358.631 550.007 357.951 541.587 357.951 533.733 c 0
 357.951 501.414 369.474 478.676 392 465 c 0
 402 459 414 456 428 456 c 1
 465 459 491 474 506 503 c 0
 514 518 520 538 526 564 c 1
 528.153 577.723 529.219 589.998 529.219 600.825 c 0
 529.219 630.235 521.349 648.96 506 657 c 1
 484 662 l 1
 472 663 l 2
1165 328 m 1
 1138 200 l 2
 1130.98 168.432 1127.81 147.629 1127.81 136.917 c 0
 1127.81 135.413 1127.88 134.108 1128 133 c 0
 1131 113 1143 103 1165 103 c 0
 1187 103 1207 121 1224 156 c 0
 1231 171 1237 186 1240 202 c 0
 1242.31 213.548 1243.45 224.512 1243.45 234.893 c 0
 1243.45 260.47 1236.51 282.506 1223 301 c 0
 1209 319 1190 328 1165 328 c 1
EndSplineSet
EndChar
StartChar: uni0E0A
Encoding: 132 3594 134
OldEncoding: 3594
Width: 1390
Flags: HW
Fore
1037 921 m 1
 1102 930 1149 940 1178 949 c 0
 1209 960 1238 973 1263 990 c 0
 1311 1021 1344 1056 1362 1095 c 0
 1371 1114 1377 1136 1384 1163 c 1
 1390 1188 l 1
 1556 1188 l 1
 1550 1164 l 2
 1527 1053 1455 968 1333 909 c 0
 1292 888 1246 872 1197 861 c 1
 1264 802 l 2
 1281 787 1293 774 1300 765 c 0
 1326.41 727.58 1338.83 686.392 1338.83 641.831 c 0
 1338.83 625.659 1337.2 609.042 1334 592 c 1
 1267 278 l 2
 1261 248 1253 220 1242 195 c 0
 1200 90 1122 25 1008 1 c 1
 947 -8 l 1
 929 -9 910 -10 891 -10 c 0
 774 -10 696 27 656 101 c 0
 640.375 130.375 632.562 164.438 632.562 203.188 c 0
 632.562 226.438 635.375 251.375 641 278 c 2
 704 575 l 2
 715 625 765 685 852 755 c 0
 866 766 877 791 884 830 c 1
 884.985 839.11 885.485 847.977 885.485 856.572 c 0
 885.485 882.886 880.799 906.648 871 927 c 0
 854 962 822 986 771 998 c 0
 757 1001 743 1003 728 1003 c 2
 681 1000 l 1
 630 993 579 968 527 925 c 1
 540 931 555 934 572 934 c 0
 579 934 588 934 596 933 c 0
 640 928 672 900 692 850 c 0
 696.399 837.354 698.681 822.894 698.681 806.952 c 0
 698.681 793.9 697.151 779.855 694 765 c 0
 684 718 663 675 633 634 c 0
 603 595 562 568 509 553 c 0
 488 548 469 545 449 545 c 0
 440 545 431 546 422 547 c 0
 370 553 331 582 305 635 c 0
 303 640 301 644 299 649 c 0
 292.964 665.25 289.946 684.949 289.946 708.297 c 0
 289.946 735.237 293.964 767.036 302 804 c 0
 305 818 309 831 312 843 c 0
 335 911 376 972 434 1025 c 0
 441 1032 449 1038 456 1043 c 0
 543 1110 637 1145 739 1149 c 0
 755 1149 l 0
 823 1149 886 1130 943 1092 c 0
 963 1079 980 1064 992 1049 c 0
 1015 1020 1030 978 1037 921 c 1
1033 771 m 1
 983 731 l 1
 913 670 873 618 864 575 c 2
 801 278 l 2
 799.66 271.684 798.98 265.441 798.98 259.279 c 0
 798.98 233.244 811.125 208.641 837 186 c 0
 862 163 891 151 925 150 c 0
 972 150 1016 167 1057 202 c 0
 1085 225 1101 251 1107 278 c 2
 1171 581 l 2
 1172.21 586.034 1172.81 591.392 1172.81 597.066 c 0
 1172.81 619.573 1163.37 647.054 1145 679 c 0
 1133 700 1119 719 1102 734 c 0
 1081 753 1058 766 1033 771 c 1
457 642 m 1
 483 641 l 1
 513 645 539 660 562 687 c 0
 568 695 l 0
 581 713 589 732 593 751 c 0
 594.652 759.258 595.394 767.212 595.394 774.864 c 0
 595.394 781.111 594.899 787.157 594 793 c 0
 590 817 576 832 553 839 c 1
 526 841 l 1
 490 839 462 822 438 791 c 0
 434 786 431 780 427 773 c 0
 421 760 416 748 413 735 c 0
 411 724 411 713 411 703 c 1
 416 679 l 1
 425 658 438 645 457 642 c 1
EndSplineSet
EndChar
StartChar: uni0E0B
Encoding: 133 3595 135
OldEncoding: 3595
Width: 1390
Flags: HW
Fore
389 603 m 1
 415 603 l 1
 445 607 470 622 493 649 c 0
 496 652 498 654 499 656 c 0
 512 674 520 693 525 713 c 0
 526.5 720.5 527.25 727.75 527.25 734.625 c 0
 527.25 741.5 526.5 748 525 754 c 0
 521 775 510 790 492 798 c 0
 490 799 488 799 485 800 c 2
 458 803 l 1
 422 800 393 784 370 753 c 0
 366 747 363 741 359 734 c 0
 352 721 348 709 345 696 c 0
 342.917 687.25 341.875 678.847 341.875 670.792 c 0
 341.875 659.514 343.917 648.917 348 639 c 0
 357 619 370 607 389 603 c 1
1041 921 m 1
 1106 930 1153 940 1182 949 c 0
 1213 960 1242 973 1267 990 c 0
 1315 1021 1348 1056 1366 1095 c 0
 1375 1114 1381 1136 1388 1163 c 1
 1394 1188 l 1
 1560 1188 l 1
 1554 1164 l 2
 1531 1053 1459 968 1337 909 c 0
 1296 888 1250 872 1201 861 c 1
 1268 802 l 2
 1285 787 1297 774 1304 765 c 0
 1330.41 727.58 1342.83 686.392 1342.83 641.831 c 0
 1342.83 625.659 1341.2 609.042 1338 592 c 1
 1271 278 l 2
 1265 248 1257 220 1246 195 c 0
 1204 90 1126 25 1012 1 c 1
 951 -8 l 1
 933 -9 914 -10 895 -10 c 0
 778 -10 700 27 660 101 c 0
 644.375 130.375 636.562 164.438 636.562 203.188 c 0
 636.562 226.438 639.375 251.375 645 278 c 2
 708 575 l 2
 719 625 769 685 858 754 c 0
 873 765 881 773 883 776 c 128
 885 779 887 786 889 796 c 0
 892.151 809.955 893.681 824.316 893.681 839.264 c 0
 893.681 857.521 891.399 876.656 887 897 c 0
 881 923 865 950 840 979 c 1
 840 978 785 946 675 881 c 1
 556 963 l 1
 537 979 l 1
 515 966 493 943 471 908 c 1
 458 886 l 1
 472 893 486 896 503 896 c 0
 510 896 518 895 528 894 c 0
 572 889 604 861 624 812 c 0
 628.399 799.354 630.681 784.894 630.681 768.952 c 0
 630.681 755.9 629.151 741.855 626 727 c 0
 616 680 595 636 564 595 c 0
 535 556 493 529 440 515 c 0
 420 510 401 507 380 507 c 0
 371 507 363 507 354 508 c 0
 301 515 263 544 237 596 c 0
 233 604 233 604 231 611 c 0
 224.964 627.25 221.946 646.949 221.946 670.197 c 0
 221.946 697.022 225.964 728.571 234 765 c 0
 237 780 241 793 244 804 c 0
 265 871 308 940 370 1011 c 0
 412 1060 466 1100 531 1132 c 0
 549 1141 563 1146 573 1149 c 1
 573 1148 618 1112 709 1041 c 1
 876 1149 l 1
 916 1138 952 1111 986 1068 c 0
 994 1058 1002 1047 1008 1036 c 0
 1030 999 1041 960 1041 921 c 1
1037 771 m 1
 987 731 l 1
 917 670 877 618 868 575 c 2
 805 278 l 2
 803.66 271.684 802.98 265.441 802.98 259.279 c 0
 802.98 233.244 815.125 208.641 841 186 c 0
 866 163 895 151 929 150 c 0
 976 150 1020 167 1061 202 c 0
 1089 225 1105 251 1111 278 c 2
 1175 581 l 2
 1176.21 586.034 1176.81 591.392 1176.81 597.066 c 0
 1176.81 619.573 1167.37 647.054 1149 679 c 0
 1137 700 1123 719 1106 734 c 0
 1085 753 1062 766 1037 771 c 1
EndSplineSet
EndChar
StartChar: uni0E0C
Encoding: 134 3596 136
OldEncoding: 3596
Width: 1750
Flags: HW
Fore
1065 657 m 2
 1074.68 702.76 1079.52 743.293 1079.52 778.513 c 0
 1079.52 823.339 1071.68 859.56 1056 887 c 0
 1046 903 1034 917 1020 930 c 0
 990 956 946 974 886 985 c 0
 869 988 853 989 838 989 c 0
 740 989 645 957 554 892 c 0
 525 872 500 850 475 825 c 1
 503 818 536 794 574 755 c 0
 609 720 627 689 630 663 c 1
 573 614 535 581 520 563 c 0
 486 526 463 491 452 459 c 0
 446 444 441 425 437 403 c 2
 429 369 l 1
 444 383 468 392 500 396 c 0
 503 397 507 397 511 397 c 2
 546 395 l 1
 579 390 606 374 628 347 c 0
 647.013 322.625 656.519 293.259 656.519 259.019 c 0
 656.519 223.022 646.013 181.638 625 135 c 1
 605 92 570 56 520 25 c 0
 482 2 443 -10 401 -11 c 2
 392 -11 l 2
 338 -10 297 8 267 44 c 0
 244.71 70.6242 233.921 108.366 233.921 156.751 c 0
 233.921 186.511 238.003 220.298 246 258 c 2
 277 403 l 2
 289 460 309 507 336 546 c 0
 357 576 399 618 463 671 c 1
 444 701 407 731 355 762 c 0
 331 776 309 786 290 792 c 1
 317 855 366 917 437 979 c 0
 566 1092 711 1149 872 1149 c 0
 1017 1149 1124 1102 1191 1008 c 1
 1225.53 952.621 1242.66 885.781 1242.66 807.757 c 0
 1242.66 766.024 1237.76 721.091 1228 673 c 0
 1227 670 1227 670 1172 409 c 1
 1291 272 l 1
 1368 189 1427 148 1469 147 c 0
 1478 147 1488 149 1497 154 c 0
 1520 167 1538 201 1549 256 c 2
 1737 1139 l 1
 1897 1139 l 1
 1709 256 l 2
 1691 169 1668 108 1641 74 c 0
 1625 55 1604 39 1580 25 c 0
 1545 5 1510 -5 1475 -5 c 0
 1403 -5 1325 40 1240 129 c 1
 1144 235 l 2
 1136 243 l 1
 1112 146 l 1
 1089 78 1051 31 997 6 c 0
 974 -5 949 -10 924 -10 c 0
 877 -10 839 4 810 31 c 2
 798 43 l 1
 774.401 75.1809 762.052 111.964 762.052 153.351 c 0
 762.052 169.837 764.012 187.053 768 205 c 0
 781 267 807 319 845 362 c 0
 896 417 955 445 1020 446 c 1
 1065 657 l 2
1004 328 m 1
 964 328 930 307 902 264 c 0
 889 244 879 223 875 202 c 0
 872.137 188.045 870.683 175.243 870.683 163.684 c 0
 870.683 142.939 875.367 126.201 885 114 c 0
 891 107 899 103 908 103 c 0
 939 103 959 124 969 166 c 1
 977 200 l 1
 1004 328 l 1
440 97 m 0
 471 97 499 112 524 143 c 0
 538 160 547 177 550 194 c 0
 551 198 551 198 552 201 c 0
 553.309 209.601 553.953 217.677 553.953 225.229 c 0
 553.953 258.068 541.765 280.992 519 294 c 0
 510 301 498 304 484 304 c 1
 447 301 421 286 406 257 c 1
 393 222 l 1
 391 215 389 206 387 196 c 0
 384.326 180.85 382.977 167.465 382.977 155.845 c 0
 382.977 128.347 390.535 110.732 406 103 c 0
 414 99 426 97 440 97 c 0
EndSplineSet
EndChar
StartChar: uni0E0D
Encoding: 135 3597 137
OldEncoding: 3597
Width: 1745
Flags: HW
Fore
857 -203 m 1
 868 -162 l 1
 888 -105 924 -62 977 -33 c 0
 1001 -20 1024 -12 1050 -9 c 1
 1087 -8 l 1
 1125 -10 1155 -25 1177 -53 c 0
 1194.27 -75.7178 1203.27 -101.739 1203.27 -131.813 c 0
 1203.27 -134.834 1203.18 -137.896 1203 -141 c 1
 1197 -174 l 1
 1184 -223 1156 -261 1113 -288 c 2
 1105 -293 l 1
 1113 -296 1127 -298 1146 -298 c 0
 1176 -298 1206 -294 1236 -285 c 0
 1337 -256 1407 -205 1450 -133 c 0
 1470 -100 1485 -60 1496 -13 c 1
 1612 -13 l 1
 1584 -146 1516 -249 1408 -323 c 0
 1371 -348 1331 -369 1287 -384 c 0
 1233 -404 1177 -414 1118 -414 c 0
 1024 -414 952 -390 903 -343 c 0
 870.757 -312.411 854.918 -274.986 854.918 -231.292 c 0
 854.918 -222.135 855.614 -212.703 857 -203 c 1
1038 -84 m 1
 1007 -89 983 -104 965 -131 c 0
 958 -141 954 -152 951 -164 c 0
 950 -169 950 -175 950 -181 c 0
 950 -209 963 -227 988 -236 c 0
 995 -239 1004 -241 1013 -241 c 0
 1017 -241 1021 -241 1025 -240 c 0
 1061 -235 1089 -218 1108 -189 c 0
 1114 -180 1118 -170 1120 -160 c 0
 1121 -157 1121 -153 1121 -149 c 0
 1121.05 -147.738 1121.07 -146.492 1121.07 -145.262 c 0
 1121.07 -119.213 1110.87 -100.459 1087 -89 c 0
 1077 -85 1066 -83 1054 -83 c 2
 1038 -84 l 1
440 97 m 0
 471 97 499 112 524 143 c 0
 538 160 547 177 550 194 c 0
 551 198 551 198 552 201 c 0
 553.309 209.601 553.953 217.677 553.953 225.229 c 0
 553.953 258.068 541.765 280.992 519 294 c 0
 510 301 498 304 484 304 c 1
 447 301 421 286 406 257 c 1
 393 222 l 1
 391 215 389 206 387 196 c 0
 384.326 180.85 382.977 167.465 382.977 155.845 c 0
 382.977 128.347 390.535 110.732 406 103 c 0
 414 99 426 97 440 97 c 0
1228 673 m 2
 1151 310 l 2
 1147.62 294.589 1145.94 280.247 1145.94 266.975 c 0
 1145.94 217.381 1169.46 182.722 1216 163 c 0
 1236 154 1258 150 1282 150 c 0
 1286 150 l 0
 1350 151 1397 166 1427 193 c 0
 1456 219 1475 258 1486 310 c 2
 1662 1139 l 1
 1822 1139 l 1
 1631 241 l 2
 1617 172 1572 114 1499 65 c 0
 1423 16 1337 -9 1242 -10 c 1
 1187 -6 l 1
 1103 5 1043 40 1004 98 c 0
 982.869 129.697 972.653 163.874 972.653 200.881 c 0
 972.653 216.414 974.452 232.445 978 249 c 2
 1065 657 l 2
 1074.46 702.17 1079.12 742.159 1079.12 776.966 c 0
 1079.12 823.068 1070.95 860.08 1055 888 c 0
 1048 901 1038 913 1027 924 c 1
 1020 930 l 2
 990 956 946 974 886 985 c 0
 869 988 853 989 838 989 c 0
 740 989 645 957 554 892 c 0
 525 872 500 850 475 825 c 1
 503 818 536 794 574 755 c 0
 609 720 627 689 630 663 c 1
 573 614 535 581 520 563 c 0
 486 526 463 491 452 459 c 0
 446 444 441 425 437 403 c 2
 429 369 l 1
 444 383 468 392 500 396 c 0
 503 397 507 397 511 397 c 2
 546 395 l 1
 579 390 606 374 628 347 c 0
 647.013 322.625 656.519 293.259 656.519 259.019 c 0
 656.519 223.022 646.013 181.638 625 135 c 1
 605 92 570 56 520 25 c 0
 482 2 443 -10 401 -11 c 2
 392 -11 l 2
 338 -10 297 8 267 44 c 0
 244.71 70.6242 233.921 108.366 233.921 156.751 c 0
 233.921 186.511 238.003 220.298 246 258 c 2
 277 403 l 2
 289 460 309 507 336 546 c 0
 357 576 399 618 463 671 c 1
 444 701 407 731 355 762 c 0
 331 776 309 786 290 792 c 1
 317 855 366 917 437 979 c 0
 566 1092 711 1149 872 1149 c 0
 1017 1149 1124 1102 1191 1008 c 1
 1225.98 952.285 1243.34 885.657 1243.34 808.388 c 0
 1243.34 766.388 1238.21 721.244 1228 673 c 2
EndSplineSet
Substitution: 0 65534 'nds0' uni0E0D.descless
Substitution: 0 65534 'ndsc' uni0E0D.descless
EndChar
StartChar: uni0E0E
Encoding: 136 3598 138
OldEncoding: 3598
Width: 1375
Flags: HW
AnchorPoint: "BelowBase" 1127.71 -453 basechar 0
Fore
283 98 m 0
 318 98 343 113 358 142 c 0
 366 155 372 174 378 197 c 0
 381.823 215.419 383.713 231.301 383.713 244.732 c 0
 383.713 269.947 377.05 286.518 364 295 c 1
 342 303 l 1
 338 304 333 304 327 305 c 0
 289 305 258 285 233 245 c 0
 225 232 219 217 215 202 c 1
 212 177 l 1
 212 146 223 124 247 109 c 0
 258 102 270 98 283 98 c 0
1019 -209 m 1
 1204 658 l 1
 1213.73 704.91 1218.87 745.93 1218.87 780.871 c 0
 1218.87 807.008 1215.99 829.744 1210 849 c 0
 1201 882 1184 909 1160 931 c 0
 1130 957 1085 975 1026 986 c 0
 1008 989 992 990 977 990 c 0
 879 990 785 958 693 893 c 0
 665 873 639 851 615 826 c 1
 642 819 675 795 714 756 c 0
 748 721 767 690 769 664 c 1
 712 615 675 582 659 564 c 0
 625 527 603 492 591 459 c 0
 585 444 580 425 576 404 c 2
 545 259 l 2
 524 160 487 89 433 45 c 0
 388 9 339 -9 285 -10 c 1
 241 -7 l 1
 216 -2 193 9 172 26 c 0
 135 56 116 93 114 136 c 0
 113.859 140.266 113.789 144.487 113.789 148.665 c 0
 113.789 233.61 142.859 300.344 201 348 c 0
 243 382 286 399 331 399 c 0
 334 399 336 399 339 398 c 0
 371 397 395 387 409 370 c 1
 416 404 l 1
 429 461 448 509 475 547 c 0
 497 577 539 619 602 672 c 1
 583 702 547 732 494 763 c 0
 470 777 448 787 430 793 c 1
 456 856 505 918 576 980 c 0
 705 1093 850 1150 1011 1150 c 0
 1156 1150 1263 1103 1330 1009 c 1
 1364.98 953.285 1382.34 886.657 1382.34 809.388 c 0
 1382.34 767.388 1377.21 722.244 1367 674 c 2
 1137 -410 l 5
 977 -410 l 1
 938 -339 890 -278 834 -227 c 1
 821 -215 809 -205 797 -196 c 1
 767 -239 724 -283 666 -328 c 1
 641 -346 l 2
 583 -386 516 -408 442 -413 c 1
 414 -413 l 2
 355 -412 315 -394 294 -357 c 0
 286.927 -344.621 282.98 -328.421 282.98 -308.194 c 0
 282.98 -294.105 284.895 -278.064 289 -260 c 0
 295 -230 306 -203 320 -180 c 0
 346 -135 387 -94 444 -56 c 0
 483 -29 536 -13 604 -7 c 1
 655 -7 l 1
 695 -10 732 -19 767 -34 c 1
 897 140 l 1
 995 105 l 1
 866 -76 l 1
 904 -97 948 -133 995 -182 c 0
 1006 -193 1013 -202 1019 -209 c 1
429 -210 m 0
 421 -226 416.556 -239.333 416.556 -250 c 0
 416.556 -255.333 417.667 -260 420 -264 c 0
 427 -281 444 -289 468 -289 c 0
 477 -289 486 -288 497 -286 c 0
 520 -282 548 -271 583 -253 c 1
 612 -240 640 -219 667 -191 c 0
 682 -176 693 -162 702 -147 c 1
 689 -130 660 -121 613 -121 c 2
 590 -121 l 2
 554 -122 516 -134 475 -159 c 1
 456 -172 441 -189 429 -210 c 0
EndSplineSet
EndChar
StartChar: uni0E0F
Encoding: 137 3599 139
OldEncoding: 3599
Width: 1375
Flags: HW
AnchorPoint: "BelowBase" 1127.71 -453 basechar 0
Fore
283 98 m 0
 318 98 343 113 358 142 c 0
 366 155 372 174 378 197 c 0
 381.823 215.419 383.713 231.301 383.713 244.732 c 0
 383.713 269.947 377.05 286.518 364 295 c 1
 342 303 l 1
 338 304 333 304 327 305 c 0
 289 305 258 285 233 245 c 0
 225 232 219 217 215 202 c 1
 212 177 l 1
 212 146 223 124 247 109 c 0
 258 102 270 98 283 98 c 0
1020 -209 m 1
 1204 658 l 2
 1213.73 704.91 1218.87 745.93 1218.87 780.871 c 0
 1218.87 807.008 1215.99 829.744 1210 849 c 0
 1201 882 1184 909 1160 931 c 0
 1130 957 1085 975 1026 986 c 0
 1008 989 992 990 977 990 c 0
 879 990 785 958 693 893 c 0
 665 873 639 851 615 826 c 1
 642 819 675 795 714 756 c 0
 748 721 767 690 769 664 c 1
 712 615 675 582 659 564 c 0
 625 527 603 492 591 459 c 0
 585 444 580 425 576 404 c 2
 545 259 l 2
 524 160 487 89 433 45 c 0
 388 9 339 -9 285 -10 c 1
 241 -7 l 1
 216 -2 193 9 172 26 c 0
 135 56 116 93 114 136 c 0
 113.859 140.266 113.789 144.487 113.789 148.665 c 0
 113.789 233.61 142.859 300.344 201 348 c 0
 243 382 286 399 331 399 c 0
 334 399 336 399 339 398 c 0
 371 397 395 387 409 370 c 1
 416 404 l 1
 429 461 448 509 475 547 c 0
 497 577 539 619 602 672 c 1
 583 702 547 732 494 763 c 0
 470 777 448 787 430 793 c 1
 456 856 505 918 576 980 c 0
 705 1093 850 1150 1011 1150 c 0
 1156 1150 1263 1103 1330 1009 c 1
 1364.98 953.285 1382.34 886.657 1382.34 809.388 c 0
 1382.34 767.388 1377.21 722.244 1367 674 c 2
 1137 -410 l 5
 977 -410 l 1
 949 -360 918 -311 883 -263 c 0
 878 -257 878 -257 874 -252 c 1
 870 -256 841 -278 790 -317 c 0
 769 -333 751 -348 735 -362 c 1
 723 -313 705 -271 681 -236 c 0
 669 -218 657 -207 646 -203 c 1
 614 -249 569 -294 508 -338 c 0
 496 -346 l 0
 438 -386 371 -408 297 -413 c 1
 269 -413 l 2
 210 -412 170 -394 149 -357 c 0
 141.927 -344.621 137.98 -328.421 137.98 -308.194 c 0
 137.98 -294.105 139.895 -278.064 144 -260 c 0
 150 -230 161 -203 175 -180 c 0
 201 -135 242 -94 299 -56 c 0
 338 -29 391 -13 459 -7 c 1
 510 -7 l 1
 550 -10 587 -19 622 -34 c 1
 752 140 l 1
 850 105 l 1
 721 -76 l 1
 748 -104 765 -124 772 -137 c 0
 775 -144 777 -150 779 -156 c 1
 882 -64 l 1
 896 -53 908 -45 920 -38 c 1
 940 -57 968 -106 1006 -183 c 2
 1020 -209 l 1
284 -210 m 0
 276 -226 271.556 -239.333 271.556 -250 c 0
 271.556 -255.333 272.667 -260 275 -264 c 0
 282 -281 299 -289 323 -289 c 0
 332 -289 341 -288 352 -286 c 0
 375 -282 403 -271 438 -253 c 1
 467 -240 495 -219 522 -191 c 0
 537 -176 548 -162 557 -147 c 1
 544 -130 515 -121 468 -121 c 2
 445 -121 l 2
 409 -122 371 -134 330 -159 c 1
 311 -172 296 -189 284 -210 c 0
EndSplineSet
EndChar
StartChar: uni0E10
Encoding: 138 3600 140
OldEncoding: 3600
Width: 1130
Flags: HW
Fore
414 589 m 0
 383 589 355 574 329 543 c 0
 316 526 307 509 304 492 c 2
 302 485 l 1
 300.685 476.355 300.04 468.24 300.04 460.649 c 0
 300.04 427.843 312.074 404.805 334 391 c 0
 344 385 356 382 370 382 c 1
 407 385 433 400 448 429 c 0
 456 444 463 464 468 490 c 1
 470.241 504.286 471.383 517.002 471.383 528.149 c 0
 471.383 556.798 463.838 575.081 448 583 c 1
 426 588 l 2
 422 589 418 589 414 589 c 0
869 529 m 2
 870.335 535.006 871.001 540.864 871.001 546.575 c 0
 871.001 592.207 828.434 628.448 744 656 c 0
 624 695 456 730 242 762 c 1
 270 829 311 894 364 957 c 0
 414 1016 476 1063 550 1099 c 0
 618 1132 698 1149 793 1149 c 0
 870 1149 938 1134 998 1103 c 0
 1048 1078 1106 1065 1174 1065 c 0
 1200 1065 1224 1067 1245 1072 c 1
 1173 917 l 1
 1158.09 913.686 1142.49 911.745 1125.07 911.745 c 0
 1121.46 911.745 1117.77 911.828 1114 912 c 0
 1052 912 1000 922 958 941 c 0
 955 942 953 943 952 944 c 0
 884 980 816 998 748 998 c 0
 739 998 729 998 720 997 c 0
 659 993 603 967 549 918 c 0
 533 903 520 887 509 872 c 1
 643 849 l 1
 785 815 886 780 945 744 c 0
 1010.04 705.143 1042.26 658.438 1042.26 604.486 c 0
 1042.26 594.567 1041.17 584.404 1039 574 c 2
 976 279 l 2
 953 168 897 87 812 36 c 0
 759 5 700 -10 635 -10 c 0
 481.87 -10 405.855 55.7144 405.855 186.594 c 0
 405.855 215.543 409.574 247.681 417 283 c 2
 424 317 l 1
 410 303 386 294 355 290 c 0
 342 288 l 1
 309 291 l 1
 275 296 247 312 226 339 c 0
 206.988 363.375 197.481 392.741 197.481 426.981 c 0
 197.481 462.978 207.988 504.362 229 551 c 0
 249 594 284 631 334 661 c 0
 371 684 411 696 453 697 c 0
 457 697 457 697 462 697 c 0
 516 696 557 678 586 642 c 0
 608.589 615.018 619.76 576.619 619.76 527.295 c 0
 619.76 498.012 615.823 464.88 608 428 c 2
 577 283 l 2
 573.383 266.058 571.578 250.746 571.578 237.058 c 0
 571.578 178.843 604.229 150 669 150 c 0
 745 150 793 189 813 268 c 0
 815 271 815 275 816 279 c 2
 869 529 l 2
702 -329 m 1
 716 -262 l 1
 704 -271 685 -276 659 -276 c 0
 653 -276 653 -276 648 -276 c 0
 622 -273 600 -263 583 -246 c 0
 566.979 -231.505 558.524 -212.935 558.524 -191.179 c 0
 558.524 -184.418 559.34 -177.35 561 -170 c 0
 563 -160 566 -149 572 -138 c 0
 574 -133 576 -129 579 -124 c 0
 591 -97 617 -74 654 -55 c 0
 682 -41 709 -34 736 -34 c 0
 787 -34 826 -45 854 -66 c 0
 876.781 -82.875 888.172 -108.293 888.172 -142.855 c 0
 888.172 -149.255 887.781 -155.969 887 -163 c 0
 886 -178 883 -198 878 -223 c 2
 812 -530 l 1
 662 -530 l 1
 660 -478 647 -443 621 -424 c 0
 611 -417 599 -413 586 -413 c 0
 560 -413 528 -434 489 -475 c 0
 473 -492 460 -510 448 -529 c 1
 431 -474 l 1
 423 -449 405 -427 380 -406 c 1
 338 -448 299 -478 266 -497 c 1
 225 -517 181 -529 133 -533 c 1
 91 -534 l 1
 44 -531 9 -512 -15 -478 c 0
 -20.8118 -468.314 -24.1216 -455.708 -24.1216 -440.454 c 0
 -24.1216 -432.085 -23.1255 -422.919 -21 -413 c 0
 -18 -400 -13 -387 -8 -376 c 0
 -2 -366 l 0
 18 -337 45 -314 77 -299 c 0
 84 -296 91 -294 97 -292 c 1
 132 -277 175 -269 224 -269 c 0
 270 -269 314 -277 356 -294 c 1
 359 -291 l 2
 368 -282 390 -254 426 -208 c 1
 509 -230 l 1
 433 -324 l 1
 453 -338 468 -351 478 -364 c 0
 478 -365 479 -367 480 -368 c 1
 537 -312 581 -284 614 -284 c 0
 655 -284 684 -299 702 -329 c 1
712 -95 m 0
 694 -95 676 -105 657 -124 c 0
 647 -134 640 -144 638 -154 c 1
 636 -177 l 1
 638 -200 650 -215 672 -220 c 0
 676 -221 680 -222 685 -222 c 0
 716 -219 738 -202 748 -172 c 0
 750 -165 750 -165 752 -157 c 0
 753.501 -149.28 754.266 -142.296 754.266 -136.038 c 0
 754.266 -113.112 743.996 -99.9278 722 -96 c 0
 719 -95 715 -95 712 -95 c 0
63 -399 m 0
 59 -406 56 -412 55 -418 c 0
 54 -421 53.5556 -423.889 53.5556 -426.667 c 0
 53.5556 -432.222 55.3333 -437.333 58 -442 c 1
 70 -455 84 -461 99 -461 c 0
 103 -461 103 -461 106 -461 c 0
 141 -461 179 -453 217 -437 c 1
 232 -432 257 -413 291 -380 c 0
 299 -373 305 -367 309 -362 c 1
 293 -350 261 -344 213 -344 c 0
 176 -344 140 -351 107 -364 c 1
 85 -376 71 -388 63 -399 c 0
EndSplineSet
Substitution: 0 65534 'nds0' uni0E10.descless
Substitution: 0 65534 'ndsc' uni0E10.descless
EndChar
StartChar: uni0E11
Encoding: 139 3601 141
OldEncoding: 3601
Width: 1700
Flags: HW
Fore
431 603 m 1
 457 603 l 1
 487 607 512 622 535 649 c 0
 538 652 540 654 541 656 c 0
 554 674 562 693 567 713 c 0
 568.5 720.5 569.25 727.75 569.25 734.625 c 0
 569.25 741.5 568.5 748 567 754 c 0
 563 775 552 790 534 798 c 0
 532 799 530 799 527 800 c 2
 500 803 l 1
 464 800 435 784 412 753 c 0
 408 747 405 741 401 734 c 0
 394 721 390 709 387 696 c 0
 384.917 687.25 383.875 678.847 383.875 670.792 c 0
 383.875 659.514 385.917 648.917 390 639 c 0
 399 619 412 607 431 603 c 1
636 0 m 1
 663 129 705 324 760 587 c 0
 770 637 820 697 908 767 c 0
 921 778 931 794 933 814 c 128
 934.755 821.722 935.524 830.06 935.524 839.101 c 0
 935.524 855.816 932.894 874.934 929 897 c 0
 923 923 907 950 882 979 c 1
 882 978 827 946 717 881 c 1
 598 963 l 1
 579 979 l 1
 557 966 535 943 513 908 c 1
 500 886 l 1
 514 893 528 896 545 896 c 0
 552 896 560 895 570 894 c 0
 614 889 646 861 666 812 c 0
 670.399 799.354 672.681 784.894 672.681 768.952 c 0
 672.681 755.9 671.151 741.855 668 727 c 0
 658 680 637 636 606 595 c 0
 577 556 535 529 482 515 c 0
 462 510 443 507 422 507 c 0
 413 507 405 507 396 508 c 0
 343 515 305 544 279 596 c 0
 275 604 275 604 273 611 c 0
 266.964 627.25 263.946 646.949 263.946 670.197 c 0
 263.946 697.022 267.964 728.571 276 765 c 0
 279 780 283 793 286 804 c 0
 307 871 350 940 412 1011 c 0
 454 1060 508 1100 573 1132 c 0
 591 1141 605 1146 615 1149 c 1
 615 1148 660 1112 751 1041 c 1
 918 1149 l 1
 955 1138 992 1110 1029 1065 c 0
 1036 1056 1043 1046 1050 1036 c 0
 1076 995 1092 936 1095 859 c 0
 1095 836 1094 815 1091 797 c 0
 1090 789 1090 789 1088 783 c 1
 1039 743 l 1
 969 682 929 630 920 587 c 1
 852 263 l 1
 1342 990 l 1
 1393 1068 1457 1115 1533 1131 c 0
 1549 1134 1564 1136 1579 1136 c 0
 1598 1135 1617 1133 1633 1128 c 0
 1693 1110 1727 1067 1734 1000 c 0
 1734.78 992.943 1735.16 985.68 1735.16 978.213 c 0
 1735.16 957.112 1732.17 934.374 1727 910 c 2
 1534 0 l 1
 1374 0 l 1
 1527 719 l 2
 1539.03 776 1545.05 818.961 1545.05 848.137 c 0
 1545.05 865.029 1543.03 877.3 1539 885 c 1
 1531 894 l 1
 1522 898 l 1
 1501 899 l 1
 1471 895 1439 869 1406 821 c 2
 1388 796 l 1
 838 0 l 1
 636 0 l 1
EndSplineSet
EndChar
StartChar: uni0E12
Encoding: 140 3602 142
OldEncoding: 3602
Width: 1850
Flags: HW
Fore
1149 734 m 2
 1152.27 748.822 1153.89 763.58 1153.89 778.244 c 0
 1153.89 821.951 1139.45 864.817 1111 906 c 0
 1085 942 1056 966 1024 979 c 1
 826 863 l 1
 687 979 l 1
 633 965 583 937 536 895 c 0
 518 879 503 862 492 845 c 0
 464 804 443 748 428 676 c 0
 418 631 413 589 413 551 c 1
 418 266 l 1
 417 241 416 218 415 197 c 1
 459 212 505 240 550 279 c 0
 583 308 607 337 620 365 c 1
 612 363 604 362 595 362 c 0
 535 362 496 386 478 434 c 1
 471.004 449.741 467.407 467.862 467.407 488.361 c 0
 467.407 503.024 469.247 518.903 473 536 c 0
 481 574 495 609 517 641 c 1
 565 707 630 742 711 745 c 1
 745 743 l 1
 790 734 823 710 842 670 c 0
 846 663 849 655 852 647 c 0
 856.145 630.879 858.169 613.484 858.169 594.72 c 0
 858.169 572.745 855.394 548.891 850 523 c 0
 847 508 843 493 837 477 c 0
 790 332 693 205 545 95 c 0
 488 52 436 21 389 0 c 1
 204 0 l 1
 227 108 l 2
 242 178 249 292 249 450 c 1
 248.778 460.111 248.667 470.136 248.667 480.074 c 0
 248.667 559.58 255.778 633.556 270 702 c 0
 280 747 293 789 309 826 c 0
 359 939 433 1025 531 1084 c 0
 592 1121 656 1142 723 1149 c 1
 863 1033 l 1
 1060 1149 l 1
 1230.18 1109.42 1314.52 1002.81 1314.53 828.661 c 0
 1314.53 782.795 1308.67 732.244 1297 677 c 2
 1240 409 l 1
 1244 406 1272 374 1325 314 c 0
 1419 205 1483 151 1518 151 c 0
 1523 151 1527 152 1532 154 c 0
 1555 165 1572 199 1584 256 c 2
 1772 1139 l 1
 1932 1139 l 1
 1744 256 l 2
 1726 169 1703 108 1676 74 c 0
 1660 55 1639 39 1615 25 c 0
 1581 6 1547 -4 1513 -4 c 0
 1436 -4 1356 49 1274 154 c 2
 1204 242 l 1
 1204 243 l 1
 1180 146 l 1
 1157 78 1119 31 1065 6 c 0
 1042 -5 1017 -10 992 -10 c 0
 945 -10 907 4 878 31 c 2
 866 43 l 1
 842.401 75.1809 830.052 111.964 830.052 153.351 c 0
 830.052 169.837 832.012 187.053 836 205 c 0
 849 267 875 319 913 362 c 0
 964 417 1023 445 1088 446 c 1
 1149 734 l 2
1072 328 m 1
 1032 328 998 307 970 264 c 0
 957 244 947 223 943 202 c 0
 940.137 188.045 938.683 175.243 938.683 163.684 c 0
 938.683 142.939 943.367 126.201 953 114 c 0
 959 107 967 103 976 103 c 0
 1007 103 1027 124 1037 166 c 1
 1045 200 l 1
 1072 328 l 1
682 647 m 1
 663 646 l 1
 637 639 613 622 592 595 c 0
 583 582 576 567 571 552 c 1
 564 516 l 1
 563.558 511.251 563.336 506.734 563.336 502.449 c 0
 563.336 467.931 577.755 448.448 608 444 c 0
 611 443 613 443 616 443 c 2
 639 445 l 1
 670 453 694 477 711 517 c 0
 715 525 717 533 719 542 c 1
 727 585 l 1
 727.238 587.781 727.357 590.473 727.357 593.076 c 0
 727.357 623.242 711.458 641.477 682 647 c 1
EndSplineSet
EndChar
StartChar: uni0E13
Encoding: 141 3603 143
OldEncoding: 3603
Width: 1900
Flags: HW
Fore
1068 657 m 2
 1077 700 1082 737 1083 768 c 0
 1083.09 771.373 1083.14 774.708 1083.14 778.005 c 0
 1083.14 844.093 1064 894.758 1024 930 c 0
 994 956 949 974 889 985 c 0
 873 988 856 989 841 989 c 0
 743 989 648 957 558 892 c 0
 528 872 503 850 478 825 c 1
 506 818 539 794 577 755 c 0
 612 720 630 689 633 663 c 1
 576 614 538 581 523 563 c 0
 490 526 467 491 456 459 c 0
 449 444 444 425 440 403 c 1
 433 369 l 1
 447 383 471 392 503 396 c 0
 507 397 511 397 514 397 c 2
 549 395 l 1
 583 390 610 374 632 347 c 0
 651.013 322.625 660.519 293.259 660.519 259.019 c 0
 660.519 223.022 650.013 181.638 629 135 c 1
 609 92 574 56 524 25 c 0
 486 2 446 -10 404 -11 c 2
 396 -11 l 2
 342 -10 301 8 271 44 c 0
 248.411 70.9816 237.24 109.381 237.24 158.705 c 0
 237.24 187.988 241.177 221.12 249 258 c 2
 280 403 l 2
 292 460 312 507 339 546 c 0
 360 576 402 618 466 671 c 1
 447 701 410 731 358 762 c 0
 334 776 312 786 293 792 c 1
 320 855 369 917 440 979 c 0
 570 1092 715 1149 875 1149 c 0
 1020 1149 1127 1102 1194 1008 c 1
 1228.98 952.285 1246.34 885.657 1246.34 808.388 c 0
 1246.34 766.388 1241.21 721.244 1231 673 c 2
 1142 256 l 2
 1137.36 234.176 1135.08 215.801 1135.08 200.677 c 0
 1135.08 183.229 1138.11 170.106 1144 161 c 0
 1147 158 1149 156 1152 154 c 0
 1158 149 1166 147 1175 147 c 0
 1219 147 1305 202 1434 313 c 0
 1503 372 1541 404 1548 409 c 1
 1559 460 1610 703 1702 1139 c 1
 1862 1139 l 1
 1715 446 l 1
 1781 445 1828 417 1855 362 c 0
 1867.27 335.63 1873.51 305.876 1873.51 272.506 c 0
 1873.51 251.462 1871.03 228.979 1866 205 c 0
 1852 142 1819 88 1766 43 c 0
 1731 14 1687 -4 1637 -9 c 0
 1630 -10 1624 -10 1618 -10 c 0
 1556 -10 1517 18 1501 75 c 0
 1496.29 91.4797 1494.66 109.807 1494.66 129.498 c 0
 1494.66 134.9 1494.78 140.403 1495 146 c 1
 1514 243 l 1
 1499 233 1458 201 1391 148 c 1
 1302 74 1230 28 1175 9 c 0
 1150 0 1126 -5 1103 -5 c 0
 1070 -5 1040 5 1013 25 c 0
 981.744 48.6787 964.842 83.1225 964.842 128.331 c 0
 964.842 130.854 964.894 133.41 965 136 c 0
 966 164 971 204 982 256 c 2
 1068 657 l 2
1682 328 m 1
 1655 200 l 2
 1647.81 167.637 1643.85 146.588 1643.85 136.127 c 0
 1643.85 134.951 1643.9 133.909 1644 133 c 0
 1647 113 1659 103 1682 103 c 0
 1703 103 1723 121 1740 156 c 0
 1748 171 1754 186 1757 202 c 0
 1759.31 213.548 1760.45 224.512 1760.45 234.893 c 0
 1760.45 260.47 1753.51 282.506 1740 301 c 0
 1726 319 1707 328 1682 328 c 1
443 97 m 0
 474 97 502 112 527 143 c 0
 542 160 551 177 554 194 c 0
 555 197 555 199 555 201 c 0
 556.369 209.993 557.049 218.413 557.049 226.26 c 0
 557.049 258.548 545.526 281.128 523 294 c 0
 513 301 501 304 487 304 c 1
 450 301 425 286 410 257 c 1
 396 222 l 1
 394 215 392 206 390 196 c 0
 387.759 181.714 386.617 168.998 386.617 157.851 c 0
 386.617 129.202 394.162 110.919 410 103 c 0
 418 99 429 97 443 97 c 0
EndSplineSet
EndChar
StartChar: uni0E14
Encoding: 142 3604 144
OldEncoding: 3604
Width: 1330
Flags: HW
Fore
700 647 m 1
 681 646 l 1
 655 639 631 622 611 595 c 0
 602 582 594 567 589 552 c 1
 582 516 l 1
 581.558 511.251 581.336 506.734 581.336 502.449 c 0
 581.336 467.931 595.755 448.448 626 444 c 0
 629 443 631 443 634 443 c 2
 657 445 l 1
 688 453 712 477 729 517 c 0
 733 525 735 533 737 542 c 1
 745 585 l 1
 745.238 587.781 745.357 590.473 745.357 593.076 c 0
 745.357 623.242 729.458 641.477 700 647 c 1
407 0 m 1
 222 0 l 1
 245 108 l 2
 260 178 267 292 267 450 c 1
 266.748 461.465 266.623 472.724 266.623 483.775 c 0
 266.623 560.432 272.638 627.063 284 683 c 0
 293 724 305 764 321 801 c 0
 374 920 465 1011 595 1075 c 0
 695 1124 797 1148 904 1149 c 1
 975 1145 l 1
 1110 1131 1207 1079 1267 988 c 0
 1305.52 930.223 1324.63 861.42 1324.63 781.592 c 0
 1324.63 741.215 1319.74 698.018 1310 652 c 2
 1171 0 l 1
 1011 0 l 1
 1161 708 l 2
 1164.62 724.619 1166.43 740.739 1166.43 756.35 c 0
 1166.43 814.006 1141.79 864.719 1093 908 c 0
 1038 957 971 984 892 989 c 0
 874 989 l 0
 804 989 729 970 650 932 c 0
 582 900 533 863 504 820 c 0
 477 780 457 729 444 668 c 0
 436 629 431 590 431 551 c 1
 436 266 l 1
 435 241 434 218 433 197 c 1
 477 212 523 240 568 279 c 0
 601 308 625 337 638 365 c 1
 630 363 622 362 613 362 c 0
 554 362 515 386 496 434 c 1
 489.004 449.741 485.407 467.862 485.407 488.361 c 0
 485.407 503.024 487.247 518.903 491 536 c 0
 499 574 513 609 535 641 c 1
 583 707 648 742 729 745 c 1
 763 743 l 1
 808 734 841 710 860 670 c 0
 864 663 867 655 870 647 c 0
 874.145 630.879 876.169 613.484 876.169 594.72 c 0
 876.169 572.745 873.394 548.891 868 523 c 0
 865 508 861 493 855 477 c 0
 808 332 711 205 563 95 c 0
 506 52 454 21 407 0 c 1
EndSplineSet
EndChar
StartChar: uni0E15
Encoding: 143 3605 145
OldEncoding: 3605
Width: 1330
Flags: HW
Fore
700 647 m 1
 681 646 l 1
 655 639 631 622 611 595 c 0
 602 582 594 567 589 552 c 1
 582 516 l 1
 581.558 511.251 581.336 506.734 581.336 502.449 c 0
 581.336 467.931 595.755 448.448 626 444 c 0
 629 443 631 443 634 443 c 2
 657 445 l 1
 688 453 712 477 729 517 c 0
 733 525 735 533 737 542 c 1
 745 585 l 1
 745.238 587.781 745.357 590.473 745.357 593.076 c 0
 745.357 623.242 729.458 641.477 700 647 c 1
407 0 m 1
 222 0 l 1
 245 108 l 2
 260 178 267 292 267 450 c 1
 266.778 460.111 266.667 470.136 266.667 480.074 c 0
 266.667 559.58 273.778 633.556 288 702 c 0
 298 747 311 789 327 826 c 0
 377 939 451 1025 549 1084 c 0
 610 1121 674 1142 741 1149 c 1
 881 1033 l 1
 1078 1149 l 1
 1248.18 1109.42 1332.52 1002.81 1332.53 828.661 c 0
 1332.53 782.795 1326.67 732.244 1315 677 c 2
 1171 0 l 1
 1011 0 l 1
 1167 734 l 2
 1170.27 748.822 1171.89 763.58 1171.89 778.244 c 0
 1171.89 821.951 1157.45 864.817 1129 906 c 0
 1103 942 1074 966 1042 979 c 1
 844 863 l 1
 705 979 l 1
 651 965 601 937 554 895 c 0
 536 879 521 862 510 845 c 0
 482 804 461 748 446 676 c 0
 436 631 431 589 431 551 c 1
 436 266 l 1
 435 241 434 218 433 197 c 1
 477 212 523 240 568 279 c 0
 601 308 625 337 638 365 c 1
 630 363 622 362 613 362 c 0
 554 362 515 386 496 434 c 1
 489.004 449.741 485.407 467.862 485.407 488.361 c 0
 485.407 503.024 487.247 518.903 491 536 c 0
 499 574 513 609 535 641 c 1
 583 707 648 742 729 745 c 1
 763 743 l 1
 808 734 841 710 860 670 c 0
 864 663 867 655 870 647 c 0
 874.145 630.879 876.169 613.484 876.169 594.72 c 0
 876.169 572.745 873.394 548.891 868 523 c 0
 865 508 861 493 855 477 c 0
 808 332 711 205 563 95 c 0
 506 52 454 21 407 0 c 1
EndSplineSet
EndChar
StartChar: uni0E16
Encoding: 144 3606 146
OldEncoding: 3606
Width: 1240
Flags: HW
Fore
1085 0 m 1
 925 0 l 1
 1065 657 l 2
 1074.68 702.76 1079.52 743.293 1079.52 778.513 c 0
 1079.52 823.339 1071.68 859.56 1056 887 c 0
 1046 903 1034 917 1020 930 c 0
 990 956 946 974 886 985 c 0
 869 988 853 989 838 989 c 0
 740 989 645 957 554 892 c 0
 525 872 500 850 475 825 c 1
 503 818 536 794 574 755 c 0
 609 720 627 689 630 663 c 1
 573 614 535 581 520 563 c 0
 486 526 463 491 452 459 c 0
 446 444 441 425 437 403 c 2
 429 369 l 1
 444 383 468 392 500 396 c 0
 503 397 507 397 511 397 c 2
 546 395 l 1
 579 390 606 374 628 347 c 0
 647.013 322.625 656.519 293.259 656.519 259.019 c 0
 656.519 223.022 646.013 181.638 625 135 c 1
 605 92 570 56 520 25 c 0
 482 2 443 -10 401 -11 c 2
 392 -11 l 2
 338 -10 297 8 267 44 c 0
 244.71 70.6242 233.921 108.366 233.921 156.751 c 0
 233.921 186.511 238.003 220.298 246 258 c 2
 277 403 l 2
 289 460 309 507 336 546 c 0
 357 576 399 618 463 671 c 1
 444 701 407 731 355 762 c 0
 331 776 309 786 290 792 c 1
 317 855 366 917 437 979 c 0
 566 1092 711 1149 872 1149 c 0
 1017 1149 1124 1102 1191 1008 c 1
 1225.98 952.285 1243.34 885.657 1243.34 808.388 c 0
 1243.34 766.388 1238.21 721.244 1228 673 c 2
 1085 0 l 1
440 97 m 0
 471 97 499 112 524 143 c 0
 538 160 547 177 550 194 c 0
 551 198 551 198 552 201 c 0
 553.309 209.601 553.953 217.677 553.953 225.229 c 0
 553.953 258.068 541.765 280.992 519 294 c 0
 510 301 498 304 484 304 c 1
 447 301 421 286 406 257 c 1
 393 222 l 1
 391 215 389 206 387 196 c 0
 384.326 180.85 382.977 167.465 382.977 155.845 c 0
 382.977 128.347 390.535 110.732 406 103 c 0
 414 99 426 97 440 97 c 0
EndSplineSet
EndChar
StartChar: uni0E17
Encoding: 145 3607 147
OldEncoding: 3607
Width: 1350
Flags: HW
Fore
470 1042 m 0
 439 1042 411 1027 386 996 c 0
 372 979 363 962 360 945 c 2
 358 938 l 1
 356.936 929.84 356.406 922.152 356.406 914.93 c 0
 356.406 881.442 367.79 857.984 390 844 c 0
 400 838 412 835 426 835 c 1
 463 838 489 853 504 882 c 0
 513 897 519 917 524 943 c 1
 526.241 957.286 527.383 970.002 527.383 981.149 c 0
 527.383 1009.8 519.838 1028.08 504 1036 c 0
 496 1040 484 1042 470 1042 c 0
318 0 m 1
 481 770 l 1
 467 756 443 747 411 743 c 0
 407 742 403 742 399 742 c 2
 365 744 l 1
 331 749 304 765 282 792 c 0
 262.987 816.375 253.481 845.741 253.481 879.982 c 0
 253.481 915.978 263.987 957.363 285 1004 c 0
 306 1047 340 1084 390 1114 c 0
 428 1137 467 1149 509 1150 c 0
 513 1150 513 1150 518 1150 c 0
 572 1149 613 1131 643 1095 c 0
 665.29 1068.38 676.079 1030.63 676.079 982.249 c 0
 676.079 952.489 671.997 918.702 664 881 c 1
 534 263 l 1
 1024 990 l 1
 1075 1068 1139 1115 1215 1131 c 0
 1231 1134 1246 1136 1261 1136 c 0
 1280 1135 1299 1133 1315 1128 c 0
 1375 1110 1409 1067 1416 1000 c 0
 1416.78 992.943 1417.16 985.68 1417.16 978.213 c 0
 1417.16 957.112 1414.17 934.374 1409 910 c 2
 1216 0 l 5
 1056 0 l 1
 1209 719 l 1
 1231 824 l 1
 1232.2 832.6 1232.8 840.44 1232.8 847.536 c 0
 1232.8 875.92 1223.2 892.4 1204 898 c 1
 1183 900 l 1
 1152 897 1117 866 1078 808 c 1
 1070 796 l 1
 520 0 l 1
 318 0 l 1
EndSplineSet
EndChar
StartChar: uni0E18
Encoding: 146 3608 148
OldEncoding: 3608
Width: 1250
Flags: HW
Fore
966 480 m 2
 968 489 969 497 969 505 c 0
 969.128 507.356 969.193 509.686 969.193 511.99 c 0
 969.193 563.483 937.087 602.071 872 626 c 0
 869 627 845 635 798 648 c 0
 603 703 440 741 305 761 c 1
 333 828 374 893 427 956 c 0
 477 1015 539 1062 612 1098 c 0
 651 1117 693 1131 738 1139 c 0
 774 1145 813 1148 856 1148 c 0
 933 1148 1001 1133 1061 1102 c 0
 1111 1077 1169 1064 1236 1064 c 0
 1263 1064 1287 1066 1308 1071 c 1
 1236 916 l 1
 1215 913 l 2
 1164 911 l 1
 1101 913 1051 924 1014 943 c 0
 956 974 897 992 839 996 c 1
 783 996 l 1
 752 994 721 985 689 970 c 0
 639 945 600 912 572 871 c 1
 608 863 l 2
 855 812 1007 768 1064 729 c 0
 1073 722 1083 715 1090 708 c 1
 1113 683 l 1
 1132.11 657.295 1141.67 624.641 1141.67 585.035 c 0
 1141.67 564.55 1139.11 542.205 1134 518 c 2
 1091 314 l 2
 1065 195 1014 110 937 59 c 0
 866 13 761 -10 622 -10 c 0
 595 -10 569 -9 546 -6 c 0
 385.966 9.67343 306.23 85.2299 306.23 220.108 c 0
 306.23 248.735 309.822 280.034 317 314 c 2
 388 650 l 1
 548 650 l 1
 477 314 l 2
 474.35 302.075 473.034 290.782 473.034 280.102 c 0
 473.034 250.481 483.155 225.58 503 205 c 0
 535 170 586 152 656 150 c 0
 664 150 l 0
 700 150 736 155 772 166 c 0
 863 192 915 241 931 314 c 2
 966 480 l 2
EndSplineSet
EndChar
StartChar: uni0E19
Encoding: 147 3609 149
OldEncoding: 3609
Width: 1400
Flags: HW
Fore
517 1042 m 0
 486 1042 458 1027 433 996 c 0
 419 979 410 962 407 945 c 2
 405 938 l 1
 403.936 929.84 403.406 922.152 403.406 914.93 c 0
 403.406 881.442 414.79 857.984 437 844 c 0
 447 838 459 835 473 835 c 1
 510 838 536 853 551 882 c 0
 560 897 566 917 571 943 c 1
 573.241 957.286 574.383 970.002 574.383 981.149 c 0
 574.383 1009.8 566.838 1028.08 551 1036 c 1
 529 1041 l 2
 525 1042 521 1042 517 1042 c 0
418 256 m 2
 528 770 l 1
 514 756 490 747 458 743 c 0
 454 742 450 742 446 742 c 2
 412 744 l 1
 378 749 351 765 329 792 c 0
 309.987 816.375 300.481 845.741 300.481 879.982 c 0
 300.481 915.978 310.988 957.363 332 1004 c 0
 353 1047 387 1084 437 1114 c 0
 475 1137 514 1149 556 1150 c 0
 560 1150 560 1150 565 1150 c 0
 619 1149 660 1131 690 1095 c 0
 712.29 1068.38 723.079 1030.63 723.079 982.249 c 0
 723.079 952.489 718.997 918.702 711 881 c 2
 578 256 l 2
 573.615 234.075 571.296 215.488 571.296 200.237 c 0
 571.296 177.23 576.574 161.818 588 154 c 0
 594 149 602 147 613 147 c 0
 676 148 820 229 1045 391 c 0
 1064 404 1064 404 1071 409 c 1
 1226 1139 l 1
 1386 1139 l 1
 1245 475 l 1
 1310 474 1357 446 1384 391 c 0
 1395.98 366.45 1401.86 337.239 1401.86 303.367 c 0
 1401.86 280.671 1399.22 255.882 1394 229 c 1
 1379 169 l 1
 1365 128 1345 93 1318 66 c 0
 1276 22 1227 -3 1173 -8 c 0
 1163 -9 1152 -10 1141 -10 c 0
 1079 -10 1040 18 1024 75 c 0
 1019.82 89.6417 1018.06 105.742 1018.06 122.961 c 0
 1018.06 130.439 1018.39 138.128 1019 146 c 1
 1037 243 l 1
 864 125 l 1
 730 39 625 -4 547 -5 c 0
 522 -5 499 0 478 9 c 0
 468 13 459 18 449 25 c 0
 417.891 49.3039 400.958 84.949 400.958 131.935 c 0
 400.958 133.281 400.972 134.636 401 136 c 0
 402 164 407 204 418 256 c 2
1205 328 m 1
 1178 200 l 2
 1170.98 168.432 1167.81 147.629 1167.81 136.917 c 0
 1167.81 135.413 1167.88 134.108 1168 133 c 0
 1171 113 1183 103 1205 103 c 0
 1227 103 1247 121 1264 156 c 0
 1271 171 1277 186 1280 202 c 0
 1282.31 213.548 1283.45 224.512 1283.45 234.893 c 0
 1283.45 260.47 1276.51 282.506 1263 301 c 0
 1249 319 1230 328 1205 328 c 1
EndSplineSet
EndChar
StartChar: uni0E1A
Encoding: 148 3610 150
OldEncoding: 3610
Width: 1300
Flags: HW
Fore
481 1042 m 0
 450 1042 422 1027 397 996 c 0
 383 979 374 962 371 945 c 2
 369 938 l 1
 367.936 929.84 367.406 922.152 367.406 914.93 c 0
 367.406 881.442 378.79 857.984 401 844 c 0
 411 838 423 835 437 835 c 1
 474 838 500 853 515 882 c 0
 524 897 530 917 535 943 c 1
 537.241 957.286 538.383 970.002 538.383 981.149 c 0
 538.383 1009.8 530.838 1028.08 515 1036 c 1
 493 1041 l 2
 489 1042 485 1042 481 1042 c 0
560 339 m 2
 556.049 320.751 554.081 303.812 554.081 288.189 c 0
 554.081 220.769 590.744 177.861 663 160 c 0
 689 154 719 151 755 150 c 1
 821 152 l 1
 946 164 1024 216 1056 308 c 0
 1060 318 1063 328 1065 339 c 2
 1235 1139 l 1
 1395 1139 l 5
 1211 273 l 2
 1183 142 1102 57 968 18 c 0
 903 -1 819 -10 716 -10 c 0
 563 -10 461 27 410 101 c 0
 389.109 131.326 378.663 167.556 378.663 209.078 c 0
 378.663 229.17 381.109 250.5 386 273 c 2
 492 770 l 1
 478 756 454 747 422 743 c 0
 418 742 414 742 410 742 c 2
 376 744 l 1
 342 749 315 765 293 792 c 0
 273.987 816.375 264.481 845.741 264.481 879.982 c 0
 264.481 915.978 274.988 957.363 296 1004 c 0
 317 1047 351 1084 401 1114 c 0
 439 1137 478 1149 520 1150 c 0
 524 1150 524 1150 529 1150 c 0
 583 1149 624 1131 654 1095 c 0
 676.29 1068.38 687.079 1030.63 687.079 982.249 c 0
 687.079 952.489 682.997 918.702 675 881 c 2
 560 339 l 2
EndSplineSet
EndChar
StartChar: uni0E1B
Encoding: 149 3611 151
OldEncoding: 3611
Width: 1300
Flags: HW
AnchorPoint: "AboveBase" 1180.81 1227 basechar 0
Fore
488 1042 m 0
 457 1042 429 1027 404 996 c 0
 390 979 381 962 378 945 c 2
 376 938 l 1
 374.936 929.84 374.406 922.152 374.406 914.93 c 0
 374.406 881.442 385.79 857.984 408 844 c 0
 418 838 430 835 444 835 c 1
 481 838 507 853 522 882 c 0
 531 897 537 917 542 943 c 1
 544.241 957.286 545.383 970.002 545.383 981.149 c 0
 545.383 1009.8 537.838 1028.08 522 1036 c 1
 500 1041 l 2
 496 1042 492 1042 488 1042 c 0
567 339 m 2
 563.049 320.751 561.081 303.812 561.081 288.189 c 0
 561.081 220.769 597.744 177.861 670 160 c 0
 696 154 726 151 762 150 c 1
 828 152 l 1
 953 164 1031 216 1063 308 c 0
 1067 318 1070 328 1072 339 c 2
 1315 1480 l 1
 1475 1480 l 1
 1218 273 l 2
 1190 142 1109 57 975 18 c 0
 910 -1 826 -10 723 -10 c 0
 570 -10 468 27 417 101 c 0
 396.109 131.326 385.663 167.556 385.663 209.078 c 0
 385.663 229.17 388.109 250.5 393 273 c 2
 499 770 l 1
 485 756 461 747 429 743 c 0
 425 742 421 742 417 742 c 2
 383 744 l 1
 349 749 322 765 300 792 c 0
 280.987 816.375 271.481 845.741 271.481 879.982 c 0
 271.481 915.978 281.988 957.363 303 1004 c 0
 324 1047 358 1084 408 1114 c 0
 446 1137 485 1149 527 1150 c 0
 531 1150 531 1150 536 1150 c 0
 590 1149 631 1131 661 1095 c 0
 683.29 1068.38 694.079 1030.63 694.079 982.249 c 0
 694.079 952.489 689.997 918.702 682 881 c 2
 567 339 l 2
EndSplineSet
EndChar
StartChar: uni0E1C
Encoding: 150 3612 152
OldEncoding: 3612
Width: 1200
Flags: HW
Fore
583 1042 m 0
 548 1042 523 1027 508 998 c 0
 500 985 494 966 488 943 c 0
 484.219 924.781 482.328 909.044 482.328 895.707 c 0
 482.328 870.245 489.219 853.531 503 845 c 0
 512 840 524 836 539 835 c 1
 577 835 609 855 633 895 c 0
 641 908 647 923 651 938 c 1
 655 963 l 1
 654 994 643 1016 619 1031 c 0
 609 1038 596 1042 583 1042 c 0
187 248 m 2
 321 881 l 2
 342 980 380 1052 434 1095 c 0
 478 1131 527 1149 581 1150 c 1
 626 1147 l 1
 651 1142 673 1131 695 1114 c 0
 731 1084 751 1047 752 1004 c 0
 752.141 999.734 752.211 995.513 752.211 991.335 c 0
 752.211 906.39 723.141 839.656 665 792 c 0
 623 758 581 741 536 741 c 0
 533 741 531 741 528 742 c 0
 495 743 471 753 458 770 c 1
 347 248 l 2
 345.354 240.71 344.537 233.64 344.537 226.792 c 0
 344.537 204.522 353.174 184.591 370 167 c 0
 386 150 404 142 425 142 c 0
 464 142 499 158 528 189 c 0
 545 207 555 227 560 248 c 2
 655 698 l 1
 815 698 l 1
 720 248 l 2
 718.631 241.548 717.951 235.326 717.951 229.318 c 0
 717.951 204.596 729.474 183.503 752 165 c 0
 771 150 792 142 817 142 c 0
 851 142 881 159 907 193 c 0
 920 210 929 229 933 248 c 2
 1122 1139 l 1
 1282 1139 l 1
 1093 248 l 2
 1072 151 1028 79 961 32 c 0
 920 3 874 -11 822 -12 c 1
 753 -9 l 1
 692 -2 646 20 616 59 c 0
 613 62 611 66 609 69 c 1
 566 24 509 -2 436 -9 c 1
 375 -12 l 1
 325 -9 l 1
 230 5 181 60 177 157 c 0
 176.898 159.858 176.848 162.738 176.848 165.639 c 0
 176.848 191.156 180.715 218.369 187 248 c 2
EndSplineSet
EndChar
StartChar: uni0E1D
Encoding: 151 3613 153
OldEncoding: 3613
Width: 1200
Flags: HW
AnchorPoint: "AboveBase" 1059.81 1227 basechar 0
Fore
582 1042 m 0
 547 1042 522 1027 507 998 c 0
 499 985 493 966 487 943 c 0
 483.219 924.781 481.328 909.044 481.328 895.707 c 0
 481.328 870.245 488.219 853.531 502 845 c 0
 511 840 523 836 538 835 c 1
 576 835 608 855 632 895 c 0
 640 908 646 923 650 938 c 1
 654 963 l 1
 653 994 642 1016 618 1031 c 0
 608 1038 595 1042 582 1042 c 0
186 248 m 2
 320 881 l 2
 341 980 379 1052 433 1095 c 0
 477 1131 526 1149 580 1150 c 1
 625 1147 l 1
 650 1142 672 1131 694 1114 c 0
 730 1084 750 1047 751 1004 c 0
 751.141 999.734 751.211 995.513 751.211 991.335 c 0
 751.211 906.39 722.141 839.656 664 792 c 0
 622 758 580 741 535 741 c 0
 532 741 530 741 527 742 c 0
 494 743 470 753 457 770 c 1
 346 248 l 2
 344.354 240.71 343.537 233.64 343.537 226.792 c 0
 343.537 204.522 352.174 184.591 369 167 c 0
 385 150 403 142 424 142 c 0
 463 142 498 158 527 189 c 0
 544 207 554 227 559 248 c 2
 654 698 l 1
 814 698 l 1
 719 248 l 2
 717.631 241.548 716.951 235.326 716.951 229.318 c 0
 716.951 204.596 728.474 183.503 751 165 c 0
 770 150 791 142 816 142 c 0
 850 142 880 159 906 193 c 0
 919 210 928 229 932 248 c 2
 1194 1480 l 1
 1354 1480 l 1
 1092 248 l 2
 1071 151 1027 79 960 32 c 0
 919 3 873 -11 821 -12 c 1
 752 -9 l 1
 691 -2 645 20 615 59 c 0
 612 62 610 66 608 69 c 1
 565 24 508 -2 435 -9 c 1
 374 -12 l 1
 324 -9 l 1
 229 5 180 60 176 157 c 0
 175.898 159.858 175.848 162.738 175.848 165.639 c 0
 175.848 191.156 179.715 218.369 186 248 c 2
EndSplineSet
EndChar
StartChar: uni0E1E
Encoding: 152 3614 154
OldEncoding: 3614
Width: 1350
Flags: HW
Fore
354 248 m 2
 466 776 l 1
 442 757 414 747 383 747 c 0
 345 747 313 763 288 795 c 0
 268.488 818.902 258.732 847.802 258.732 881.698 c 0
 258.732 917.29 269.488 958.39 291 1005 c 0
 311 1049 346 1086 394 1116 c 0
 423 1133 450 1144 477 1148 c 1
 522 1151 l 1
 561 1150 598 1132 629 1097 c 0
 650.421 1072.62 660.929 1036.25 660.929 988.269 c 0
 660.929 971.292 659.614 952.863 657 933 c 0
 653 910 647 877 638 835 c 2
 514 248 l 2
 512.354 240.71 511.537 233.64 511.537 226.792 c 0
 511.537 204.522 520.174 184.591 537 167 c 0
 553 150 571 142 592 142 c 0
 631 142 666 158 695 189 c 0
 712 207 722 227 727 248 c 2
 895 1039 l 1
 1055 1039 l 1
 887 248 l 2
 885.631 241.548 884.951 235.326 884.951 229.318 c 0
 884.951 204.596 896.474 183.503 919 165 c 0
 938 150 959 142 984 142 c 0
 1018 142 1048 159 1074 193 c 0
 1087 210 1096 229 1100 248 c 2
 1289 1139 l 1
 1449 1139 l 1
 1260 248 l 2
 1239 151 1195 79 1128 32 c 1
 1095 12 l 1
 1058 -2 l 1
 1017 -10 l 2
 1008 -11 998 -12 989 -12 c 2
 920 -9 l 1
 859 -2 813 20 783 59 c 0
 780 62 778 66 776 69 c 1
 733 24 676 -2 603 -9 c 1
 542 -12 l 1
 492 -9 l 1
 397 5 348 60 344 157 c 0
 343.898 159.858 343.848 162.738 343.848 165.639 c 0
 343.848 191.156 347.715 218.369 354 248 c 2
468 1043 m 0
 441 1043 417 1029 394 1000 c 1
 378 976 l 1
 370 949 l 1
 369 946 369 946 369 944 c 0
 367.775 935.629 367.175 927.8 367.175 920.496 c 0
 367.175 892.025 376.288 871.529 393 858 c 0
 402 851 413 847 426 847 c 0
 469 850 496 879 508 936 c 0
 511 950 l 0
 514.116 964.86 515.681 977.939 515.681 989.238 c 0
 515.681 1025.08 499.934 1043 468 1043 c 0
EndSplineSet
EndChar
StartChar: uni0E1F
Encoding: 153 3615 155
OldEncoding: 3615
Width: 1450
Flags: HW
AnchorPoint: "AboveBase" 1291.81 1227 basechar 0
Fore
418 248 m 2
 530 776 l 1
 506 757 478 747 447 747 c 0
 409 747 377 763 352 795 c 0
 332.488 818.902 322.732 847.802 322.732 881.698 c 0
 322.732 917.29 333.488 958.39 355 1005 c 0
 375 1049 410 1086 458 1116 c 0
 487 1133 514 1144 541 1148 c 1
 586 1151 l 1
 625 1150 662 1132 693 1097 c 0
 714.421 1072.62 724.929 1036.25 724.929 988.269 c 0
 724.929 971.292 723.614 952.863 721 933 c 0
 717 910 711 877 702 835 c 2
 578 248 l 2
 576.354 240.71 575.537 233.64 575.537 226.792 c 0
 575.537 204.522 584.174 184.591 601 167 c 0
 617 150 635 142 656 142 c 0
 695 142 730 158 759 189 c 0
 776 207 786 227 791 248 c 2
 959 1039 l 1
 1119 1039 l 1
 951 248 l 2
 949.631 241.548 948.951 235.326 948.951 229.318 c 0
 948.951 204.596 960.474 183.503 983 165 c 0
 1002 150 1023 142 1048 142 c 0
 1082 142 1112 159 1138 193 c 0
 1151 210 1160 229 1164 248 c 2
 1426 1480 l 5
 1586 1480 l 1
 1324 248 l 2
 1303 151 1259 79 1192 32 c 1
 1159 12 l 1
 1122 -2 l 1
 1081 -10 l 2
 1072 -11 1062 -12 1053 -12 c 2
 984 -9 l 1
 923 -2 877 20 847 59 c 0
 844 62 842 66 840 69 c 1
 797 24 740 -2 667 -9 c 1
 606 -12 l 1
 556 -9 l 1
 461 5 412 60 408 157 c 0
 407.898 159.858 407.848 162.738 407.848 165.639 c 0
 407.848 191.156 411.715 218.369 418 248 c 2
532 1043 m 0
 505 1043 481 1029 458 1000 c 1
 442 976 l 1
 434 949 l 1
 433 946 433 946 433 944 c 0
 431.775 935.629 431.175 927.8 431.175 920.496 c 0
 431.175 892.025 440.288 871.529 457 858 c 0
 466 851 477 847 490 847 c 0
 533 850 560 879 572 936 c 0
 575 950 l 0
 578.116 964.86 579.681 977.939 579.681 989.238 c 0
 579.681 1025.08 563.934 1043 532 1043 c 0
EndSplineSet
EndChar
StartChar: uni0E20
Encoding: 154 3616 156
OldEncoding: 3616
Width: 1350
Flags: HW
Fore
271 97 m 0
 306 97 331 112 346 141 c 0
 354 154 360 173 366 196 c 0
 369.781 214.219 371.672 229.956 371.672 243.293 c 0
 371.672 268.755 364.781 285.469 351 294 c 0
 343 299 330 303 315 304 c 1
 277 304 245 284 221 244 c 0
 213 231 207 216 203 201 c 1
 199 176 l 1
 200 145 211 123 235 108 c 0
 245 101 258 97 271 97 c 0
564 403 m 2
 533 258 l 2
 512 159 475 88 420 44 c 0
 376 8 327 -10 273 -11 c 1
 228 -8 l 1
 203 -3 181 8 159 25 c 0
 123 55 104 92 102 135 c 0
 101.859 139.266 101.789 143.487 101.789 147.665 c 0
 101.789 232.61 130.859 299.344 189 347 c 0
 231 381 274 398 319 398 c 0
 322 398 324 398 326 397 c 0
 359 396 383 386 396 369 c 1
 401 392 407 417 413 446 c 128
 420 475 436 508 463 546 c 0
 484 576 526 618 590 671 c 1
 571 701 534 731 482 762 c 0
 458 776 436 786 417 792 c 1
 444 855 493 917 564 979 c 0
 693 1092 838 1149 999 1149 c 0
 1144 1149 1251 1102 1318 1008 c 1
 1352.98 952.285 1370.34 885.657 1370.34 808.388 c 0
 1370.34 766.388 1365.21 721.244 1355 673 c 2
 1212 0 l 1
 1052 0 l 1
 1192 657 l 2
 1201.68 702.76 1206.52 743.293 1206.52 778.513 c 0
 1206.52 823.339 1198.68 859.56 1183 887 c 0
 1173 903 1162 917 1148 930 c 0
 1118 956 1073 974 1013 985 c 0
 996 988 980 989 965 989 c 0
 867 989 772 957 681 892 c 0
 652 872 627 850 602 825 c 1
 630 818 663 794 701 755 c 0
 736 720 754 689 757 663 c 1
 700 614 662 581 647 563 c 0
 613 526 590 491 578 458 c 0
 573 443 568 424 564 403 c 2
EndSplineSet
EndChar
StartChar: uni0E21
Encoding: 155 3617 157
OldEncoding: 3617
Width: 1350
Flags: HW
Fore
524 1042 m 0
 493 1042 465 1027 440 996 c 0
 426 979 417 962 414 945 c 2
 412 938 l 1
 410.936 929.84 410.406 922.152 410.406 914.93 c 0
 410.406 881.442 421.79 857.984 444 844 c 0
 454 838 466 835 480 835 c 1
 517 838 543 853 558 882 c 0
 567 897 573 917 578 943 c 1
 580.241 957.286 581.383 970.002 581.383 981.149 c 0
 581.383 1009.8 573.838 1028.08 558 1036 c 0
 550 1040 538 1042 524 1042 c 0
466 446 m 1
 535 770 l 1
 525 759 506 749 478 742 c 0
 471 741 463 740 457 739 c 1
 424 741 l 1
 388 748 359 765 336 792 c 0
 316.987 816.375 307.481 845.741 307.481 879.982 c 0
 307.481 915.978 317.988 957.363 339 1004 c 0
 360 1047 394 1084 444 1114 c 0
 482 1137 521 1149 563 1150 c 0
 567 1150 567 1150 572 1150 c 0
 626 1149 667 1131 697 1095 c 0
 719.29 1068.38 730.079 1030.63 730.079 982.249 c 0
 730.079 952.489 725.997 918.702 718 881 c 2
 618 409 l 1
 725 301 l 1
 833 198 913 147 964 147 c 0
 975 147 985 149 993 154 c 0
 1016 167 1034 201 1045 256 c 2
 1233 1139 l 1
 1393 1139 l 1
 1205 256 l 2
 1187 169 1164 108 1137 74 c 0
 1121 55 1100 39 1076 25 c 0
 1041 5 1005 -5 966 -5 c 0
 903 -5 834 23 760 79 c 0
 737 97 711 119 684 144 c 1
 582 243 l 1
 558 146 l 1
 535 78 497 31 443 6 c 0
 420 -5 395 -10 370 -10 c 0
 323 -10 284 4 255 32 c 0
 250 35 247 39 244 43 c 0
 220.401 75.1809 208.052 111.964 208.052 153.351 c 0
 208.052 169.837 210.012 187.053 214 205 c 0
 227 267 253 319 291 362 c 0
 342 417 401 445 466 446 c 1
450 328 m 1
 410 328 376 307 348 264 c 0
 335 244 325 223 321 202 c 0
 318.137 188.045 316.683 175.243 316.683 163.684 c 0
 316.683 142.939 321.367 126.201 331 114 c 0
 337 107 345 103 354 103 c 0
 385 103 405 124 415 166 c 1
 423 200 l 1
 450 328 l 1
EndSplineSet
EndChar
StartChar: uni0E22
Encoding: 156 3618 158
OldEncoding: 3618
Width: 1200
Flags: HW
Fore
638 1046 m 0
 603 1046 578 1031 563 1002 c 0
 555 989 549 970 543 947 c 0
 539.177 928.581 537.287 912.699 537.287 899.268 c 0
 537.287 874.053 543.951 857.482 557 849 c 0
 566 844 579 840 594 839 c 1
 633 839 665 859 688 899 c 0
 696 912 702 927 706 942 c 1
 710 967 l 1
 710 998 698 1020 674 1035 c 0
 663 1042 651 1046 638 1046 c 0
315 451 m 0
 346 493 398 530 469 562 c 1
 439 568 409 587 380 620 c 0
 359.31 642.223 349.189 677.953 349.189 727.638 c 0
 349.189 742.79 350.13 759.24 352 777 c 0
 354 795 357 813 361 831 c 0
 376 905 390 956 403 983 c 0
 423 1024 452 1060 493 1093 c 0
 533 1126 580 1144 635 1149 c 1
 680 1149 l 1
 727 1145 764 1122 792 1080 c 0
 794 1076 794 1076 797 1071 c 0
 810.258 1047.64 817.139 1019.9 817.139 987.516 c 0
 817.139 968.608 814.793 948.12 810 926 c 0
 799 873 772 830 732 795 c 0
 691 761 643 744 589 743 c 1
 552 746 l 1
 532 751 515 759 503 770 c 1
 499 741 l 1
 498.816 738.798 498.734 736.63 498.734 734.495 c 0
 498.734 724.997 500.367 716.165 502 708 c 0
 509 687 521 671 538 660 c 0
 573 637 617 624 669 620 c 0
 692 619 720 618 755 618 c 1
 731 505 l 1
 634 505 566 497 525 481 c 0
 468 458 433 413 419 347 c 0
 415 327.6 413 309.68 413 293.224 c 0
 413 227.4 445 185 509 165 c 0
 543 155 588 150 644 150 c 0
 650 150 l 0
 743 151 811 165 852 192 c 0
 895 221 924 270 939 341 c 2
 1109 1139 l 1
 1269 1139 l 1
 1084 269 l 2
 1058 144 984 61 864 22 c 0
 798 1 715 -10 612 -10 c 0
 454 -10 349 19 299 78 c 0
 268.917 112.042 253.875 157.991 253.875 215.849 c 0
 253.875 231.075 254.917 247.125 257 264 c 1
 273 349 l 1
 285 396 299 430 315 451 c 0
EndSplineSet
EndChar
StartChar: uni0E23
Encoding: 157 3619 159
OldEncoding: 3619
Width: 1100
Flags: HW
Fore
947 303 m 2
 927 207 907 142 887 109 c 0
 873 84 852 61 827 42 c 0
 781 7 739 -10 699 -11 c 1
 655 -8 l 2
 653 -8 l 0
 609 -1 574 23 549 64 c 0
 533.886 87.3005 526.704 115.36 526.704 148.178 c 0
 526.704 167.474 529.187 188.414 534 211 c 0
 546 266 572 310 614 344 c 0
 652.552 375.879 690.554 391.819 728.006 391.819 c 0
 741.071 391.819 754.069 389.879 767 386 c 0
 781 381 792 374 800 363 c 1
 835 529 l 2
 837.112 538.681 838.171 547.959 838.171 556.84 c 0
 838.171 598.414 814.967 631.28 768 656 c 1
 667 692 500 727 266 762 c 1
 294 829 335 894 388 957 c 0
 438 1016 500 1063 574 1099 c 0
 642 1132 722 1149 817 1149 c 0
 894 1149 962 1134 1022 1103 c 0
 1072 1078 1131 1065 1198 1065 c 0
 1224 1065 1248 1067 1269 1072 c 1
 1197 917 l 1
 1182.92 913.686 1167.46 911.745 1149.5 911.745 c 0
 1145.77 911.745 1141.95 911.828 1138 912 c 0
 1076 912 1024 922 982 941 c 0
 979 942 977 943 976 944 c 0
 908 980 840 998 773 998 c 0
 763 998 753 998 744 997 c 0
 684 993 628 967 574 918 c 0
 558 903 544 887 533 872 c 1
 667 849 l 1
 785 821 872 786 930 745 c 0
 982.155 708.017 1008.23 663.841 1008.23 611.618 c 0
 1008.23 608.769 1008.16 605.897 1008 603 c 0
 1008 594 1007 584 1005 574 c 2
 1005 573 l 1
 947 303 l 2
781 189 m 0
 784.629 205.694 786.444 220.397 786.444 233.096 c 0
 786.444 272.887 768.629 293 733 293 c 0
 697 293 668 274 645 235 c 0
 637 222 631 208 627 193 c 1
 623 166 l 1
 624 135 636 113 658 99 c 0
 666 94 676 92 685 92 c 0
 732 92 762 119 777 173 c 0
 779 178 780 184 781 189 c 0
EndSplineSet
EndChar
StartChar: uni0E24
Encoding: 158 3620 160
OldEncoding: 3620
Width: 1240
Flags: HW
Fore
1004 -380 m 1
 844 -380 l 1
 1065 657 l 2
 1074.68 702.76 1079.52 743.293 1079.52 778.513 c 0
 1079.52 823.339 1071.68 859.56 1056 887 c 0
 1046 903 1034 917 1020 930 c 0
 990 956 946 974 886 985 c 0
 869 988 853 989 838 989 c 0
 740 989 645 957 554 892 c 0
 525 872 500 850 475 825 c 1
 503 818 536 794 574 755 c 0
 609 720 627 689 630 663 c 1
 573 614 535 581 520 563 c 0
 486 526 463 491 452 459 c 0
 446 444 441 425 437 403 c 2
 429 369 l 1
 444 383 468 392 500 396 c 0
 503 397 507 397 511 397 c 2
 546 395 l 1
 579 390 606 374 628 347 c 0
 647.013 322.625 656.519 293.259 656.519 259.019 c 0
 656.519 223.022 646.013 181.638 625 135 c 1
 605 92 570 56 520 25 c 0
 482 2 443 -10 401 -11 c 2
 392 -11 l 2
 338 -10 297 8 267 44 c 0
 244.71 70.6242 233.921 108.366 233.921 156.751 c 0
 233.921 186.511 238.003 220.298 246 258 c 2
 277 403 l 2
 289 460 309 507 336 546 c 0
 357 576 399 618 463 671 c 1
 444 701 407 731 355 762 c 0
 331 776 309 786 290 792 c 1
 317 855 366 917 437 979 c 0
 566 1092 711 1149 872 1149 c 0
 1017 1149 1124 1102 1191 1008 c 1
 1225.98 952.285 1243.34 885.657 1243.34 808.388 c 0
 1243.34 766.388 1238.21 721.244 1228 673 c 2
 1004 -380 l 1
440 97 m 0
 471 97 499 112 524 143 c 0
 538 160 547 177 550 194 c 0
 551 198 551 198 552 201 c 0
 553.309 209.601 553.953 217.677 553.953 225.229 c 0
 553.953 258.068 541.765 280.992 519 294 c 0
 510 301 498 304 484 304 c 1
 447 301 421 286 406 257 c 1
 393 222 l 1
 391 215 389 206 387 196 c 0
 384.326 180.85 382.977 167.465 382.977 155.845 c 0
 382.977 128.347 390.535 110.732 406 103 c 0
 414 99 426 97 440 97 c 0
EndSplineSet
EndChar
StartChar: uni0E25
Encoding: 159 3621 161
OldEncoding: 3621
Width: 1255
Flags: HW
Fore
313 435 m 2
 331 516 371 579 436 624 c 0
 457 639 482 654 512 668 c 0
 583 703 663 720 750 720 c 0
 831 720 904 706 970 677 c 0
 1016 658 1044 635 1053 609 c 1
 1076 714 l 2
 1083.01 748.217 1086.62 778.185 1086.62 803.905 c 0
 1086.62 840.573 1079.28 868.604 1064 888 c 1
 1023 939 960 971 877 984 c 0
 856 987 834 989 811 989 c 0
 720 989 635 962 556 909 c 0
 525 887 497 862 474 835 c 1
 354 929 l 1
 408 996 484 1050 582 1092 c 0
 670 1130 757 1149 842 1149 c 0
 1031 1149 1156 1096 1214 990 c 0
 1238 947.545 1249.88 896.383 1249.88 836.28 c 0
 1249.88 798.701 1245.23 757.626 1236 713 c 2
 1084 0 l 1
 924 0 l 1
 980 263 l 2
 985.984 291.177 988.984 317.488 988.984 341.919 c 0
 988.984 415.465 961.797 471.966 907 511 c 0
 861 544 798 560 720 560 c 0
 611 560 536 530 494 471 c 0
 481 453 473 432 468 407 c 2
 459 369 l 1
 473 383 497 392 530 396 c 0
 534 397 538 397 541 397 c 2
 576 395 l 1
 609 390 636 374 658 347 c 0
 677.013 322.625 686.519 293.259 686.519 259.019 c 0
 686.519 223.022 676.013 181.638 655 135 c 0
 635 92 600 56 550 25 c 0
 512 2 473 -10 431 -11 c 2
 422 -11 l 2
 368 -10 327 8 297 44 c 0
 274.71 70.6242 263.921 108.366 263.921 156.751 c 0
 263.921 186.511 268.003 220.298 276 258 c 2
 313 435 l 2
470 97 m 0
 501 97 529 112 554 143 c 0
 568 160 577 177 580 194 c 0
 581 198 581 198 582 201 c 0
 583.309 209.601 583.953 217.677 583.953 225.229 c 0
 583.953 258.068 571.765 280.992 549 294 c 0
 540 301 528 304 514 304 c 1
 477 301 452 286 437 257 c 1
 423 222 l 1
 421 215 419 206 417 196 c 0
 414.326 180.85 412.977 167.465 412.977 155.845 c 0
 412.977 128.347 420.535 110.732 436 103 c 0
 444 99 456 97 470 97 c 0
EndSplineSet
EndChar
StartChar: uni0E26
Encoding: 160 3622 162
OldEncoding: 3622
Width: 1350
Flags: HW
Fore
271 97 m 0
 306 97 331 112 346 141 c 0
 354 154 360 173 366 196 c 0
 369.781 214.219 371.672 229.956 371.672 243.293 c 0
 371.672 268.755 364.781 285.469 351 294 c 0
 343 299 330 303 315 304 c 1
 277 304 245 284 221 244 c 0
 213 231 207 216 203 201 c 1
 199 176 l 1
 200 145 211 123 235 108 c 0
 245 101 258 97 271 97 c 0
564 403 m 2
 533 258 l 2
 512 159 475 88 420 44 c 0
 376 8 327 -10 273 -11 c 1
 228 -8 l 1
 203 -3 181 8 159 25 c 0
 123 55 104 92 102 135 c 0
 101.859 139.266 101.789 143.487 101.789 147.665 c 0
 101.789 232.61 130.859 299.344 189 347 c 0
 231 381 274 398 319 398 c 0
 322 398 324 398 326 397 c 0
 359 396 383 386 396 369 c 1
 404 403 l 1
 417 460 436 508 463 546 c 0
 484 576 526 618 590 671 c 1
 571 701 534 731 482 762 c 0
 458 776 436 786 417 792 c 1
 444 855 493 917 564 979 c 0
 693 1092 838 1149 999 1149 c 0
 1144 1149 1251 1102 1318 1008 c 1
 1352.98 952.285 1370.34 885.657 1370.34 808.388 c 0
 1370.34 766.388 1365.21 721.244 1355 673 c 2
 1131 -380 l 1
 971 -380 l 1
 1192 657 l 2
 1201.68 702.76 1206.52 743.293 1206.52 778.513 c 0
 1206.52 823.339 1198.68 859.56 1183 887 c 0
 1173 903 1162 917 1148 930 c 0
 1118 956 1073 974 1013 985 c 0
 996 988 980 989 965 989 c 0
 867 989 772 957 681 892 c 0
 652 872 627 850 602 825 c 1
 630 818 663 794 701 755 c 0
 736 720 754 689 757 663 c 1
 700 614 662 581 647 563 c 0
 613 526 590 491 578 458 c 0
 573 443 568 424 564 403 c 2
EndSplineSet
EndChar
StartChar: uni0E27
Encoding: 161 3623 163
OldEncoding: 3623
Width: 1150
Flags: HW
Fore
786 97 m 0
 821 97 846 112 861 141 c 0
 869 154 875 173 881 196 c 0
 884.781 214.219 886.672 229.956 886.672 243.293 c 0
 886.672 268.755 879.781 285.469 866 294 c 0
 858 299 845 303 830 304 c 1
 792 304 760 284 736 244 c 0
 728 231 722 216 718 201 c 1
 714 176 l 1
 715 145 726 123 750 108 c 0
 760 101 773 97 786 97 c 0
1146 714 m 2
 1049 258 l 2
 1028 159 990 88 935 44 c 0
 891 8 842 -10 788 -11 c 1
 743 -8 l 1
 718 -3 696 8 674 25 c 0
 638 55 619 92 617 135 c 0
 616.859 139.266 616.789 143.487 616.789 147.665 c 0
 616.789 232.61 645.859 299.344 704 347 c 0
 746 381 789 398 834 398 c 0
 837 398 839 398 841 397 c 0
 875 396 899 386 912 369 c 1
 986 715 986 715 998 773 c 128
 1000.58 784.169 1001.84 795.091 1001.84 805.815 c 0
 1001.84 832.537 993.986 858.023 979 883 c 1
 968 897 l 0
 915 958 833 989 722 989 c 0
 613 989 510 948 412 866 c 0
 401 857 391 848 380 838 c 1
 265 929 l 1
 321 996 397 1051 495 1093 c 0
 582 1130 669 1149 754 1149 c 0
 867 1149 967 1119 1053 1059 c 0
 1115 1016 1151 960 1159 891 c 1
 1161 839 l 1
 1161 803 1156 761 1146 714 c 2
EndSplineSet
EndChar
StartChar: uni0E28
Encoding: 162 3624 164
OldEncoding: 3624
Width: 1300
Flags: HW
Fore
852 630 m 0
 843 638 830 642 815 642 c 0
 779 642 746 624 715 588 c 1
 708 579 l 2
 697 564 690 549 685 533 c 0
 683.903 526.417 683.107 520.135 683.107 513.989 c 0
 683.107 508.931 683.646 503.966 685 499 c 0
 688 480 698 464 713 453 c 0
 723 446 734 443 747 443 c 0
 758 443 771 445 783 450 c 0
 815 463 842 488 862 523 c 0
 867 532 871 543 873 554 c 0
 874.75 562.25 875.625 570.062 875.625 577.406 c 0
 875.625 599.438 867.75 617.25 852 630 c 0
1161 1059 m 1
 1217 1093 1271 1148 1322 1224 c 1
 1540 1224 l 1
 1479 1108 1387 1011 1264 934 c 1
 1278.78 898.641 1286.31 855.762 1286.31 805.215 c 0
 1286.31 759.985 1280.28 708.615 1268 651 c 2
 1130 0 l 1
 970 0 l 1
 1119 702 l 2
 1122.27 717.108 1123.87 732.55 1123.87 748.326 c 0
 1123.87 771.184 1120.51 794.742 1114 819 c 0
 1113 826 1111 832 1109 837 c 0
 1093 878 1057 915 1005 948 c 0
 960 975 901 989 826 989 c 0
 759 989 696 976 639 950 c 1
 589 929 541 895 497 850 c 1
 482 836 470 822 460 808 c 0
 432 768 411 714 396 646 c 0
 388.328 609.343 383.562 574.14 383.562 541.63 c 0
 383.562 536.004 383.705 530.458 384 525 c 1
 369 256 l 1
 416 375 468 476 526 559 c 0
 543 584 560 605 575 621 c 0
 622 671 674 707 732 730 c 0
 741 733 749 736 757 738 c 0
 775 743 796 746 817 746 c 0
 864 746 900 733 925 708 c 0
 959.168 675.459 976.791 636.961 976.791 593.046 c 0
 976.791 582.98 975.865 572.629 974 562 c 1
 965 527 l 1
 958 511 l 1
 930 458 893 415 846 381 c 0
 824 365 801 354 779 348 c 0
 761 344 745 342 728 342 c 0
 693 342 666 351 646 370 c 0
 627 389 617 407 614 424 c 1
 550 329 489 222 433 104 c 0
 413 62 399 27 390 0 c 1
 180 0 l 1
 203 108 l 2
 213.206 157.175 219.108 251.115 219.108 390.618 c 0
 219.108 401.47 219.072 412.597 219 424 c 1
 218.798 432.991 218.698 441.92 218.698 450.789 c 0
 218.698 529.708 226.616 603.779 241 673 c 0
 261 766 293 841 336 897 c 1
 389 964 451 1017 522 1057 c 1
 627 1114 730 1145 833 1149 c 0
 855 1149 l 0
 956 1148 1038 1130 1102 1095 c 1
 1123 1084 1143 1072 1161 1059 c 1
EndSplineSet
EndChar
StartChar: uni0E29
Encoding: 163 3625 165
OldEncoding: 3625
Width: 1350
Flags: HW
Fore
448 1039 m 0
 417 1039 389 1024 363 993 c 0
 349 976 341 959 337 942 c 2
 336 935 l 1
 334.631 926.007 333.951 917.587 333.951 909.733 c 0
 333.951 877.414 345.474 854.676 368 841 c 0
 377 835 390 832 404 832 c 1
 440 835 467 850 482 879 c 0
 490 894 496 914 502 940 c 1
 504.153 953.723 505.219 965.998 505.219 976.825 c 0
 505.219 1006.23 497.349 1024.96 482 1033 c 0
 473 1037 462 1039 448 1039 c 0
1052 433 m 1
 1033 426 1010 422 984 422 c 0
 931 422 886 434 851 457 c 0
 819 479 799 512 791 557 c 0
 789.202 567.338 788.212 577.474 788.212 587.59 c 0
 788.212 599.98 789.697 612.338 793 625 c 0
 796 642 802 658 810 673 c 1
 825 706 853 732 892 749 c 0
 913 758 934 763 956 763 c 0
 973 763 991 760 1006 754 c 0
 1031 744 1049 727 1056 702 c 0
 1060.37 691.323 1062.38 679.939 1062.38 667.962 c 0
 1062.38 655.262 1060.12 641.896 1056 628 c 1
 1045 598 1026 574 997 557 c 0
 987 552 978 548 970 546 c 1
 976 535 993 530 1019 529 c 1
 1050 532 l 1
 1060 534 1067 537 1075 541 c 1
 1201 1136 l 1
 1361 1136 l 1
 1259 652 l 1
 1291 679 1314 719 1325 771 c 1
 1431 767 l 1
 1422 724 l 1
 1406 673 1381 627 1348 586 c 0
 1318 552 1278 520 1224 491 c 1
 1178 273 l 2
 1153 153 1089 72 988 31 c 0
 919 4 822 -10 696 -10 c 0
 539 -10 434 26 380 99 c 0
 356.978 130.394 345.637 167.628 345.637 210.703 c 0
 345.637 229.371 347.767 249.137 352 270 c 2
 458 767 l 1
 444 753 420 744 388 740 c 0
 376 738 l 1
 343 741 l 1
 309 746 281 762 260 789 c 0
 240.488 813.39 230.732 842.778 230.732 877.046 c 0
 230.732 913.027 241.488 954.39 263 1001 c 0
 283 1044 318 1081 367 1111 c 0
 405 1134 445 1146 487 1147 c 0
 491 1147 491 1147 496 1147 c 0
 550 1146 591 1128 620 1092 c 0
 642.589 1065.02 653.76 1026.62 653.76 977.295 c 0
 653.76 948.013 649.823 914.88 642 878 c 2
 526 336 l 2
 522.383 318.296 520.578 301.897 520.578 286.789 c 0
 520.578 222.531 553.229 181.622 618 163 c 0
 645 155 680 151 722 150 c 1
 789 152 l 1
 927 165 1007 227 1031 336 c 1
 1052 433 l 1
963 595 m 1
 981 611 991 626 993 640 c 0
 993.653 643.047 993.974 646.142 993.974 649.274 c 0
 993.974 660.53 989.823 672.265 982 684 c 1
 972 697 959 704 942 704 c 0
 935 704 926 703 919 700 c 0
 909 697 900 691 891 684 c 0
 876 671 865 656 862 641 c 0
 861.336 637.681 861.015 634.313 861.015 630.917 c 0
 861.015 618.968 864.992 606.681 872 595 c 1
 883 583 897 577 915 577 c 0
 933 577 949 583 963 595 c 1
EndSplineSet
EndChar
StartChar: uni0E2A
Encoding: 164 3626 166
OldEncoding: 3626
Width: 1250
Flags: HW
Fore
442 97 m 0
 473 97 501 112 526 143 c 0
 540 160 549 177 552 194 c 0
 553 198 553 198 554 201 c 0
 555.309 209.601 555.953 217.677 555.953 225.229 c 0
 555.953 258.068 543.765 280.992 521 294 c 0
 512 301 500 304 486 304 c 1
 449 301 424 286 409 257 c 1
 395 222 l 1
 393 215 391 206 389 196 c 0
 386.326 180.85 384.977 167.465 384.977 155.845 c 0
 384.977 128.347 392.535 110.732 408 103 c 0
 416 99 428 97 442 97 c 0
1208 938 m 1
 1217 907.5 1221.5 873.5 1221.5 836 c 0
 1221.5 798.5 1217 757.5 1208 713 c 2
 1056 0 l 1
 896 0 l 1
 952 263 l 2
 957.984 291.177 960.984 317.488 960.984 341.919 c 0
 960.984 415.465 933.797 471.966 879 511 c 0
 833 544 770 560 692 560 c 0
 583 560 508 530 466 471 c 0
 453 453 445 432 440 407 c 2
 431 369 l 1
 445 383 469 392 502 396 c 0
 506 397 510 397 513 397 c 2
 548 395 l 1
 581 390 608 374 630 347 c 0
 649.013 322.625 658.519 293.259 658.519 259.019 c 0
 658.519 223.022 648.013 181.638 627 135 c 0
 607 92 572 56 522 25 c 0
 484 2 445 -10 403 -11 c 2
 394 -11 l 2
 340 -10 299 8 269 44 c 0
 246.71 70.6242 235.921 108.366 235.921 156.751 c 0
 235.921 186.511 240.003 220.298 248 258 c 2
 285 435 l 2
 303 516 343 579 408 624 c 0
 429 639 454 654 484 668 c 0
 555 703 635 720 722 720 c 0
 803 720 876 706 942 677 c 0
 988 658 1016 635 1025 609 c 1
 1048 714 l 2
 1055.01 748.217 1058.62 778.185 1058.62 803.905 c 0
 1058.62 840.573 1051.28 868.604 1036 888 c 1
 995 939 932 971 849 984 c 0
 828 987 806 989 783 989 c 0
 692 989 607 962 528 909 c 0
 497 887 469 862 446 835 c 1
 326 929 l 1
 380 996 456 1050 554 1092 c 0
 642 1130 729 1149 814 1149 c 0
 969 1149 1080 1113 1147 1042 c 1
 1200 1078 1252 1134 1303 1209 c 1
 1469 1209 l 1
 1433 1130 1377 1061 1298 1000 c 0
 1273 981 1242 960 1208 938 c 1
EndSplineSet
EndChar
StartChar: uni0E2B
Encoding: 165 3627 167
OldEncoding: 3627
Width: 1350
Flags: HW
Fore
532 190 m 1
 586 288 669 400 779 527 c 0
 873 636 956 716 1028 767 c 1
 987.692 787.994 967.834 825.206 967.834 878.638 c 0
 967.834 888.834 968.558 899.622 970 911 c 0
 971 922 974 935 977 950 c 0
 987 997 1012 1040 1052 1079 c 0
 1089 1114 1134 1135 1189 1142 c 0
 1198 1143 1206 1144 1215 1144 c 0
 1290 1144 1342 1119 1371 1068 c 0
 1384.1 1045.43 1390.85 1019.69 1390.85 990.38 c 0
 1390.85 979.425 1389.9 967.971 1388 956 c 1
 1376 904 l 1
 1360 862 l 1
 1340 820 1309 787 1269 764 c 1
 1297 747 1316 719 1326 678 c 0
 1329.3 665.338 1330.79 652.677 1330.79 640.182 c 0
 1330.79 629.98 1329.8 619.889 1328 610 c 2
 1198 0 l 1
 1038 0 l 1
 1164 594 l 2
 1165.71 601.43 1166.56 608.607 1166.56 615.529 c 0
 1166.56 644.94 1151.33 669.763 1123 690 c 1
 1043 638 946 546 834 415 c 0
 708 266 617 134 564 18 c 0
 556 0 l 1
 332 0 l 1
 497 776 l 1
 474 757 447 748 414 748 c 0
 376 748 344 763 319 794 c 1
 299.488 818.39 289.732 847.778 289.732 882.046 c 0
 289.732 918.027 300.488 959.39 322 1006 c 0
 342 1050 377 1087 425 1116 c 0
 453 1133 480 1144 508 1148 c 1
 555 1152 l 1
 638 1151 684 1111 694 1032 c 0
 695.786 1020.93 696.679 1009.22 696.679 996.872 c 0
 696.679 974.648 693.786 950.357 688 924 c 2
 532 190 l 1
498 1049 m 0
 467 1049 439 1034 413 1003 c 0
 400 986 391 969 387 952 c 2
 386 945 l 1
 384.631 936.007 383.951 927.587 383.951 919.74 c 0
 383.951 887.452 395.474 864.872 418 852 c 0
 428 845 440 842 454 842 c 1
 491 845 517 860 532 889 c 0
 540 904 546 924 552 950 c 1
 554.153 963.723 555.219 975.998 555.219 986.825 c 0
 555.219 1016.23 547.349 1034.96 532 1043 c 1
 510 1048 l 2
 506 1049 502 1049 498 1049 c 0
1152 830 m 1
 1180 832 l 1
 1214 839 1241 860 1260 893 c 0
 1266 905 1271 918 1274 931 c 0
 1275.46 937.588 1276.39 943.641 1276.39 949.942 c 0
 1276.39 952.249 1276.27 954.588 1276 957 c 0
 1276.04 958.231 1276.06 959.45 1276.06 960.657 c 0
 1276.06 990.833 1264.04 1013.58 1240 1028 c 1
 1217 1037 l 1
 1202 1039 l 1
 1177 1036 l 1
 1151 1029 1129 1015 1109 993 c 0
 1097 980 1089 959 1083 931 c 2
 1079 911 l 1
 1078 895 l 1
 1081 881 1089 868 1102 856 c 0
 1118 840 1135 831 1152 830 c 1
EndSplineSet
EndChar
StartChar: uni0E2C
Encoding: 166 3628 168
OldEncoding: 3628
Width: 1400
Flags: HW
AnchorPoint: "AboveBase" 1135.81 1227 basechar 0
Fore
1467 1159 m 1
 1274 248 l 2
 1253 151 1209 79 1142 32 c 1
 1109 12 l 1
 1072 -2 l 1
 1031 -10 l 2
 1022 -11 1012 -12 1003 -12 c 2
 934 -9 l 1
 873 -2 827 20 797 59 c 0
 794 62 792 66 790 69 c 1
 747 24 690 -2 617 -9 c 1
 556 -12 l 1
 506 -9 l 1
 411 5 362 60 358 157 c 0
 357.898 159.858 357.848 162.738 357.848 165.639 c 0
 357.848 191.156 361.715 218.369 368 248 c 2
 480 776 l 1
 456 757 428 747 397 747 c 0
 359 747 327 763 302 795 c 0
 282.488 818.902 272.732 847.802 272.732 881.698 c 0
 272.732 917.29 283.488 958.39 305 1005 c 0
 325 1049 360 1086 408 1116 c 0
 437 1133 464 1144 491 1148 c 1
 536 1151 l 1
 575 1150 612 1132 643 1097 c 0
 664.421 1072.62 674.929 1036.25 674.929 988.269 c 0
 674.929 971.292 673.614 952.863 671 933 c 0
 667 910 661 877 652 835 c 2
 528 248 l 2
 526.354 240.71 525.537 233.64 525.537 226.792 c 0
 525.537 204.522 534.174 184.591 551 167 c 0
 567 150 585 142 606 142 c 0
 645 142 680 158 709 189 c 0
 726 207 736 227 741 248 c 2
 909 1039 l 1
 1069 1039 l 1
 901 248 l 2
 899.631 241.548 898.951 235.326 898.951 229.318 c 0
 898.951 204.596 910.474 183.503 933 165 c 0
 952 150 973 142 998 142 c 0
 1032 142 1062 159 1088 193 c 0
 1101 210 1110 229 1114 248 c 2
 1309 1167 l 1
 1259 1171 1222 1190 1197 1225 c 0
 1183.21 1244.71 1175.88 1269.16 1175.88 1298.35 c 0
 1175.88 1313.61 1177.88 1330.16 1182 1348 c 4
 1186 1370 1194 1391 1204 1411 c 0
 1226 1454 1262 1485 1311 1505 c 0
 1336 1514 1360 1519 1385 1519 c 0
 1414 1519 1440 1512 1463 1498 c 0
 1497.38 1477.19 1514.57 1444.92 1514.57 1401.19 c 0
 1514.57 1396.59 1514.38 1391.86 1514 1387 c 0
 1512 1370 1507 1343 1499 1305 c 2
 1494 1281 l 1
 1532 1284 1564 1297 1591 1318 c 0
 1630 1349 1656 1399 1671 1467 c 1
 1771 1467 l 1
 1758 1406 1745 1364 1733 1340 c 0
 1727 1329 1720 1317 1713 1306 c 0
 1689 1269 1655 1236 1611 1207 c 1
 1565 1175 1516 1159 1467 1159 c 1
482 1043 m 0
 455 1043 431 1029 408 1000 c 1
 392 976 l 1
 384 949 l 1
 383 946 383 946 383 944 c 0
 381.775 935.629 381.175 927.8 381.175 920.496 c 0
 381.175 892.025 390.288 871.529 407 858 c 0
 416 851 427 847 440 847 c 0
 483 850 510 879 522 936 c 0
 525 950 l 0
 528.116 964.86 529.681 977.939 529.681 989.238 c 0
 529.681 1025.08 513.934 1043 482 1043 c 0
1330 1263 m 0
 1368 1263 1398 1279 1419 1310 c 0
 1427 1323 1433 1337 1437 1353 c 0
 1438.86 1361.88 1439.78 1370.08 1439.78 1377.6 c 0
 1439.78 1406.51 1426.19 1425.48 1400 1435 c 0
 1391 1438 1380 1440 1368 1440 c 0
 1331 1440 1302 1425 1280 1394 c 0
 1272 1381 1266 1367 1262 1351 c 0
 1260.64 1343.97 1259.95 1337.3 1259.95 1330.98 c 0
 1259.95 1309.42 1267.99 1291.92 1285 1278 c 0
 1298 1268 1312 1263 1330 1263 c 0
EndSplineSet
EndChar
StartChar: uni0E2D
Encoding: 167 3629 169
OldEncoding: 3629
Width: 1230
Flags: HW
Fore
588 642 m 0
 553 642 528 627 513 598 c 1
 499 563 l 1
 493 543 l 1
 489.259 524.973 487.368 509.375 487.368 496.128 c 0
 487.368 470.43 494.483 453.578 509 445 c 0
 517 440 529 436 544 435 c 1
 583 435 615 455 638 495 c 0
 646 508 652 523 656 538 c 1
 661 563 l 1
 660 594 649 616 625 631 c 0
 614 638 601 642 588 642 c 0
280 270 m 2
 315 434 l 2
 335 529 356 595 379 631 c 0
 394 654 413 675 438 694 c 0
 485.411 730.161 536.696 748.241 590.299 748.241 c 0
 603.401 748.241 616.643 747.161 630 745 c 0
 676 738 711 713 736 672 c 0
 749.935 647.931 756.648 619.448 756.648 586.553 c 0
 756.648 567.514 754.399 546.996 750 525 c 0
 738 470 712 426 669 392 c 0
 630.448 360.121 592.446 344.181 554.994 344.181 c 0
 541.929 344.181 528.931 346.121 516 350 c 1
 484 361 466 368 462 373 c 1
 448 304 448 304 439 262 c 128
 438.484 259.508 438.227 257.024 438.227 254.545 c 0
 438.227 228.181 467.327 202.508 524 176 c 0
 561 160 603 151 651 150 c 1
 708 153 l 1
 791 163 857 192 906 240 c 0
 935 269 954 302 962 339 c 2
 1042 715 l 2
 1049.15 749.067 1052.76 778.711 1052.76 803.86 c 0
 1052.76 838.506 1045.91 864.617 1032 882 c 0
 995 930 938 963 862 980 c 0
 835 986 807 989 778 989 c 0
 661 989 565 958 489 895 c 1
 452 862 l 1
 435 843 l 1
 321 929 l 1
 377 996 453 1051 551 1093 c 0
 638 1130 724 1149 809 1149 c 0
 906 1149 996 1126 1079 1079 c 0
 1127 1052 1162 1021 1184 987 c 0
 1207.71 951.434 1219.71 905.023 1219.71 848.052 c 0
 1219.71 818.525 1216.49 786.161 1210 751 c 1
 1108 273 l 2
 1089 184 1029 113 929 60 c 0
 839 13 734 -10 613 -10 c 0
 503 -10 416 18 351 73 c 0
 300.06 115.981 275.094 166.564 275.094 224.245 c 0
 275.094 239.033 276.735 254.287 280 270 c 2
EndSplineSet
EndChar
StartChar: uni0E2E
Encoding: 168 3630 170
OldEncoding: 3630
Width: 1250
Flags: HW
Fore
595 642 m 0
 560 642 535 627 520 598 c 1
 506 563 l 1
 500 543 l 1
 496.259 524.973 494.368 509.375 494.368 496.128 c 0
 494.368 470.43 501.483 453.578 516 445 c 0
 524 440 536 436 551 435 c 1
 590 435 622 455 645 495 c 0
 653 508 659 523 663 538 c 1
 668 563 l 1
 667 594 656 616 632 631 c 0
 621 638 608 642 595 642 c 0
1050 718 m 2
 1055.17 743.113 1058.16 759.497 1058.16 767.152 c 0
 1058.16 769.861 1057.78 771.477 1057 772 c 1
 1056 773 1056 777 1056 782 c 1
 1057 784 l 1
 1057 807 1054 827 1047 842 c 1
 972 790 873 764 750 764 c 1
 673 767 l 1
 555 777 475 807 432 856 c 0
 412.546 877.699 402.609 902.197 402.609 929.495 c 0
 402.609 938.68 403.734 948.181 406 958 c 0
 416 1006 463 1049 546 1086 c 0
 633 1126 728 1147 829 1149 c 0
 834 1149 834 1149 840 1149 c 0
 939 1149 1026 1126 1101 1080 c 0
 1113 1072 1113 1072 1124 1064 c 1
 1160 1100 1183 1131 1196 1158 c 1
 1309 1116 l 1
 1275 1061 1239 1014 1201 975 c 1
 1218.36 938.194 1227.04 896.566 1227.04 850.116 c 0
 1227.04 829.677 1225.36 808.306 1222 786 c 1
 1199 669 l 1
 1193 639 1193 639 1190 625 c 2
 1115 273 l 2
 1096 184 1036 113 936 60 c 0
 846 13 741 -10 620 -10 c 0
 510 -10 423 18 358 73 c 0
 307.06 115.981 282.094 166.564 282.094 224.245 c 0
 282.094 239.033 283.735 254.287 287 270 c 2
 322 434 l 2
 342 529 363 595 386 631 c 0
 401 654 420 675 445 694 c 0
 492.411 730.161 543.696 748.241 597.299 748.241 c 0
 610.401 748.241 623.643 747.161 637 745 c 0
 683 738 718 713 743 672 c 0
 756.935 647.931 763.648 619.448 763.648 586.553 c 0
 763.648 567.514 761.399 546.996 757 525 c 0
 745 470 719 426 676 392 c 0
 637.448 360.121 599.446 344.181 561.994 344.181 c 0
 548.929 344.181 535.931 346.121 523 350 c 1
 491 361 473 368 469 373 c 1
 455 304 455 304 446 262 c 128
 445.484 259.508 445.227 257.024 445.227 254.545 c 0
 445.227 228.181 474.327 202.508 531 176 c 0
 568 160 610 151 658 150 c 1
 715 153 l 1
 798 163 864 192 913 240 c 0
 942 269 961 302 969 339 c 2
 1050 718 l 2
1026 952 m 1
 967 1004 898 1033 817 1038 c 0
 805 1038 l 2
 751 1035 l 1
 694 1028 645 1014 603 995 c 0
 577 982 561 970 558 958 c 1
 558 945 l 1
 565 921 602 901 667 886 c 0
 703 879 736 875 769 875 c 0
 859 875 945 901 1026 952 c 1
EndSplineSet
EndChar
StartChar: uni0E2F
Encoding: 169 3631 171
OldEncoding: 3631
Width: 1150
Flags: HW
Fore
1269 1149 m 1
 1025 0 l 1
 865 0 l 1
 1041 830 l 1
 962 764 875 721 780 702 c 0
 731 691 682 686 633 686 c 0
 538 686 464 703 411 738 c 1
 364 765 334 803 322 852 c 0
 318.875 864.5 317.312 877.391 317.312 890.428 c 0
 317.312 898.25 317.875 906.125 319 914 c 0
 330 979 364 1034 420 1078 c 0
 459 1108 500 1126 547 1132 c 0
 558.625 1133.69 569.758 1134.53 580.418 1134.53 c 0
 626.613 1134.53 663.938 1118.69 694 1087 c 0
 718.259 1060.88 731.201 1028.66 731.201 990.344 c 0
 731.201 987.594 731.134 984.813 731 982 c 0
 727 924 697 874 639 832 c 1
 646.773 828.318 657.558 826.477 671.424 826.477 c 0
 691.452 826.477 717.909 830.318 751 838 c 0
 868 866 961 921 1029 1003 c 0
 1065 1046 1093 1095 1109 1149 c 1
 1269 1149 l 1
530 1042 m 0
 493 1036 464 1016 442 983 c 0
 433 970 427 955 424 940 c 0
 422 932 421 924 421 917 c 0
 421 886 434 863 462 850 c 0
 474 845 486 842 499 842 c 0
 503 842 507 842 512 843 c 0
 552 849 584 868 608 901 c 0
 617 915 624 930 627 946 c 0
 628 950 629 954 629 958 c 0
 629.041 959.326 629.062 960.641 629.062 961.943 c 0
 629.062 992.059 617.922 1015.7 593 1032 c 0
 580 1040 566 1044 550 1044 c 0
 544 1044 538 1043 530 1042 c 0
EndSplineSet
EndChar
StartChar: uni0E30
Encoding: 170 3632 172
OldEncoding: 3632
Width: 1100
Flags: HW
Fore
232 289 m 1
 243 330 l 1
 263 387 299 430 353 459 c 0
 376 472 400 480 426 483 c 1
 463 484 l 1
 500 482 530 467 552 439 c 0
 570.182 416.273 579.273 390.24 579.273 360.15 c 0
 579.273 357.141 579.182 354.091 579 351 c 1
 573 318 l 1
 559 269 531 231 488 204 c 2
 480 199 l 1
 489 196 503 194 524 194 c 0
 557 194 589 198 620 207 c 0
 719 236 791 283 838 349 c 0
 863 384 883 427 900 479 c 1
 1016 479 l 1
 990 357 923 258 813 181 c 0
 770 150 722 126 671 108 c 0
 617 88 560 78 501 78 c 0
 406 78 332 101 281 148 c 0
 246.81 178.855 230.005 216.663 230.005 261.426 c 0
 230.005 270.341 230.671 279.533 232 289 c 1
414 408 m 0
 383 403 358 388 341 361 c 0
 334 351 329 340 327 328 c 0
 326 323 325 317 325 311 c 0
 325 283 338 265 363 256 c 0
 371 253 379 251 388 251 c 0
 392 251 396 251 401 252 c 0
 437 257 464 274 483 303 c 0
 489 312 493 322 496 332 c 0
 496 335 497 339 497 343 c 0
 497.042 344.165 497.062 345.315 497.062 346.452 c 0
 497.062 372.65 486.002 391.499 463 403 c 0
 453 407 442 409 430 409 c 0
 425 409 419 409 414 408 c 0
352 814 m 1
 363 855 l 1
 383 912 419 955 472 984 c 0
 496 997 520 1005 545 1008 c 1
 583 1009 l 1
 620 1007 650 992 672 964 c 0
 690.02 941.475 698.298 915.704 698.298 885.954 c 0
 698.298 882.684 698.198 879.367 698 876 c 1
 692 843 l 1
 685 818 673 794 656 772 c 1
 633 748 l 1
 622 739 611 731 600 724 c 1
 608 721 623 719 644 719 c 0
 677 719 709 723 740 732 c 0
 839 761 911 808 958 874 c 0
 982 909 1003 952 1019 1004 c 1
 1135 1004 l 1
 1109 882 1042 783 934 706 c 1
 889 675 841 651 791 633 c 0
 736 613 679 603 620 603 c 0
 525 603 452 626 401 673 c 0
 366.81 703.855 350.005 741.663 350.005 786.426 c 0
 350.005 795.341 350.671 804.533 352 814 c 1
533 933 m 1
 503 928 479 913 460 886 c 0
 454 876 450 865 446 853 c 0
 445 848 445 842 445 836 c 0
 445 808 458 790 483 781 c 0
 490 778 499 776 508 776 c 0
 512 776 516 776 521 777 c 0
 557 782 584 799 603 828 c 0
 609 837 613 847 615 857 c 0
 615.707 859.121 616.414 861.743 616.414 864.51 c 0
 616.414 865.657 616.293 866.828 616 868 c 0
 616.153 870.148 616.23 872.248 616.23 874.301 c 0
 616.23 899.021 605.083 916.92 582 928 c 0
 574 932 565 934 554 934 c 2
 533 933 l 1
EndSplineSet
EndChar
StartChar: uni0E31
Encoding: 171 3633 173
OldEncoding: 3633
Width: 0
Flags: HW
AnchorPoint: "AboveMark" 107.849 1740 basemark 0
AnchorPoint: "AboveBase" 80.8066 1227 mark 0
Fore
-419 1444 m 1
 -408 1485 l 1
 -388 1542 -352 1585 -299 1614 c 0
 -275 1627 -251 1635 -226 1638 c 1
 -189 1639 l 1
 -151 1637 -121 1622 -99 1594 c 0
 -80.9804 1571.48 -72.702 1545.7 -72.702 1515.95 c 0
 -72.702 1512.68 -72.802 1509.37 -73 1506 c 1
 -79 1473 l 1
 -92 1424 -120 1386 -163 1359 c 2
 -171 1354 l 1
 -163 1351 -148 1349 -127 1349 c 0
 -94 1349 -62 1353 -31 1362 c 0
 68 1391 140 1438 187 1504 c 0
 211 1539 231 1582 248 1634 c 1
 364 1634 l 1
 338 1512 271 1413 162 1336 c 0
 118 1305 70 1281 19 1263 c 0
 -35 1243 -92 1233 -151 1233 c 0
 -246 1233 -319 1256 -370 1303 c 0
 -404.19 1333.85 -420.995 1371.66 -420.995 1416.43 c 0
 -420.995 1425.34 -420.329 1434.53 -419 1444 c 1
-238 1563 m 0
 -269 1558 -293 1543 -311 1516 c 0
 -318 1506 -322 1495 -325 1483 c 0
 -326 1478 -326 1472 -326 1466 c 0
 -326 1438 -313 1420 -288 1411 c 0
 -281 1408 -272 1406 -263 1406 c 0
 -259 1406 -255 1406 -251 1407 c 0
 -215 1412 -187 1429 -168 1458 c 0
 -162 1467 -158 1477 -156 1487 c 0
 -155.293 1489.12 -154.586 1491.74 -154.586 1494.51 c 0
 -154.586 1495.66 -154.707 1496.83 -155 1498 c 0
 -154.955 1499.26 -154.932 1500.51 -154.932 1501.74 c 0
 -154.932 1527.79 -165.127 1546.54 -189 1558 c 0
 -199 1562 -210 1564 -222 1564 c 0
 -227 1564 -233 1564 -238 1563 c 0
EndSplineSet
EndChar
StartChar: uni0E32
Encoding: 172 3634 174
OldEncoding: 3634
Width: 1150
Flags: HW
Fore
1116 753 m 2
 956 0 l 1
 796 0 l 1
 951 729 l 2
 957.221 757.91 960.329 784.41 960.329 808.499 c 0
 960.329 916.061 898.371 975.562 775 987 c 0
 764 988 754 989 743 989 c 2
 710 986 l 1
 654 975 600 944 545 891 c 0
 519 865 498 838 483 811 c 1
 316 837 l 1
 352 918 411 988 493 1049 c 0
 583 1116 674 1149 766 1149 c 0
 894 1149 991 1115 1056 1047 c 0
 1102.92 998.405 1126.67 934.366 1126.67 854.295 c 0
 1126.67 838.798 1125.78 822.702 1124 806 c 0
 1123 789 1120 771 1116 753 c 2
EndSplineSet
EndChar
StartChar: uni0E33
Encoding: 173 3635 175
OldEncoding: 3635
Width: 1050
Flags: HW
Fore
1065 753 m 2
 905 0 l 1
 745 0 l 1
 900 729 l 2
 906.221 757.91 909.329 784.41 909.329 808.499 c 0
 909.329 916.061 847.371 975.562 724 987 c 0
 713 988 703 989 692 989 c 2
 659 986 l 1
 603 975 549 944 494 891 c 0
 468 865 447 838 432 811 c 1
 265 837 l 1
 301 918 360 988 442 1049 c 0
 532 1116 623 1149 715 1149 c 0
 843 1149 940 1115 1005 1047 c 0
 1051.92 998.405 1075.67 934.366 1075.67 854.295 c 0
 1075.67 838.798 1074.78 822.702 1073 806 c 0
 1072 789 1069 771 1065 753 c 2
56 1668 m 0
 126 1668 179 1642 215 1591 c 0
 235.314 1562.28 245.814 1529.15 245.814 1491.59 c 0
 245.814 1475.54 243.894 1458.67 240 1441 c 0
 225 1368 183 1308 116 1263 c 0
 66 1229 14 1212 -41 1212 c 0
 -106 1212 -156 1237 -192 1288 c 0
 -214.978 1319.6 -226.097 1354.8 -226.097 1393.61 c 0
 -226.097 1408.85 -224.383 1424.65 -221 1441 c 0
 -207 1507 -169 1563 -107 1610 c 0
 -55 1649 -1 1668 56 1668 c 0
30 1540 m 0
 -9 1540 -42 1524 -70 1492 c 1
 -86 1468 l 1
 -91 1458 -94 1448 -97 1437 c 0
 -98.5969 1428.56 -99.4132 1420.53 -99.4132 1412.93 c 0
 -99.4132 1387.18 -90.0686 1366.21 -70 1350 c 0
 -55 1338 -36 1332 -14 1332 c 0
 32 1332 68 1350 94 1385 c 0
 107 1401 114 1418 118 1437 c 0
 120.037 1446.05 121.049 1454.54 121.049 1462.48 c 0
 121.049 1489.61 109.212 1510.3 86 1525 c 0
 71 1535 52 1540 30 1540 c 0
EndSplineSet
MultipleSubs: 0 1 'ccmp' uni0E4D uni0E32
EndChar
StartChar: uni0E34
Encoding: 174 3636 176
OldEncoding: 3636
Width: 0
Flags: HW
AnchorPoint: "AboveMark" 97.8486 1740 basemark 0
AnchorPoint: "AboveBase" 80.8066 1227 mark 0
Fore
81 1227 m 5
 -56 1258 -260 1284 -532 1307 c 0
 -661 1317 -765 1322 -843 1322 c 1
 -807 1391 -746 1458 -657 1523 c 0
 -624 1547 -592 1567 -561 1583 c 0
 -484 1622 -400 1641 -309 1641 c 0
 -289 1641 -269 1640 -250 1638 c 0
 -161 1628 -85 1593 -22 1532 c 0
 -16 1527 -11 1521 -5 1515 c 0
 52.0958 1452.1 81.0968 1360.16 81.0968 1239.2 c 0
 81.0968 1235.17 81.0646 1231.1 81 1227 c 5
-76 1359 m 1
 -75.8997 1360.6 -75.8497 1362.21 -75.8497 1363.82 c 0
 -75.8497 1394.31 -93.8045 1425.75 -128 1459 c 0
 -172 1502 -227 1525 -291 1530 c 1
 -347 1530 l 1
 -432 1525 -504 1497 -563 1448 c 1
 -591 1421 l 1
 -593 1418 -595 1416 -598 1413 c 1
 -510 1412 l 1
 -369 1404 -240 1390 -125 1369 c 0
 -105 1366 -88 1362 -76 1359 c 1
EndSplineSet
EndChar
StartChar: uni0E35
Encoding: 175 3637 177
OldEncoding: 3637
Width: 0
Flags: HW
AnchorPoint: "AboveMark" 107.849 1740 basemark 0
AnchorPoint: "AboveBase" 80.8066 1227 mark 0
Fore
81 1260 m 1
 81 1249 81 1238 81 1228 c 1
 -55 1259 -260 1285 -532 1308 c 0
 -661 1318 -765 1323 -843 1323 c 1
 -807 1392 -746 1459 -657 1524 c 0
 -624 1548 -592 1568 -560 1584 c 0
 -484 1623 -400 1642 -309 1642 c 0
 -289 1642 -269 1641 -250 1639 c 0
 -162 1629 -86 1594 -22 1533 c 0
 -19 1530 -15 1528 -13 1525 c 1
 32 1735 l 1
 182 1735 l 1
 81 1260 l 1
-88 1370 m 1
 -96 1401 -121 1432 -161 1461 c 0
 -202 1490 -247 1506 -295 1511 c 1
 -343 1512 l 1
 -410 1508 -473 1489 -530 1454 c 1
 -559 1434 l 2
 -563 1431 -567 1427 -570 1424 c 1
 -472 1424 -351 1413 -205 1392 c 0
 -154 1385 -115 1377 -88 1370 c 1
EndSplineSet
EndChar
StartChar: uni0E36
Encoding: 176 3638 178
OldEncoding: 3638
Width: 0
Flags: HW
AnchorPoint: "AboveMark" 171.849 1740 basemark 0
AnchorPoint: "AboveBase" 80.8066 1227 mark 0
Fore
-38 1548 m 1
 -20 1585 3 1614 32 1635 c 0
 72 1666 114 1681 159 1681 c 4
 214 1681 256 1661 284 1620 c 0
 300.941 1596.71 309.412 1570.42 309.412 1540.8 c 0
 309.412 1528.45 307.941 1515.53 305 1502 c 0
 293 1445 260 1398 208 1362 c 0
 168 1335 125 1321 79 1321 c 1
 80.4641 1308.56 81.3923 1288.61 81.3923 1261.16 c 0
 81.3923 1251.11 81.2679 1240.06 81 1228 c 1
 -55 1259 -260 1285 -532 1308 c 0
 -661 1318 -765 1323 -843 1323 c 1
 -807 1392 -746 1459 -657 1524 c 0
 -624 1548 -592 1568 -560 1584 c 0
 -484 1623 -400 1642 -309 1642 c 0
 -289 1642 -269 1641 -250 1639 c 0
 -171 1630 -100 1599 -38 1548 c 1
135 1568 m 0
 107 1568 84 1556 66 1533 c 1
 57 1523 51 1512 49 1500 c 0
 47.7143 1494.21 47.0714 1488.7 47.0714 1483.48 c 0
 47.0714 1464.32 55.7143 1449 73 1438 c 0
 82 1432 93 1429 106 1429 c 0
 138 1429 163 1442 181 1468 c 0
 188 1478 192 1489 195 1500 c 0
 196.2 1505.6 196.8 1510.88 196.8 1515.85 c 0
 196.8 1535.72 187.2 1550.6 168 1561 c 0
 158 1566 147 1568 135 1568 c 0
-85 1358 m 1
 -94 1389 -118 1421 -157 1454 c 0
 -200 1489 -245 1508 -294 1513 c 1
 -338 1514 l 1
 -402 1509 -467 1487 -530 1448 c 1
 -565 1423 l 2
 -569 1420 -573 1416 -577 1412 c 1
 -478 1412 -355 1401 -208 1380 c 0
 -153 1373 -113 1365 -85 1358 c 1
EndSplineSet
EndChar
StartChar: uni0E37
Encoding: 177 3639 179
OldEncoding: 3639
Width: 0
Flags: HW
AnchorPoint: "AboveMark" -6.15137 1740 basemark 0
AnchorPoint: "AboveBase" 80.8066 1227 mark 0
Fore
-82 1570 m 1
 -67 1570 -46 1554 -17 1523 c 0
 -15 1520 -15 1520 -14 1519 c 1
 29 1721 l 5
 179 1721 l 1
 86 1284 l 1
 76 1227 l 1
 -60 1258 -269 1284 -552 1307 c 0
 -669 1317 -760 1322 -824 1322 c 1
 -773 1415 -691 1494 -577 1560 c 0
 -514 1597 -440 1620 -355 1630 c 1
 -294 1633 l 1
 -267 1632 -243 1629 -221 1624 c 1
 -200 1722 l 1
 -50 1722 l 1
 -82 1570 l 1
-108 1369 m 1
 -119 1408 -144 1441 -183 1468 c 0
 -215 1490 -254 1502 -296 1505 c 1
 -351 1505 l 1
 -436 1498 -504 1469 -557 1416 c 2
 -560 1413 l 1
 -438 1408 l 1
 -271 1397 -161 1384 -108 1369 c 1
EndSplineSet
EndChar
StartChar: uni0E38
Encoding: 178 3640 180
OldEncoding: 3640
Width: 0
Flags: HW
AnchorPoint: "BelowBase" -176.067 -85 mark 0
Fore
-403 -534 m 1
 -366 -360 l 1
 -377 -369 -389 -374 -402 -375 c 2
 -436 -376 l 1
 -464 -374 -488 -362 -506 -341 c 0
 -521.465 -324.832 -529.023 -303.723 -529.023 -278.368 c 0
 -529.023 -267.653 -527.674 -256.179 -525 -244 c 0
 -521 -228 -516 -211 -507 -192 c 0
 -490 -157 -461 -129 -420 -107 c 0
 -392 -92 -365 -85 -338 -85 c 5
 -302 -88 l 1
 -261 -96 -234 -115 -222 -145 c 0
 -215 -161.5 -211.5 -182.75 -211.5 -208.5 c 0
 -211.5 -234.25 -215 -264.5 -222 -299 c 0
 -225 -313 l 2
 -272 -534 l 1
 -403 -534 l 1
-366 -163 m 0
 -373 -163 -380 -165 -388 -168 c 0
 -404 -175 -419 -186 -431 -203 c 0
 -438 -214 -444 -225 -446 -236 c 0
 -447.768 -244.449 -448.649 -252.165 -448.649 -259.139 c 0
 -448.649 -287.659 -433.926 -303.786 -405 -307 c 0
 -402 -308 -399 -308 -396 -308 c 0
 -389 -308 -382 -305 -374 -300 c 0
 -352 -286 -337 -265 -331 -237 c 0
 -331 -234 -331 -234 -330 -232 c 0
 -328.711 -223.711 -328.066 -216.168 -328.066 -209.371 c 0
 -328.066 -179.273 -340.711 -163.816 -366 -163 c 0
EndSplineSet
EndChar
StartChar: uni0E39
Encoding: 179 3641 181
OldEncoding: 3641
Width: 0
Flags: HW
AnchorPoint: "BelowBase" -176.067 -85 mark 0
Fore
-312 -96 m 1
 -178 -96 l 1
 -272 -534 l 1
 -682 -534 l 1
 -645 -360 l 1
 -656 -369 -668 -374 -681 -375 c 2
 -715 -376 l 1
 -743 -374 -767 -362 -785 -341 c 0
 -800.465 -324.832 -808.023 -303.723 -808.023 -278.368 c 0
 -808.023 -267.653 -806.674 -256.179 -804 -244 c 0
 -800 -228 -795 -211 -786 -192 c 0
 -769 -157 -740 -129 -699 -107 c 0
 -671 -92 -644 -85 -617 -85 c 1
 -581 -88 l 1
 -540 -96 -513 -115 -501 -145 c 0
 -494 -161.5 -490.5 -182.75 -490.5 -208.5 c 0
 -490.5 -234.25 -494 -264.5 -501 -299 c 0
 -504 -313 l 2
 -529 -435 l 1
 -384 -435 l 1
 -312 -96 l 1
-645 -163 m 0
 -652 -163 -659 -165 -667 -168 c 0
 -683 -175 -698 -186 -710 -203 c 0
 -717 -214 -723 -225 -725 -236 c 0
 -726.768 -244.449 -727.649 -252.165 -727.649 -259.139 c 0
 -727.649 -287.659 -712.926 -303.786 -684 -307 c 0
 -681 -308 -678 -308 -675 -308 c 0
 -668 -308 -661 -305 -653 -300 c 0
 -631 -286 -616 -265 -610 -237 c 0
 -610 -234 -610 -234 -609 -232 c 0
 -607.711 -223.711 -607.066 -216.168 -607.066 -209.371 c 0
 -607.066 -179.273 -619.711 -163.816 -645 -163 c 0
EndSplineSet
EndChar
StartChar: uni0E3A
Encoding: 180 3642 182
OldEncoding: 3642
Width: 0
Flags: HW
AnchorPoint: "BelowBase" -171.816 -65 mark 0
Fore
-259 -60 m 0
 -222 -60 -194 -73 -173 -99 c 0
 -157.25 -120.75 -149.375 -144.188 -149.375 -169.312 c 0
 -149.375 -177.688 -150.25 -186.25 -152 -195 c 0
 -160 -232 -181 -263 -213 -289 c 1
 -245 -316 -279 -330 -316 -330 c 0
 -351 -330 -380 -316 -401 -289 c 0
 -416.838 -269.563 -424.383 -248.053 -424.383 -224.097 c 0
 -424.383 -214.776 -423.241 -205.084 -421 -195 c 0
 -414 -160 -394 -128 -361 -99 c 1
 -329 -73 -295 -60 -259 -60 c 0
EndSplineSet
EndChar
StartChar: uni0E3F
Encoding: 181 3647 183
OldEncoding: 3647
Width: 1250
Flags: HW
Fore
1059 827 m 1
 1142 802 1202 757 1236 693 c 1
 1257.66 650.948 1268.37 603.619 1268.37 551.271 c 0
 1268.37 521.459 1264.89 490.02 1258 457 c 0
 1230 324 1160 216 1048 133 c 0
 937 50 805 6 653 2 c 1
 625 -133 l 1
 513 -133 l 1
 541 0 l 1
 152 0 l 1
 468 1489 l 1
 857 1489 l 1
 880 1595 l 1
 992 1595 l 1
 969 1489 l 1
 1114 1487 1218 1458 1280 1402 c 0
 1323.56 1362.73 1345.7 1307.65 1345.7 1236.76 c 0
 1345.7 1208.38 1342.15 1177.46 1335 1144 c 0
 1322 1082 1290 1022 1241 965 c 0
 1191 908 1131 865 1061 836 c 1
 1059 827 l 1
729 885 m 1
 822 1321 l 1
 629 1321 l 1
 536 885 l 1
 729 885 l 1
842 887 m 1
 901 888 958 906 1014 941 c 0
 1068 976 1105 1037 1124 1124 c 0
 1128.63 1145.5 1130.96 1164.92 1130.96 1182.33 c 0
 1130.96 1217.57 1121.41 1244.59 1102 1264 c 0
 1073 1293 1032 1310 982 1315 c 1
 971 1315 954 1316 933 1319 c 1
 842 887 l 1
577 170 m 1
 694 719 l 1
 501 719 l 1
 384 170 l 1
 577 170 l 1
690 174 m 1
 779 178 856 202 921 246 c 0
 988 291 1030 359 1049 449 c 0
 1057.2 486.7 1061.21 519.026 1061.21 545.979 c 0
 1061.21 568.357 1058.44 587.03 1053 602 c 0
 1040 635 1013 662 972 683 c 1
 932 706 876 717 805 717 c 1
 690 174 l 1
EndSplineSet
EndChar
StartChar: uni0E40
Encoding: 182 3648 184
OldEncoding: 3648
Width: 700
Flags: HW
Fore
411 1149 m 1
 571 1149 l 1
 413 403 l 1
 405 369 l 1
 420 383 444 392 476 396 c 0
 479 397 483 397 487 397 c 2
 522 395 l 1
 555 390 582 374 604 347 c 0
 623.013 322.625 632.519 293.259 632.519 259.019 c 0
 632.519 223.022 622.013 181.638 601 135 c 0
 581 92 546 55 496 25 c 0
 458 2 419 -10 377 -11 c 0
 373 -11 373 -11 368 -11 c 0
 314 -10 273 8 243 44 c 0
 220.71 70.6242 209.921 108.366 209.921 156.751 c 0
 209.921 186.511 214.003 220.298 222 258 c 2
 253 403 l 1
 411 1149 l 1
416 97 m 0
 447 97 475 112 500 143 c 0
 514 160 523 177 526 194 c 0
 527 198 527 198 528 201 c 0
 529.309 209.601 529.953 217.677 529.953 225.229 c 0
 529.953 258.068 517.765 280.992 495 294 c 0
 486 301 474 304 460 304 c 1
 423 301 397 286 382 257 c 0
 374 242 368 222 363 196 c 1
 360.326 180.85 358.977 167.465 358.977 155.845 c 0
 358.977 128.347 366.535 110.732 382 103 c 0
 390 99 402 97 416 97 c 0
EndSplineSet
EndChar
StartChar: uni0E41
Encoding: 183 3649 185
OldEncoding: 3649
Width: 1320
Flags: HW
Fore
1048 1149 m 1
 1208 1149 l 1
 1050 403 l 1
 1042 369 l 1
 1057 383 1081 392 1113 396 c 0
 1116 397 1120 397 1124 397 c 2
 1159 395 l 1
 1192 390 1219 374 1241 347 c 0
 1260.01 322.625 1269.52 293.259 1269.52 259.019 c 0
 1269.52 223.022 1259.01 181.638 1238 135 c 0
 1218 92 1183 55 1133 25 c 0
 1095 2 1056 -10 1014 -11 c 0
 1010 -11 1010 -11 1005 -11 c 0
 951 -10 910 8 880 44 c 0
 857.71 70.6242 846.921 108.366 846.921 156.751 c 0
 846.921 186.511 851.003 220.298 859 258 c 2
 890 403 l 1
 1048 1149 l 1
1053 97 m 0
 1084 97 1112 112 1137 143 c 0
 1151 160 1160 177 1163 194 c 0
 1164 198 1164 198 1165 201 c 0
 1166.31 209.601 1166.95 217.677 1166.95 225.229 c 0
 1166.95 258.068 1154.76 280.992 1132 294 c 0
 1123 301 1111 304 1097 304 c 1
 1060 301 1034 286 1019 257 c 0
 1011 242 1005 222 1000 196 c 1
 997.326 180.85 995.977 167.465 995.977 155.845 c 0
 995.977 128.347 1003.54 110.732 1019 103 c 0
 1027 99 1039 97 1053 97 c 0
435 1149 m 1
 595 1149 l 1
 437 403 l 1
 429 369 l 1
 444 383 468 392 500 396 c 0
 503 397 507 397 511 397 c 2
 546 395 l 1
 579 390 606 374 628 347 c 0
 647.013 322.625 656.519 293.259 656.519 259.019 c 0
 656.519 223.022 646.013 181.638 625 135 c 0
 605 92 570 55 520 25 c 0
 482 2 443 -10 401 -11 c 0
 397 -11 397 -11 392 -11 c 0
 338 -10 297 8 267 44 c 0
 244.71 70.6242 233.921 108.366 233.921 156.751 c 0
 233.921 186.511 238.003 220.298 246 258 c 2
 277 403 l 1
 435 1149 l 1
440 97 m 0
 471 97 499 112 524 143 c 0
 538 160 547 177 550 194 c 0
 551 198 551 198 552 201 c 0
 553.309 209.601 553.953 217.677 553.953 225.229 c 0
 553.953 258.068 541.765 280.992 519 294 c 0
 510 301 498 304 484 304 c 1
 447 301 421 286 406 257 c 0
 398 242 392 222 387 196 c 1
 384.326 180.85 382.977 167.465 382.977 155.845 c 0
 382.977 128.347 390.535 110.732 406 103 c 0
 414 99 426 97 440 97 c 0
EndSplineSet
EndChar
StartChar: uni0E42
Encoding: 184 3650 186
OldEncoding: 3650
Width: 1100
Flags: HW
Fore
742 850 m 2
 751.458 895.064 756.273 932.39 756.273 961.806 c 0
 756.273 985.263 753.211 1003.69 747 1017 c 0
 738 1038 716 1057 682 1076 c 0
 602 1120 465 1153 271 1175 c 1
 277 1204 308 1256 365 1331 c 0
 376 1346 387 1359 396 1370 c 0
 464 1451 542 1507 630 1539 c 0
 675 1556 719 1564 763 1564 c 0
 770 1564 777 1564 784 1563 c 0
 823 1561 878 1546 947 1517 c 0
 988 1500 1018 1488 1039 1483 c 0
 1089 1470 1138 1463 1183 1463 c 0
 1261 1463 1326 1483 1380 1524 c 1
 1325 1370 l 1
 1260 1339 1191 1323 1120 1323 c 0
 1077 1323 1035 1329 995 1340 c 0
 980 1345 940 1361 875 1388 c 1
 827 1409 787 1421 753 1424 c 1
 717 1423 l 1
 657 1416 597 1381 536 1319 c 0
 523 1306 512 1293 502 1280 c 1
 642 1255 745 1220 815 1174 c 0
 826 1167 835 1159 843 1152 c 0
 883 1114 907 1077 915 1041 c 0
 918.075 1026.65 919.632 1009.85 919.632 990.596 c 0
 919.632 953.499 913.85 907.3 902 852 c 2
 807 403 l 1
 799 369 l 1
 814 383 838 392 870 396 c 0
 874 397 878 397 882 397 c 2
 916 395 l 1
 950 390 977 374 999 347 c 0
 1018.01 322.625 1027.52 293.259 1027.52 259.019 c 0
 1027.52 223.022 1017.01 181.638 996 135 c 0
 976 92 941 55 891 25 c 0
 853 2 813 -10 771 -11 c 0
 763 -11 l 0
 709 -10 668 8 638 44 c 0
 615.411 70.9816 604.24 109.381 604.24 158.705 c 0
 604.24 187.988 608.177 221.12 616 258 c 2
 647 403 l 1
 742 850 l 2
810 97 m 0
 841 97 869 112 894 143 c 0
 909 160 918 177 921 194 c 0
 922 197 922 199 922 201 c 0
 923.369 209.993 924.049 218.413 924.049 226.26 c 0
 924.049 258.548 912.526 281.128 890 294 c 0
 880 301 868 304 854 304 c 1
 817 301 792 286 777 257 c 0
 768 242 762 222 757 196 c 1
 754.759 181.714 753.617 168.998 753.617 157.851 c 0
 753.617 129.202 761.162 110.919 777 103 c 0
 785 99 796 97 810 97 c 0
EndSplineSet
EndChar
